<svg width="206" height="99" viewBox="0 0 206 99" fill="none" xmlns="http://www.w3.org/2000/svg">
<path opacity="0.3" d="M204.91 16.4352V10.43C204.91 5.08391 200.576 0.75 195.23 0.75H184.05M204.91 29.8145V37.1804V37.2455M204.91 40.4152V43.65M204.91 71.1095V75.1426M204.91 81.8649V87.87C204.91 93.216 200.576 97.55 195.23 97.55H175.617M168.478 97.55H163.596M160.413 97.55H157.306M92.5454 97.55H85.8882M81.2735 97.55H76.8357M0.75 75.1426V79.95M0.75 71.9402V67.0105M0.75 37.9463V32.5685M0.75 16.4352V10.43C0.75 5.08391 5.08391 0.75 10.43 0.75H15.8401M19.3907 0.75H24.2728M79.1316 0.75H82.238M86.2939 0.75H90.2882M160.038 0.75H164.476M179.918 0.75H181.264" stroke="#3785D7" stroke-width="1.5" stroke-linecap="round"/>
</svg>
