<svg width="206" height="99" viewBox="0 0 206 99" fill="none" xmlns="http://www.w3.org/2000/svg">
<path opacity="0.3" d="M174.286 0.75H178.724M184.494 0.75H195.23C200.576 0.75 204.91 5.08391 204.91 10.43V14.1945M204.91 21.3648V26.7426M204.91 30.776V34.3611M204.91 80.0723V87.87C204.91 93.216 200.576 97.55 195.23 97.55H187.6M182.719 97.55H178.724M25.6043 97.55H18.9469M13.621 97.55H10.43C5.08391 97.55 0.75 93.216 0.75 87.87V85.23M0.75 75.5905V77.75M0.75 71.1095V65.7318M0.75 56.3202V48.7018M0.75 32.1204V29.4315M0.75 21.3648V10.43C0.75 5.08391 5.08391 0.75 10.43 0.75H18.9469" stroke="#3785D7" stroke-width="1.5" stroke-linecap="round"/>
</svg>
