<svg width="169" height="169" viewBox="0 0 169 169" fill="none" xmlns="http://www.w3.org/2000/svg">
<g opacity="0.8">
<path fill-rule="evenodd" clip-rule="evenodd" d="M68.0895 2.16479C113.408 -6.7455 157.367 22.7704 166.278 68.0885C175.187 113.405 145.672 157.365 100.356 166.275C55.0365 175.185 11.0764 145.67 2.1672 100.353C-6.74306 55.0339 22.773 11.0751 68.0895 2.16479Z" fill="#F9F9F9"/>
<path fill-rule="evenodd" clip-rule="evenodd" d="M127.002 41.719C125.953 41.9259 124.824 41.7319 123.866 41.0876C121.948 39.8002 121.438 37.2038 122.726 35.286L126.021 30.3763C127.309 28.4585 129.906 27.9483 131.823 29.2358C133.741 30.5243 134.251 33.1206 132.964 35.0384L129.667 39.947C129.025 40.9064 128.052 41.5132 127.002 41.719ZM87.4588 24.5055C85.3388 24.7135 84.4791 27.342 86.064 28.7635L92.3049 34.3646C93.412 35.3593 93.5818 37.0338 92.6965 38.229L91.6467 39.643C91.0122 40.4984 89.9606 40.9348 88.909 40.7793L84.6049 40.1436C83.849 40.0311 83.0781 40.2251 82.4639 40.6807L61.0975 57.946L58.813 66.8199C58.3985 68.4311 57.097 69.5792 55.5658 69.8793C54.9736 69.9972 54.3461 69.9865 53.7204 69.8267C51.4835 69.2511 50.1388 66.9699 50.7135 64.7327L51.4518 61.8619L49.6812 61.6004C44.9618 60.9014 40.5398 64.1935 39.8552 68.9145C39.5815 70.7937 40.648 72.6086 42.4212 73.285L62.6736 81.0107C62.6736 81.0107 71.5114 84.5894 73.4113 86.866L80.6898 96.6674C81.6015 97.8959 82.9637 98.7117 84.4773 98.9343L85.763 99.1244C88.0334 99.4606 90.0759 100.683 91.4452 102.526L92.5196 103.972C94.3307 106.413 94.7284 109.624 93.5686 112.433L90.8001 119.138C90.1621 120.681 88.557 121.591 86.9061 121.347L85.1144 121.082C83.5648 120.854 82.0441 121.641 81.3375 123.038L78.3754 129.745C77.535 131.648 76.0372 133.185 74.1567 134.074L67.6711 137.137L66.0888 147.846C65.8011 149.797 63.9645 151.132 62.0206 150.801L61.9977 150.798C60.6311 150.567 59.5284 149.553 59.18 148.211L56.5382 138.025C55.5693 134.286 55.3599 130.391 55.9248 126.57L57.3408 116.98C57.6769 114.714 56.9263 112.426 55.315 110.799L47.6388 103.049C46.0275 101.422 45.2751 99.1323 45.6104 96.869L46.6725 89.6732L49.1392 84.8006L35.962 79.7726C30.5747 77.7176 26.6261 73.032 25.5129 67.373L24.1859 60.6206L23.2047 60.4769C20.1081 60.0192 17.6522 57.6308 17.1066 54.5478L14.1585 38.6525C21.046 28.0721 30.1963 19.3171 40.8003 12.8617L44.2604 17.4187C45.2108 18.6964 47.0157 18.9634 48.2961 18.0137L50.4011 16.4507C52.8572 14.6272 55.9372 13.8533 58.9635 14.3003L59.4369 14.3711C61.0816 14.6133 62.2089 16.1526 61.9467 17.7928L61.5577 20.2262C61.2286 22.2758 63.374 23.8248 65.2168 22.8697L75.313 17.6331C76.2071 17.1689 77.2252 16.9985 78.2214 17.1464L97.4019 19.9797L96.8712 23.5772L87.4588 24.5055ZM166.206 100.718C162.647 118.4 153.707 133.593 141.493 145.07C138.759 143.868 135.771 141.405 135.092 138.831L132.164 127.746C131.365 124.724 131.19 121.573 131.646 118.482L133.061 108.902C133.761 104.176 130.494 99.7774 125.768 99.0795L125.555 99.0478C121.989 98.5198 118.692 96.8522 116.156 94.2914L115.776 93.9078C112.087 90.1836 110.366 84.9397 111.133 79.7519C111.442 77.6562 112.15 75.6387 113.215 73.8067L116.469 68.2206C118.248 65.1633 121.709 63.4964 125.209 64.0142L131.791 64.9865C134.893 65.4453 137.812 66.7392 140.237 68.7277L145.441 72.9974C147.939 75.047 151.394 75.4736 154.317 74.0929L156.565 73.0317C158.109 72.3016 159.835 72.0455 161.525 72.2952L167.027 72.9963C168.245 81.9917 168.098 91.3179 166.206 100.718ZM164.575 61.2178L139.915 55.666L137.307 58.2838C136.079 60.1759 133.859 61.1781 131.628 60.8479L126.731 60.1244C123.58 59.6591 121.405 56.7272 121.869 53.5756L122.015 53.0664C122.398 50.4744 123.337 48.6906 125.941 48.4012L131.945 47.7344C133.154 47.5211 134.296 47.028 135.281 46.2958C136.965 45.0458 138.083 43.1774 138.39 41.102L139.285 35.0422C139.426 34.087 139.941 33.2295 140.714 32.6538L146.664 28.7303C154.942 38.0598 161.106 49.1387 164.575 61.2178Z" fill="#E8E8E8"/>
<path fill-rule="evenodd" clip-rule="evenodd" d="M127.002 41.719C125.953 41.9259 124.824 41.7319 123.866 41.0876C121.948 39.8002 121.438 37.2038 122.726 35.286L126.021 30.3763C127.309 28.4585 129.906 27.9483 131.823 29.2358C133.741 30.5243 134.251 33.1206 132.964 35.0384L129.667 39.947C129.025 40.9064 128.052 41.5132 127.002 41.719ZM87.4588 24.5055C85.3388 24.7135 84.4791 27.342 86.064 28.7635L92.3049 34.3646C93.412 35.3593 93.5818 37.0338 92.6965 38.229L91.6467 39.643C91.0122 40.4984 89.9606 40.9348 88.909 40.7793L84.6049 40.1436C83.849 40.0311 83.0781 40.2251 82.4639 40.6807L61.0975 57.946L58.813 66.8199C58.3985 68.4311 57.097 69.5791 55.5658 69.8793C54.9736 69.9972 54.3461 69.9865 53.7204 69.8267C51.4835 69.2511 50.1388 66.9699 50.7135 64.7327L51.4518 61.8619L49.6812 61.6004C44.9618 60.9014 40.5398 64.1935 39.8552 68.9145C39.5815 70.7937 40.648 72.6086 42.4212 73.285L62.6736 81.0107C62.6736 81.0107 71.5114 84.5894 73.4113 86.866L80.6898 96.6674C81.6015 97.8959 82.9637 98.7117 84.4773 98.9343L85.763 99.1244C88.0334 99.4606 90.0759 100.683 91.4452 102.526L92.5196 103.972C94.3307 106.413 94.7284 109.624 93.5686 112.433L90.8001 119.138C90.1621 120.681 88.557 121.591 86.9061 121.347L85.1144 121.082C83.5648 120.854 82.0441 121.641 81.3375 123.038L78.3754 129.745C77.535 131.648 76.0372 133.185 74.1567 134.074L67.6711 137.137L66.0888 147.846C65.8011 149.797 63.9645 151.132 62.0206 150.801L61.9977 150.798C60.6311 150.567 59.5284 149.554 59.18 148.211L56.5382 138.025C55.5693 134.286 55.3599 130.391 55.9248 126.57L57.3408 116.98C57.6769 114.714 56.9263 112.426 55.315 110.799L47.6388 103.049C46.0275 101.422 45.2751 99.1323 45.6104 96.869L46.6725 89.6732L49.1392 84.8006L35.962 79.7726C30.5747 77.7176 26.6261 73.032 25.5129 67.373L24.1859 60.6206L23.2047 60.4769C20.1081 60.0192 17.6522 57.6308 17.1066 54.5478L14.1585 38.6525C21.046 28.0721 30.1963 19.3171 40.8003 12.8617L44.2604 17.4187C45.2108 18.6964 47.0157 18.9634 48.2961 18.0137L50.4011 16.4507C52.8572 14.6272 55.9372 13.8533 58.9635 14.3003L59.4369 14.3711C61.0816 14.6133 62.2089 16.1526 61.9467 17.7928L61.5577 20.2262C61.2286 22.2758 63.374 23.8248 65.2168 22.8697L75.313 17.6331C76.2071 17.1689 77.2252 16.9985 78.2214 17.1464L97.4019 19.9797L96.8712 23.5772L87.4588 24.5055ZM166.206 100.718C162.647 118.4 153.707 133.593 141.493 145.07C138.759 143.868 135.771 141.405 135.092 138.831L132.164 127.746C131.365 124.724 131.19 121.573 131.647 118.482L133.061 108.902C133.761 104.176 130.494 99.7774 125.768 99.0795L125.555 99.0478C121.989 98.5198 118.692 96.8522 116.156 94.2914L115.776 93.9078C112.087 90.1836 110.366 84.9388 111.133 79.7519C111.442 77.6562 112.15 75.6387 113.215 73.8067L116.469 68.2206C118.248 65.1633 121.709 63.4964 125.209 64.0142L131.791 64.9865C134.893 65.4453 137.812 66.7392 140.237 68.7277L145.441 72.9974C147.939 75.047 151.394 75.4736 154.317 74.093L156.565 73.0317C158.109 72.3016 159.835 72.0455 161.525 72.2952L167.027 72.9963C168.245 81.9917 168.098 91.3179 166.206 100.718ZM164.575 61.2178L139.915 55.666L137.307 58.2838C136.079 60.1759 133.859 61.1781 131.628 60.8479L126.731 60.1244C123.58 59.6591 121.405 56.7272 121.869 53.5756L122.015 53.0664C122.398 50.4744 123.337 48.6906 125.941 48.4012L131.945 47.7344C133.154 47.5211 134.296 47.028 135.281 46.2958C136.965 45.0458 138.083 43.1774 138.39 41.102L139.285 35.0422C139.426 34.087 139.941 33.2295 140.714 32.6538L146.664 28.7303C154.942 38.0598 161.106 49.1387 164.575 61.2178Z" stroke="#D5D5D5" stroke-width="1.5"/>
<path d="M68.2593 2.33692C113.578 -6.57341 157.537 22.9426 166.448 68.2605C175.357 113.578 145.842 157.537 100.525 166.448C55.2063 175.357 11.2462 145.842 2.33694 100.525C-6.57341 55.2059 22.9428 11.2472 68.2593 2.33692Z" stroke="#4C4C4C" stroke-width="1.5"/>
</g>
</svg>
