<svg width="145" height="55" viewBox="0 0 145 55" fill="none" xmlns="http://www.w3.org/2000/svg">
<path d="M140.285 12.2251C140.029 12.4838 140.03 12.9017 140.288 13.1585C140.547 13.4153 140.965 13.4138 141.222 13.1551L140.285 12.2251ZM5.47865 54.1977C5.82686 54.3055 6.19647 54.1104 6.30418 53.7622C6.41189 53.414 6.21697 53.0443 5.86866 52.9367L5.47865 54.1977ZM1.4728 49.8526C1.18434 48.9123 1.29768 47.8179 1.87549 46.5518C2.45559 45.2807 3.48738 43.8767 4.96394 42.3659C7.91669 39.345 12.549 35.9972 18.5385 32.5334C30.5084 25.611 47.7696 18.2985 67.4816 12.25L67.0944 10.9881C47.3155 17.0569 29.9566 24.4052 17.8778 31.3907C11.8429 34.8808 7.09354 38.2987 4.02005 41.4433C2.48348 43.0152 1.34089 44.5439 0.674642 46.0037C0.00610569 47.4686 -0.199023 48.9037 0.210881 50.2398L1.4728 49.8526ZM67.4816 12.25C87.1945 6.20157 105.586 2.57456 119.379 1.59219C126.281 1.10062 131.993 1.27417 136.132 2.11911C138.202 2.54165 139.843 3.12544 141.036 3.85241C142.225 4.57656 142.933 5.41907 143.221 6.35935L144.483 5.97215C144.073 4.63605 143.098 3.56298 141.724 2.72513C140.353 1.89018 138.55 1.26546 136.396 0.825781C132.088 -0.0537435 126.238 -0.219756 119.285 0.275526C105.366 1.26687 86.8733 4.91932 67.0944 10.9881L67.4816 12.25ZM143.221 6.35935C143.438 7.06511 143.332 7.90243 142.838 8.90361C142.341 9.90813 141.48 11.0213 140.285 12.2251L141.222 13.1551C142.467 11.9006 143.437 10.6714 144.021 9.48802C144.607 8.30142 144.831 7.10577 144.483 5.97215L143.221 6.35935ZM5.86866 52.9367C3.2753 52.1345 1.8395 51.0476 1.4728 49.8526L0.210881 50.2398C0.787105 52.1177 2.83214 53.3792 5.47865 54.1977L5.86866 52.9367Z" fill="#4C4C4C"/>
</svg>
