<svg width="81" height="69" viewBox="0 0 81 69" fill="none" xmlns="http://www.w3.org/2000/svg">
<path d="M60.1227 2.03714L59.4627 2.03626L60.1227 2.03714ZM57.8365 1.01194L57.3974 0.519145L57.8365 1.01194ZM60.1227 2.28882H60.7827H60.1227ZM62.3562 11.6406L61.9637 12.1712L61.8379 12.0779L61.7675 11.9389L62.3562 11.6406ZM74.1666 32.8371L74.0681 33.4901L73.526 33.4083L73.5067 32.8609L74.1666 32.8371ZM78.1759 33.4426L78.2745 32.7896L78.1759 33.4426ZM79.8374 35.6954L79.1853 35.5968L79.8374 35.6954ZM78.2129 46.4595L77.56 46.361L78.2129 46.4595ZM75.9601 48.121L76.0587 47.468L75.9601 48.121ZM70.3017 47.2674L69.7394 46.9224L69.9682 46.5493L70.4003 46.6144L70.3017 47.2674ZM60.708 56.9764L60.0532 56.8884L60.0937 56.5883L60.348 56.4229L60.708 56.9764ZM59.5314 65.7975L60.1861 65.8847L59.5314 65.7975ZM46.2082 65.7975L45.5535 65.8847L46.2082 65.7975ZM45.7708 62.5213L45.6767 61.8683L46.3375 61.7724L46.4255 62.4342L45.7708 62.5213ZM31.3415 61.9748L30.6867 61.8877L30.7827 61.1731L31.4858 61.3307L31.3415 61.9748ZM30.8319 65.7975L30.1772 65.7104L30.8319 65.7975ZM17.5079 65.7975L16.854 65.8847L17.5079 65.7975ZM16.0567 54.9119L15.402 54.9991L16.0567 54.9119ZM16.0444 54.5054L16.4703 54.0011L16.7264 54.2176L16.7027 54.552L16.0444 54.5054ZM5.90418 34.3507L6.30634 33.828L6.55626 34.0199L6.56418 34.3349L5.90418 34.3507ZM3.76402 32.7043L4.16618 32.1815L3.76402 32.7043ZM0.776427 25.0465L0.126095 24.9339L0.776427 25.0465ZM1.28682 22.0967L1.93715 22.2085L1.28682 22.0967ZM2.88578 22.0263L2.24778 22.1953L2.88578 22.0263ZM6.95842 26.4835L7.59114 26.6727L7.38874 27.3477L6.72874 27.1022L6.95842 26.4835ZM52.8936 6.6809L53.4506 7.03554L53.1699 7.47642L52.6771 7.30482L52.8936 6.6809ZM57.3455 1.45018L56.9063 0.95738L57.3455 1.45018ZM59.4627 2.03626C59.4627 1.42114 58.735 1.09466 58.2756 1.50474L57.3974 0.519145C58.7077 -0.648615 60.7827 0.281544 60.7827 2.03714L59.4627 2.03626ZM59.4627 2.28882V2.03626L60.7827 2.03714V2.28882H59.4627ZM61.7675 11.9389C60.2653 8.97594 59.4619 5.67418 59.4627 2.28882H60.7827C60.7819 5.46474 61.5351 8.56234 62.9449 11.3423L61.7675 11.9389ZM73.5067 32.8609C73.2154 24.625 68.8242 17.2418 61.9637 12.1712L62.7487 11.1091C69.8811 16.3811 74.5187 24.1172 74.8258 32.8143L73.5067 32.8609ZM78.0774 34.0955L74.0681 33.4901L74.2652 32.1851L78.2745 32.7896L78.0774 34.0955ZM79.1853 35.5968C79.2935 34.8761 78.7981 34.2038 78.0774 34.0955L78.2745 32.7896C79.7159 33.0079 80.7077 34.3525 80.4903 35.7939L79.1853 35.5968ZM77.56 46.361L79.1853 35.5968L80.4903 35.7939L78.8659 46.5581L77.56 46.361ZM76.0587 47.468C76.7794 47.5771 77.4517 47.0817 77.56 46.361L78.8659 46.5581C78.6476 47.9995 77.303 48.9913 75.8616 48.7739L76.0587 47.468ZM70.4003 46.6144L76.0587 47.468L75.8616 48.7739L70.2031 47.9195L70.4003 46.6144ZM60.348 56.4229C64.2438 53.8859 67.4602 50.6413 69.7394 46.9224L70.8649 47.6115C68.4757 51.5107 65.115 54.8935 61.0679 57.5291L60.348 56.4229ZM58.8775 65.7104L60.0532 56.8884L61.3618 57.0635L60.1861 65.8847L58.8775 65.7104ZM57.5699 66.8553C58.2307 66.8553 58.7895 66.366 58.8775 65.7104L60.1861 65.8847C60.011 67.1959 58.8925 68.1753 57.5699 68.1753V66.8553ZM48.1697 66.8553H57.5699V68.1753H48.1697V66.8553ZM46.862 65.7104C46.95 66.366 47.5088 66.8553 48.1697 66.8553V68.1753C46.8471 68.1753 45.7286 67.1959 45.5535 65.8847L46.862 65.7104ZM46.4255 62.4342L46.862 65.7104L45.5535 65.8847L45.117 62.6084L46.4255 62.4342ZM40.0394 62.2705C41.9613 62.2705 43.8445 62.1332 45.6767 61.8683L45.8659 63.1743C43.9712 63.4479 42.0247 63.5905 40.0394 63.5905V62.2705ZM31.4858 61.3307C34.2156 61.944 37.0826 62.2705 40.0394 62.2705V63.5905C36.9849 63.5905 34.0211 63.2535 31.1963 62.619L31.4858 61.3307ZM30.1772 65.7104L30.6867 61.8877L31.9953 62.0619L31.4858 65.8847L30.1772 65.7104ZM28.8695 66.8553C29.5313 66.8553 30.0901 66.366 30.1772 65.7104L31.4858 65.8847C31.3107 67.1959 30.1922 68.1753 28.8695 68.1753V66.8553ZM19.4703 66.8553H28.8695V68.1753H19.4703V66.8553ZM18.1626 65.7104C18.2497 66.366 18.8085 66.8553 19.4703 66.8553V68.1753C18.1476 68.1753 17.0291 67.1959 16.854 65.8847L18.1626 65.7104ZM16.7106 54.8239L18.1626 65.7104L16.854 65.8847L15.402 54.9991L16.7106 54.8239ZM16.7027 54.552C16.6956 54.64 16.6983 54.7315 16.7106 54.8239L15.402 54.9991C15.3783 54.816 15.373 54.6347 15.3853 54.4579L16.7027 54.552ZM6.56418 34.3349C6.74898 42.0023 10.4872 48.9464 16.4703 54.0011L15.6185 55.0087C9.38811 49.7455 5.43954 42.4617 5.24418 34.3666L6.56418 34.3349ZM5.50202 34.8743L3.36186 33.2279L4.16618 32.1815L6.30634 33.828L5.50202 34.8743ZM3.36186 33.2279C0.827457 31.2778 -0.418625 28.0851 0.126095 24.9339L1.42675 25.1591C0.965626 27.8273 2.02074 30.5307 4.16618 32.1815L3.36186 33.2279ZM0.126095 24.9339L0.636497 21.9841L1.93715 22.2085L1.42675 25.1591L0.126095 24.9339ZM0.636497 21.9841C0.906657 20.4186 3.1181 20.3218 3.52378 21.8583L2.24778 22.1953C2.23194 22.1355 2.20818 22.1135 2.19146 22.1029C2.16858 22.0871 2.13251 22.0747 2.08675 22.0765C2.04187 22.0791 2.00577 22.095 1.98465 22.1117C1.96969 22.124 1.94771 22.1478 1.93715 22.2085L0.636497 21.9841ZM3.52378 21.8583C4.02714 23.7599 5.43514 25.2137 7.1881 25.8649L6.72874 27.1022C4.59562 26.3102 2.86642 24.5343 2.24778 22.1953L3.52378 21.8583ZM40.0394 5.20162C24.3481 5.20162 11.2643 14.3853 7.59114 26.6727L6.32571 26.2952C10.1951 13.3513 23.8729 3.88162 40.0394 3.88162V5.20162ZM52.6771 7.30482C48.7795 5.94962 44.5133 5.20162 40.0394 5.20162V3.88162C44.6603 3.88162 49.0735 4.65426 53.1109 6.05786L52.6771 7.30482ZM57.7846 1.94298C56.1064 3.4381 54.65 5.15322 53.4506 7.03554L52.3374 6.32626C53.6019 4.34186 55.1375 2.53346 56.9063 0.95738L57.7846 1.94298ZM58.2756 1.50474L57.7846 1.94298L56.9063 0.95738L57.3974 0.519145L58.2756 1.50474Z" fill="#4C4C4C"/>
</svg>
