<svg width="71" height="61" viewBox="0 0 71 61" fill="none" xmlns="http://www.w3.org/2000/svg">
<path d="M13.5944 2.0871L12.9422 2.18865L13.5944 2.0871ZM15.4813 0.862402L15.123 1.41671L15.4813 0.862402ZM13.6292 2.31097L14.2814 2.20942L13.6292 2.31097ZM12.9371 10.9168L13.4062 11.381L13.5161 11.2699L13.5646 11.1213L12.9371 10.9168ZM5.38018 31.3548L5.57774 31.9846L6.10055 31.8206L6.03552 31.2766L5.38018 31.3548ZM1.90603 32.4448L2.10359 33.0745L1.90603 32.4448ZM0.742142 34.6728L0.112415 34.8704L0.742142 34.6728ZM3.66841 44.0003L4.29822 43.8027L3.66841 44.0003ZM5.89639 45.1642L6.09395 45.7939L5.89639 45.1642ZM10.7996 43.6259L11.3027 43.1987L11.0195 42.8652L10.6019 42.9962L10.7996 43.6259ZM20.6518 50.918L21.2849 50.7313L21.1992 50.4406L20.9227 50.3162L20.6518 50.918ZM22.9121 58.5835L23.5451 58.3969L22.9121 58.5835ZM34.7346 56.7461L35.3945 56.7318L34.7346 56.7461ZM34.6705 53.7786L34.6634 53.1186L33.9961 53.1258L34.0105 53.7929L34.6705 53.7786ZM47.3995 51.3038L48.0325 51.1171L47.8286 50.4255L47.1577 50.6897L47.3995 51.3038ZM48.3789 54.6256L47.7459 54.8122L48.3789 54.6256ZM60.2015 52.788L60.8614 52.7738L60.2015 52.788ZM59.9881 42.9281L60.648 42.9138L59.9881 42.9281ZM59.9433 42.5656L59.445 42.1328L59.2249 42.3863L59.3001 42.7134L59.9433 42.5656ZM66.1614 23.2836L65.6834 22.8284L65.4661 23.0567L65.507 23.3692L66.1614 23.2836ZM67.8333 21.5276L67.3554 21.0725L67.8333 21.5276ZM69.4278 14.3203L70.0535 14.1094L69.4278 14.3203ZM68.5689 11.7728L69.1937 11.5619L68.5689 11.7728ZM67.1397 11.9315L66.4833 11.8628L67.1397 11.9315ZM64.1409 16.4483L63.5451 16.7321L63.8481 17.3681L64.463 17.0243L64.1409 16.4483ZM20.6492 5.21154L20.1537 5.6474L20.4984 6.03927L20.9592 5.79419L20.6492 5.21154ZM15.9779 1.18343L15.6197 1.73774L15.9779 1.18343ZM14.2465 1.98563C14.1704 1.49706 14.7077 1.14823 15.123 1.41671L15.8396 0.308179C14.467 -0.579213 12.6908 0.573675 12.9422 2.18865L14.2465 1.98563ZM14.2814 2.20942L14.2465 1.98563L12.9422 2.18865L12.977 2.41252L14.2814 2.20942ZM13.5646 11.1213C14.492 8.27491 14.7507 5.22359 14.2814 2.20942L12.977 2.41252C13.4141 5.21964 13.1732 8.06133 12.3096 10.7123L13.5646 11.1213ZM6.03552 31.2766C5.16097 23.9522 8.03013 16.8141 13.4062 11.381L12.4679 10.4526C6.85357 16.1264 3.79557 23.6501 4.72485 31.4331L6.03552 31.2766ZM2.10359 33.0745L5.57774 31.9846L5.18262 30.7251L1.70847 31.8151L2.10359 33.0745ZM1.37187 34.4752C1.18716 33.8863 1.51478 33.2593 2.10359 33.0745L1.70847 31.8151C0.424023 32.218 -0.290537 33.5859 0.112415 34.8704L1.37187 34.4752ZM4.29822 43.8027L1.37187 34.4752L0.112415 34.8704L3.03868 44.1978L4.29822 43.8027ZM5.69883 44.5344C5.11002 44.7191 4.48293 44.3915 4.29822 43.8027L3.03868 44.1978C3.44163 45.4823 4.80959 46.1968 6.09395 45.7939L5.69883 44.5344ZM10.6019 42.9962L5.69883 44.5344L6.09395 45.7939L10.9971 44.2556L10.6019 42.9962ZM20.9227 50.3162C17.1244 48.6059 13.8307 46.1762 11.3027 43.1987L10.2964 44.0531C12.9609 47.1912 16.4176 49.7354 20.3808 51.5198L20.9227 50.3162ZM23.5451 58.3969L21.2849 50.7313L20.0187 51.1047L22.279 58.7703L23.5451 58.3969ZM24.7885 59.185C24.2352 59.2711 23.7035 58.9341 23.5451 58.3969L22.279 58.7703C22.6246 59.942 23.7842 60.677 24.9912 60.4894L24.7885 59.185ZM33.1292 57.8887L24.7885 59.185L24.9912 60.4894L33.332 59.193L33.1292 57.8887ZM34.0748 56.7604C34.0869 57.3203 33.6827 57.8027 33.1292 57.8887L33.332 59.193C34.5392 59.0054 35.4209 57.9532 35.3945 56.7318L34.0748 56.7604ZM34.0105 53.7929L34.0748 56.7604L35.3945 56.7318L35.3303 53.7643L34.0105 53.7929ZM39.7116 52.6994C38.0096 52.9639 36.3227 53.101 34.6634 53.1186L34.6774 54.4386C36.3998 54.4203 38.1499 54.278 39.9143 54.0038L39.7116 52.6994ZM47.1577 50.6897C44.8248 51.6083 42.3309 52.2923 39.7116 52.6994L39.9143 54.0038C42.6297 53.5817 45.2179 52.8722 47.6413 51.9179L47.1577 50.6897ZM49.012 54.4388L48.0325 51.1171L46.7664 51.4905L47.7459 54.8122L49.012 54.4388ZM50.2554 55.227C49.702 55.313 49.1704 54.9761 49.012 54.4388L47.7459 54.8122C48.0914 55.9839 49.251 56.7189 50.4581 56.5313L50.2554 55.227ZM58.5962 53.9306L50.2554 55.227L50.4581 56.5313L58.7988 55.235L58.5962 53.9306ZM59.5416 52.8024C59.5538 53.3622 59.1495 53.8447 58.5962 53.9306L58.7988 55.235C60.006 55.0473 60.8878 53.9951 60.8614 52.7738L59.5416 52.8024ZM59.3283 42.9424L59.5416 52.8024L60.8614 52.7738L60.648 42.9138L59.3283 42.9424ZM59.3001 42.7134C59.3168 42.7862 59.3266 42.8627 59.3283 42.9424L60.648 42.9138C60.6444 42.7439 60.6233 42.578 60.5865 42.4179L59.3001 42.7134ZM65.507 23.3692C66.3972 30.1765 64.0461 36.835 59.445 42.1328L60.4416 42.9984C65.2549 37.4562 67.7616 30.43 66.8158 23.1979L65.507 23.3692ZM66.6394 23.7387L68.3111 21.9828L67.3554 21.0725L65.6834 22.8284L66.6394 23.7387ZM68.3111 21.9828C70.3087 19.8852 70.9793 16.8538 70.0535 14.1094L68.803 14.5314C69.5721 16.8113 69.0151 19.3299 67.3554 21.0725L68.3111 21.9828ZM70.0535 14.1094L69.1937 11.5619L67.9433 11.9838L68.803 14.5314L70.0535 14.1094ZM69.1937 11.5619C68.715 10.1417 66.6394 10.3722 66.4833 11.8628L67.7961 12.0002C67.7985 11.9774 67.8034 11.9661 67.8054 11.962C67.8076 11.9577 67.8098 11.955 67.8125 11.9525C67.8189 11.9464 67.8358 11.9358 67.8632 11.9327C67.8905 11.9297 67.9093 11.9364 67.9169 11.9409C67.9201 11.9427 67.9228 11.9449 67.9258 11.9486C67.9287 11.9522 67.936 11.9621 67.9433 11.9838L69.1937 11.5619ZM66.4833 11.8628C66.3018 13.5971 65.2666 15.0627 63.8188 15.8722L64.463 17.0243C66.2648 16.017 67.5676 14.1843 67.7961 12.0002L66.4833 11.8628ZM31.8617 2.19226C45.7612 0.0319463 58.6061 6.36715 63.5451 16.7321L64.7367 16.1644C59.5032 5.18109 46.0281 -1.34534 31.659 0.887923L31.8617 2.19226ZM20.9592 5.79419C24.2242 4.0576 27.8996 2.80808 31.8617 2.19226L31.659 0.887923C27.5514 1.52628 23.735 2.8226 20.3393 4.6288L20.9592 5.79419ZM15.6197 1.73774C17.3093 2.82991 18.8337 4.14691 20.1537 5.6474L21.1448 4.77559C19.7449 3.18428 18.1282 1.78755 16.3363 0.629203L15.6197 1.73774ZM15.123 1.41671L15.6197 1.73774L16.3363 0.629203L15.8396 0.308179L15.123 1.41671Z" fill="#4C4C4C"/>
</svg>
