<?xml version="1.0" standalone="no"?>
<!DOCTYPE svg PUBLIC "-//W3C//DTD SVG 1.1//EN" "http://www.w3.org/Graphics/SVG/1.1/DTD/svg11.dtd" >
<svg xmlns="http://www.w3.org/2000/svg" xmlns:xlink="http://www.w3.org/1999/xlink" version="1.1">
<metadata>
Created by FontForge 20230101 at Wed Mar 20 15:07:47 2013
 By Unknown
Copyright (c) 2010 Linotype GmbH, www.linotype.com. All rights reserved. This font software may not be reproduced, modified, disclosed or transferred without the express written approval of Linotype GmbH.
</metadata>
<defs>
<font id="DINNextRoundedLTPro-Bold" horiz-adv-x="556" >
  <font-face 
    font-family="DINNextRoundedLTPro-Bold"
    font-weight="400"
    font-stretch="normal"
    units-per-em="1000"
    panose-1="2 15 8 3 2 2 3 5 2 3"
    ascent="783"
    descent="-217"
    x-height="484"
    cap-height="686"
    bbox="-142 -241 1077 926"
    underline-thickness="50"
    underline-position="-100"
    unicode-range="U+0020-FB04"
  />
<missing-glyph horiz-adv-x="506" 
d="M0 645q0 35 35 35h437q34 0 34 -35v-610q0 -35 -34 -35h-437q-35 0 -35 35v610zM69 71q0 -6 6 -6h356q6 0 6 6v538q0 6 -6 6h-356q-6 0 -6 -6v-538zM245 236q-20 0 -32.5 11.5t-12.5 31.5v7q0 18 5.5 32t18.5 29l40 45q14 15 19 26t5 24q0 19 -11 31t-30 12q-17 0 -26 -6
t-18 -22q-8 -13 -16.5 -20.5t-22.5 -7.5q-17 0 -28.5 10t-11.5 29q0 8 1 12q8 35 40 59t86 24q28 0 51.5 -9t40.5 -25t26 -37.5t9 -45.5q0 -23 -7.5 -42t-24.5 -39l-45 -49q-12 -13 -12 -31v-6q0 -20 -12 -31.5t-32 -11.5zM191 155q0 22 15.5 37t37.5 15q21 0 36.5 -15
t15.5 -37t-15.5 -37.5t-36.5 -15.5q-22 0 -37.5 15.5t-15.5 37.5z" />
    <glyph glyph-name="IJ" unicode="IJ" horiz-adv-x="798" 
d="M65 608q0 35 21 56.5t53 21.5t52.5 -21.5t20.5 -56.5v-536q0 -35 -20.5 -56.5t-52.5 -21.5t-53 21.5t-21 56.5v536zM334 46q-20 23 -20 51q0 26 18.5 44t46.5 18q14 0 26.5 -5.5t29.5 -16.5q26 -18 61 -18q42 0 67.5 26t25.5 89v374q0 36 20.5 57t52.5 21t53 -21t21 -57
v-364q0 -126 -63.5 -190.5t-181.5 -64.5q-24 0 -47.5 4.5t-44.5 12t-38 18t-27 22.5z" />
    <glyph glyph-name="ij" unicode="ij" horiz-adv-x="532" 
d="M133 533q-33 0 -56 23t-23 56t23 56t56 23t56 -23t23 -56t-23 -56t-56 -23zM133 -6q-31 0 -50.5 19.5t-19.5 54.5v348q0 35 19.5 54.5t50.5 19.5q30 0 50 -19.5t20 -54.5v-348q0 -35 -20 -54.5t-50 -19.5zM399 533q-33 0 -56 23t-23 56t23 56t56 23t56 -23t23 -56
t-23 -56t-56 -23zM299 -180q-31 0 -47 16.5t-16 42.5q0 50 54 61q23 5 31 16.5t8 38.5v421q0 35 19.5 54.5t50.5 19.5q30 0 50 -19.5t20 -54.5v-420q0 -93 -43.5 -134.5t-126.5 -41.5z" />
    <glyph glyph-name="napostrophe" unicode="&#x22;n" horiz-adv-x="553" 
d="M424 -6q-30 0 -50 19.5t-20 54.5v220q0 40 -19 64t-57 24t-56.5 -24t-18.5 -64v-220q0 -35 -20 -54.5t-50 -19.5q-31 0 -50.5 19.5t-19.5 54.5v348q0 35 19.5 54.5t50.5 19.5q25 0 43 -13.5t24 -37.5h1q18 23 49.5 39.5t78.5 16.5q40 0 71 -13.5t52 -37.5t31.5 -57
t10.5 -72v-247q0 -35 -19.5 -54.5t-50.5 -19.5zM73 541q-16 -47 -55 -47q-26 0 -42.5 15t-16.5 41q0 6 1 13t3 14l20 62q16 47 55 47q25 0 42 -15t17 -42q0 -14 -4 -26z" />
    <glyph glyph-name="f_f" unicode="ff" horiz-adv-x="678" 
d="M151 -6q-31 0 -50.5 19.5t-19.5 54.5v306q0 6 -7 6h-4q-27 0 -41.5 14.5t-14.5 37.5t14.5 37.5t41.5 14.5h4q7 0 7 6v23q0 89 41 128t129 39h10q32 0 48 -16t16 -41q0 -26 -16 -42t-45 -16q-23 0 -33 -11.5t-10 -38.5v-25q0 -6 6 -6h38q27 0 41.5 -14.5t14.5 -37.5
t-14.5 -37.5t-41.5 -14.5h-38q-6 0 -6 -6v-306q0 -35 -20 -54.5t-50 -19.5zM490 -6q-31 0 -50.5 19.5t-19.5 54.5v306q0 6 -7 6h-4q-27 0 -41.5 14.5t-14.5 37.5t14.5 37.5t41.5 14.5h4q7 0 7 6v23q0 89 41 128t129 39h10q32 0 48 -16t16 -41q0 -26 -16 -42t-45 -16
q-23 0 -33 -11.5t-10 -38.5v-25q0 -6 6 -6h38q27 0 41.5 -14.5t14.5 -37.5t-14.5 -37.5t-41.5 -14.5h-38q-6 0 -6 -6v-306q0 -35 -20 -54.5t-50 -19.5z" />
    <glyph glyph-name="fi" unicode="fi" horiz-adv-x="605" 
d="M151 -6q-31 0 -50.5 19.5t-19.5 54.5v306q0 6 -7 6h-4q-27 0 -41.5 14.5t-14.5 37.5t14.5 37.5t41.5 14.5h4q7 0 7 6v23q0 89 41 128t129 39h10q32 0 48 -16t16 -41q0 -26 -16 -42t-45 -16q-23 0 -33 -11.5t-10 -38.5v-25q0 -6 6 -6h38q27 0 41.5 -14.5t14.5 -37.5
t-14.5 -37.5t-41.5 -14.5h-38q-6 0 -6 -6v-306q0 -35 -20 -54.5t-50 -19.5zM472 533q-33 0 -56 23t-23 56t23 56t56 23t56 -23t23 -56t-23 -56t-56 -23zM472 -6q-31 0 -50.5 19.5t-19.5 54.5v348q0 35 19.5 54.5t50.5 19.5q30 0 50 -19.5t20 -54.5v-348q0 -35 -20 -54.5
t-50 -19.5z" />
    <glyph glyph-name="fl" unicode="fl" horiz-adv-x="643" 
d="M151 -6q-31 0 -50.5 19.5t-19.5 54.5v306q0 6 -7 6h-4q-27 0 -41.5 14.5t-14.5 37.5t14.5 37.5t41.5 14.5h4q7 0 7 6v23q0 89 41 128t129 39h10q32 0 48 -16t16 -41q0 -26 -16 -42t-45 -16q-23 0 -33 -11.5t-10 -38.5v-25q0 -6 6 -6h38q27 0 41.5 -14.5t14.5 -37.5
t-14.5 -37.5t-41.5 -14.5h-38q-6 0 -6 -6v-306q0 -35 -20 -54.5t-50 -19.5zM549 -6q-83 0 -116 40t-33 114v464q0 35 19.5 54.5t50.5 19.5q30 0 50 -19.5t20 -54.5v-452q0 -21 7.5 -31t24.5 -13q30 -5 43 -21.5t13 -39.5q0 -26 -17.5 -43.5t-55.5 -17.5h-6z" />
    <glyph glyph-name="f_f_i" unicode="ffi" horiz-adv-x="944" 
d="M151 -6q-31 0 -50.5 19.5t-19.5 54.5v306q0 6 -7 6h-4q-27 0 -41.5 14.5t-14.5 37.5t14.5 37.5t41.5 14.5h4q7 0 7 6v23q0 89 41 128t129 39h10q32 0 48 -16t16 -41q0 -26 -16 -42t-45 -16q-23 0 -33 -11.5t-10 -38.5v-25q0 -6 6 -6h38q27 0 41.5 -14.5t14.5 -37.5
t-14.5 -37.5t-41.5 -14.5h-38q-6 0 -6 -6v-306q0 -35 -20 -54.5t-50 -19.5zM490 -6q-31 0 -50.5 19.5t-19.5 54.5v306q0 6 -7 6h-4q-27 0 -41.5 14.5t-14.5 37.5t14.5 37.5t41.5 14.5h4q7 0 7 6v23q0 89 41 128t129 39h10q32 0 48 -16t16 -41q0 -26 -16 -42t-45 -16
q-23 0 -33 -11.5t-10 -38.5v-25q0 -6 6 -6h38q27 0 41.5 -14.5t14.5 -37.5t-14.5 -37.5t-41.5 -14.5h-38q-6 0 -6 -6v-306q0 -35 -20 -54.5t-50 -19.5zM811 533q-33 0 -56 23t-23 56t23 56t56 23t56 -23t23 -56t-23 -56t-56 -23zM811 -6q-31 0 -50.5 19.5t-19.5 54.5v348
q0 35 19.5 54.5t50.5 19.5q30 0 50 -19.5t20 -54.5v-348q0 -35 -20 -54.5t-50 -19.5z" />
    <glyph glyph-name="f_f_l" unicode="ffl" horiz-adv-x="982" 
d="M151 -6q-31 0 -50.5 19.5t-19.5 54.5v306q0 6 -7 6h-4q-27 0 -41.5 14.5t-14.5 37.5t14.5 37.5t41.5 14.5h4q7 0 7 6v23q0 89 41 128t129 39h10q32 0 48 -16t16 -41q0 -26 -16 -42t-45 -16q-23 0 -33 -11.5t-10 -38.5v-25q0 -6 6 -6h38q27 0 41.5 -14.5t14.5 -37.5
t-14.5 -37.5t-41.5 -14.5h-38q-6 0 -6 -6v-306q0 -35 -20 -54.5t-50 -19.5zM490 -6q-31 0 -50.5 19.5t-19.5 54.5v306q0 6 -7 6h-4q-27 0 -41.5 14.5t-14.5 37.5t14.5 37.5t41.5 14.5h4q7 0 7 6v23q0 89 41 128t129 39h10q32 0 48 -16t16 -41q0 -26 -16 -42t-45 -16
q-23 0 -33 -11.5t-10 -38.5v-25q0 -6 6 -6h38q27 0 41.5 -14.5t14.5 -37.5t-14.5 -37.5t-41.5 -14.5h-38q-6 0 -6 -6v-306q0 -35 -20 -54.5t-50 -19.5zM888 -6q-83 0 -116 40t-33 114v464q0 35 19.5 54.5t50.5 19.5q30 0 50 -19.5t20 -54.5v-452q0 -21 7.5 -31t24.5 -13
q30 -5 43 -21.5t13 -39.5q0 -26 -17.5 -43.5t-55.5 -17.5h-6z" />
    <glyph glyph-name=".notdef" horiz-adv-x="506" 
d="M0 645q0 35 35 35h437q34 0 34 -35v-610q0 -35 -34 -35h-437q-35 0 -35 35v610zM69 71q0 -6 6 -6h356q6 0 6 6v538q0 6 -6 6h-356q-6 0 -6 -6v-538zM245 236q-20 0 -32.5 11.5t-12.5 31.5v7q0 18 5.5 32t18.5 29l40 45q14 15 19 26t5 24q0 19 -11 31t-30 12q-17 0 -26 -6
t-18 -22q-8 -13 -16.5 -20.5t-22.5 -7.5q-17 0 -28.5 10t-11.5 29q0 8 1 12q8 35 40 59t86 24q28 0 51.5 -9t40.5 -25t26 -37.5t9 -45.5q0 -23 -7.5 -42t-24.5 -39l-45 -49q-12 -13 -12 -31v-6q0 -20 -12 -31.5t-32 -11.5zM191 155q0 22 15.5 37t37.5 15q21 0 36.5 -15
t15.5 -37t-15.5 -37.5t-36.5 -15.5q-22 0 -37.5 15.5t-15.5 37.5z" />
    <glyph glyph-name=".null" horiz-adv-x="500" 
 />
    <glyph glyph-name="nonmarkingreturn" horiz-adv-x="0" 
 />
    <glyph glyph-name="space" unicode=" " horiz-adv-x="236" 
 />
    <glyph glyph-name="exclam" unicode="!" horiz-adv-x="312" 
d="M156 199q-31 0 -51 20t-20 55v338q0 35 20 54.5t51 19.5q30 0 50 -19.5t20 -54.5v-338q0 -35 -20 -55t-50 -20zM74 71q0 34 24 58t58 24t58 -24t24 -58t-24 -58t-58 -24t-58 24t-24 58z" />
    <glyph glyph-name="quotedbl" unicode="&#x22;" horiz-adv-x="374" 
d="M267 466q-23 0 -36.5 13.5t-13.5 39.5v114q0 26 13.5 39.5t36.5 13.5q22 0 35.5 -13.5t13.5 -39.5v-114q0 -26 -13.5 -39.5t-35.5 -13.5zM108 466q-23 0 -36.5 13.5t-13.5 39.5v114q0 26 13.5 39.5t36.5 13.5q22 0 35.5 -13.5t13.5 -39.5v-114q0 -26 -13.5 -39.5
t-35.5 -13.5z" />
    <glyph glyph-name="numbersign" unicode="#" horiz-adv-x="547" 
d="M91 195h-26q-26 0 -40.5 13.5t-14.5 36.5t14.5 36t40.5 13h39l14 102h-27q-26 0 -40.5 13.5t-14.5 36.5t14.5 36t40.5 13h40l20 141q3 23 17.5 36.5t36.5 13.5q26 0 41.5 -17.5t11.5 -46.5l-18 -127h105l20 141q3 23 17.5 36.5t36.5 13.5q26 0 41.5 -17.5t11.5 -46.5
l-18 -127h28q26 0 40.5 -13t14.5 -36t-14.5 -36.5t-40.5 -13.5h-41l-14 -102h29q26 0 40.5 -13t14.5 -36t-14.5 -36.5t-40.5 -13.5h-43l-20 -151q-3 -23 -17.5 -36.5t-36.5 -13.5q-26 0 -41.5 17.5t-11.5 46.5l19 137h-106l-20 -151q-3 -23 -17.5 -36.5t-36.5 -13.5
q-26 0 -41.5 17.5t-11.5 46.5zM318 294l14 102h-105l-14 -102h105z" />
    <glyph glyph-name="dollar" unicode="$" 
d="M85 39q-17 10 -24 24t-7 30q0 26 17 44.5t46 18.5q20 0 39 -11q23 -14 47 -22.5t47 -11.5v171q-88 13 -138 64.5t-50 131.5q0 42 13.5 78.5t38.5 64t59.5 45.5t76.5 23v39q0 17 9.5 26t23.5 9t23.5 -9t9.5 -26v-38q35 -3 65.5 -12.5t56.5 -23.5q34 -19 34 -54
q0 -24 -16.5 -42.5t-42.5 -18.5q-15 0 -31 7q-16 8 -32 13.5t-34 8.5v-161q94 -14 141.5 -65.5t47.5 -132.5q0 -88 -50.5 -145.5t-138.5 -70.5v-41q0 -17 -9.5 -26t-23.5 -9t-23.5 9t-9.5 26v38q-54 2 -95.5 17t-69.5 32zM250 564q-50 -19 -50 -74q0 -24 11 -41.5t39 -28.5
v144zM316 118q51 19 51 81q0 24 -11 41t-40 28v-150z" />
    <glyph glyph-name="percent" unicode="%" horiz-adv-x="817" 
d="M184 27q0 14 8 28l354 613q16 28 44 28q19 0 31 -12.5t12 -31.5q0 -14 -8 -28l-354 -613q-16 -28 -44 -28q-19 0 -31 12.5t-12 31.5zM198 330q-49 0 -82 21.5t-46 61.5q-5 17 -7.5 39t-2.5 57t2.5 57t7.5 39q13 40 46 61.5t82 21.5t82 -21.5t46 -61.5q5 -17 7.5 -39
t2.5 -57t-2.5 -57t-7.5 -39q-13 -40 -46 -61.5t-82 -21.5zM198 408q27 0 35 25q2 7 3.5 23t1.5 53t-1.5 53t-3.5 23q-8 25 -35 25t-35 -25q-2 -7 -3.5 -23t-1.5 -53t1.5 -53t3.5 -23q8 -25 35 -25zM491 74q-5 17 -7.5 39t-2.5 57t2.5 57t7.5 39q13 40 46 61.5t82 21.5
t82 -21.5t46 -61.5q5 -17 7.5 -39t2.5 -57t-2.5 -57t-7.5 -39q-13 -40 -46 -61.5t-82 -21.5t-82 21.5t-46 61.5zM584 94q8 -25 35 -25t35 25q2 7 3.5 23t1.5 53t-1.5 53t-3.5 23q-8 25 -35 25t-35 -25q-2 -7 -3.5 -23t-1.5 -53t1.5 -53t3.5 -23z" />
    <glyph glyph-name="ampersand" unicode="&#x26;" horiz-adv-x="648" 
d="M56 173q0 27 6.5 52t21.5 49.5t39.5 50t59.5 53.5q-38 48 -56 82t-18 70q0 35 14 64.5t38.5 51t57.5 33.5t71 12q40 0 72.5 -12.5t56 -34.5t36 -51t12.5 -62q0 -23 -6 -43t-19.5 -40.5t-35.5 -42t-53 -45.5l86 -109l38 43q19 22 47 22q23 0 40 -16.5t17 -40.5
q0 -23 -17 -43l-51 -60l17 -20q9 -11 15.5 -15t17.5 -6q24 -4 37.5 -18.5t13.5 -39.5t-15.5 -41t-42.5 -16h-7q-21 0 -36.5 2.5t-28.5 9t-24.5 17t-24.5 27.5l-6 7q-44 -41 -84.5 -57.5t-91.5 -16.5q-47 0 -84 13.5t-62 38t-38 58t-13 74.5zM282 451q37 28 49 45.5t12 36.5
q0 23 -15 38.5t-37 15.5q-24 0 -38.5 -15t-14.5 -39q0 -7 1 -13t5.5 -15t13.5 -21.5t24 -32.5zM185 183q0 -34 19.5 -55.5t57.5 -21.5q21 0 41 9t53 42l-101 129q-41 -32 -55.5 -55.5t-14.5 -47.5z" />
    <glyph glyph-name="quotesingle" unicode="'" horiz-adv-x="215" 
d="M108 466q-23 0 -36.5 13.5t-13.5 39.5v114q0 26 13.5 39.5t36.5 13.5q22 0 35.5 -13.5t13.5 -39.5v-114q0 -26 -13.5 -39.5t-35.5 -13.5z" />
    <glyph glyph-name="parenleft" unicode="(" horiz-adv-x="311" 
d="M153 -49q-27 48 -46 93.5t-31.5 91.5t-18.5 93.5t-6 98.5t6 98.5t18.5 93.5t31.5 91.5t46 93.5q22 39 57 39q24 0 38.5 -15.5t14.5 -38.5q0 -15 -7 -32q-17 -42 -30.5 -81.5t-22.5 -79.5t-14 -81.5t-5 -87.5t5 -87.5t14 -81.5t22.5 -79.5t30.5 -81.5q7 -17 7 -32
q0 -23 -14.5 -38.5t-38.5 -15.5q-35 0 -57 39z" />
    <glyph glyph-name="parenright" unicode=")" horiz-adv-x="311" 
d="M55 -2q17 42 30.5 81.5t22.5 79.5t14 81.5t5 87.5t-5 87.5t-14 81.5t-22.5 79.5t-30.5 81.5q-7 17 -7 32q0 23 14.5 38.5t38.5 15.5q34 0 57 -39q27 -48 46 -93.5t31.5 -91.5t18.5 -93.5t6 -98.5t-6 -98.5t-18.5 -93.5t-31.5 -91.5t-46 -93.5q-23 -39 -57 -39
q-24 0 -38.5 15.5t-14.5 38.5q0 15 7 32z" />
    <glyph glyph-name="asterisk" unicode="*" horiz-adv-x="366" 
d="M183 368q-17 0 -28 11.5t-10 30.5l1 53l-45 -27q-11 -7 -25 -7q-15 0 -25.5 10.5t-10.5 26.5q0 24 23 36l46 25l-46 25q-23 12 -23 36q0 16 10.5 26.5t25.5 10.5q14 0 25 -7l45 -28l-1 54q-1 19 10 30.5t28 11.5t28 -11.5t10 -30.5l-2 -54l46 28q11 7 25 7
q15 0 25.5 -10.5t10.5 -26.5q0 -24 -23 -36l-47 -25l47 -25q23 -12 23 -36q0 -16 -10.5 -26.5t-25.5 -10.5q-14 0 -25 7l-46 27l2 -53q1 -19 -10 -30.5t-28 -11.5z" />
    <glyph glyph-name="plus" unicode="+" 
d="M109 217q-29 0 -46 16.5t-17 42.5t17 42.5t46 16.5h102q6 0 6 6v102q0 31 17.5 48t43.5 17t43.5 -17t17.5 -48v-102q0 -6 6 -6h102q29 0 46 -16.5t17 -42.5t-17 -42.5t-46 -16.5h-102q-6 0 -6 -6v-102q0 -31 -17.5 -48t-43.5 -17t-43.5 17t-17.5 48v102q0 6 -6 6h-102z
" />
    <glyph glyph-name="comma" unicode="," horiz-adv-x="250" 
d="M78 106q7 22 23.5 34t36.5 12q26 0 45 -16.5t19 -45.5q0 -12 -4 -23l-52 -155q-7 -22 -23.5 -35.5t-36.5 -13.5q-26 0 -42.5 16.5t-16.5 45.5q0 5 1 12t3 14z" />
    <glyph glyph-name="hyphen" unicode="-" horiz-adv-x="392" 
d="M101 204q-30 0 -47.5 17t-17.5 44t17.5 44t47.5 17h190q30 0 47.5 -17t17.5 -44t-17.5 -44t-47.5 -17h-190z" />
    <glyph glyph-name="period" unicode="." horiz-adv-x="260" 
d="M48 71q0 34 24 58t58 24t58 -24t24 -58t-24 -58t-58 -24t-58 24t-24 58z" />
    <glyph glyph-name="slash" unicode="/" horiz-adv-x="424" 
d="M56 44q0 14 4 25l185 579q8 23 24 35.5t36 12.5q26 0 44.5 -16t18.5 -44q0 -14 -4 -25l-185 -579q-8 -23 -24 -35.5t-36 -12.5q-26 0 -44.5 16t-18.5 44z" />
    <glyph glyph-name="zero" unicode="0" 
d="M72 128q-4 12 -6.5 26.5t-4 37.5t-2.5 58.5t-1 89.5t1 89.5t2.5 58.5t4 37.5t6.5 26.5q22 66 72.5 102.5t133.5 36.5t133.5 -36.5t72.5 -102.5q4 -12 6.5 -26.5t4 -37.5t2.5 -58.5t1 -89.5t-1 -89.5t-2.5 -58.5t-4 -37.5t-6.5 -26.5q-22 -66 -72.5 -102.5t-133.5 -36.5
t-133.5 36.5t-72.5 102.5zM210 153q15 -45 68 -45t68 45q2 7 4 16t3 28.5t1.5 53t0.5 89.5t-0.5 89.5t-1.5 53t-3 28.5t-4 16q-15 45 -68 45t-68 -45q-2 -7 -4 -16t-3 -28.5t-1.5 -53t-0.5 -89.5t0.5 -89.5t1.5 -53t3 -28.5t4 -16z" />
    <glyph glyph-name="one" unicode="1" 
d="M247 519h-2l-63 -43q-19 -13 -42 -13q-24 0 -41 16.5t-17 42.5q0 16 8.5 31.5t26.5 27.5l107 74q20 14 40.5 22.5t44.5 8.5q36 0 57 -23.5t21 -61.5v-533q0 -35 -20 -54.5t-50 -19.5q-31 0 -50.5 19.5t-19.5 54.5v451z" />
    <glyph glyph-name="two" unicode="2" 
d="M56 60q0 22 9.5 40.5t32.5 46.5l212 254q20 23 30 45.5t10 48.5q0 34 -19.5 56t-55.5 22q-29 0 -48.5 -14.5t-33.5 -42.5q-22 -45 -63 -45q-27 0 -45 17t-18 45q0 4 0.5 8t1.5 9q6 27 22.5 52.5t43.5 45t64 31.5t82 12q48 0 87 -15t66 -41t41.5 -61.5t14.5 -76.5
q0 -49 -18.5 -88t-50.5 -77l-179 -211v-2h191q31 0 47.5 -16.5t16.5 -43.5q0 -26 -16.5 -42.5t-47.5 -16.5h-312q-30 0 -47.5 17t-17.5 43z" />
    <glyph glyph-name="three" unicode="3" 
d="M78 93q-7 15 -7 34q0 26 17 44t46 18q39 0 64 -40q12 -20 31.5 -31t45.5 -11q39 0 61.5 25t22.5 64q0 45 -26.5 70t-63.5 25h-7q-27 0 -44 16.5t-17 42.5t17 42.5t44 16.5h7q34 0 55.5 22.5t21.5 61.5q0 36 -20.5 58t-55.5 22q-30 0 -45.5 -12.5t-23.5 -28.5
q-10 -20 -26.5 -30t-35.5 -10q-27 0 -44.5 17.5t-17.5 44.5q0 16 8 35q19 43 68 72.5t123 29.5q50 0 89 -14t66 -39t41 -59.5t14 -75.5q0 -44 -19.5 -80t-56.5 -60v-2q16 -8 31.5 -22t28.5 -34.5t21 -47.5t8 -60q0 -47 -16.5 -85t-46.5 -65.5t-70.5 -42.5t-88.5 -15
q-74 0 -125.5 27t-73.5 77z" />
    <glyph glyph-name="four" unicode="4" 
d="M106 99q-36 0 -56.5 19.5t-20.5 51.5q0 19 5.5 34t17.5 42l177 396q9 20 25 32t39 12q29 0 48 -18.5t19 -49.5q0 -17 -7 -33l-165 -363v-2h123q6 0 6 6v90q0 33 19.5 52.5t48.5 19.5q30 0 49 -19.5t19 -52.5v-90q0 -6 6 -6h4q29 0 47 -17t18 -43q0 -27 -18 -44t-47 -17
h-4q-6 0 -6 -6v-27q0 -33 -19 -52.5t-49 -19.5q-29 0 -48.5 19.5t-19.5 52.5v27q0 6 -6 6h-205z" />
    <glyph glyph-name="five" unicode="5" 
d="M79 92q-5 15 -5 26q0 26 17.5 43.5t45.5 17.5q34 0 61 -33q11 -14 31.5 -26t44.5 -12q27 0 46.5 12.5t27.5 35.5q4 11 6.5 26.5t2.5 38.5q0 24 -2 39.5t-6 27.5q-9 26 -28 36.5t-43 10.5q-21 0 -36 -7.5t-26 -21.5q-14 -18 -30 -25.5t-39 -7.5q-31 0 -49.5 19t-18.5 53
v275q0 28 16 44t45 16h281q29 0 46.5 -17t17.5 -43q0 -27 -17.5 -44t-46.5 -17h-213q-6 0 -6 -6v-133h3q13 13 38.5 23t63.5 10q66 0 111 -28t64 -85q7 -22 10.5 -49t3.5 -70q0 -32 -4 -57.5t-11 -45.5q-10 -32 -30 -56t-47 -40t-60 -24.5t-69 -8.5q-39 0 -72 8t-58.5 22.5
t-42 33t-23.5 39.5z" />
    <glyph glyph-name="six" unicode="6" 
d="M50 203q0 44 13 84t37 84l149 276q11 20 27 29.5t35 9.5q26 0 45.5 -16.5t19.5 -45.5q0 -21 -11 -40l-99 -179l2 -1q5 3 17 5t26 2q40 0 76 -14.5t62 -41t41.5 -64.5t15.5 -84q0 -51 -17.5 -91.5t-48 -68.5t-72.5 -43t-90 -15q-49 0 -91 14.5t-72.5 42.5t-47.5 67.5
t-17 89.5zM188 202q0 -42 24.5 -68.5t65.5 -26.5t65.5 26.5t24.5 68.5t-24.5 68t-65.5 26t-65.5 -26t-24.5 -68z" />
    <glyph glyph-name="seven" unicode="7" 
d="M158 61q0 15 6 30l186 464v3h-144q-6 0 -6 -6v-17q0 -32 -18 -51t-47 -19t-47.5 19t-18.5 51v79q0 31 17.5 48.5t49.5 17.5h288q38 0 58.5 -20t20.5 -55q0 -17 -5 -36.5t-20 -56.5l-188 -473q-9 -22 -27 -33.5t-39 -11.5q-29 0 -47.5 19t-18.5 48z" />
    <glyph glyph-name="eight" unicode="8" 
d="M48 196q0 57 24.5 97t56.5 62v2q-24 17 -45 52.5t-21 83.5q0 39 14 75t41.5 63.5t67.5 43.5t92 16t92 -16t67.5 -43.5t41.5 -63.5t14 -75q0 -48 -21 -83.5t-45 -52.5v-2q32 -22 56.5 -62t24.5 -97q0 -47 -17.5 -85t-48 -65t-73 -42t-91.5 -15q-50 0 -92 15t-72.5 42
t-48 65t-17.5 85zM278 414q35 0 56.5 23.5t21.5 55.5q0 33 -21.5 56.5t-56.5 23.5t-56.5 -23.5t-21.5 -56.5q0 -32 21.5 -55.5t56.5 -23.5zM186 202q0 -42 25 -68.5t67 -26.5t67 26.5t25 68.5t-25 68t-67 26t-67 -26t-25 -68z" />
    <glyph glyph-name="nine" unicode="9" 
d="M180 56q0 21 11 40l99 179l-2 1q-5 -3 -17 -5t-26 -2q-41 0 -76.5 14.5t-61.5 41t-41.5 64t-15.5 84.5q0 51 17.5 91.5t48 68.5t72.5 43t90 15q49 0 91 -14.5t72.5 -42.5t47.5 -67.5t17 -89.5q0 -44 -13 -84t-37 -84l-149 -276q-11 -20 -27 -29.5t-35 -9.5
q-26 0 -45.5 16.5t-19.5 45.5zM278 384q41 0 65.5 26t24.5 68t-24.5 68.5t-65.5 26.5t-65.5 -26.5t-24.5 -68.5t24.5 -68t65.5 -26z" />
    <glyph glyph-name="colon" unicode=":" horiz-adv-x="270" 
d="M135 326q-34 0 -58 24t-24 58t24 58t58 24t58 -24t24 -58t-24 -58t-58 -24zM53 71q0 34 24 58t58 24t58 -24t24 -58t-24 -58t-58 -24t-58 24t-24 58z" />
    <glyph glyph-name="semicolon" unicode=";" horiz-adv-x="270" 
d="M135 326q-34 0 -58 24t-24 58t24 58t58 24t58 -24t24 -58t-24 -58t-58 -24zM78 106q7 22 23.5 34t36.5 12q26 0 45 -16.5t19 -45.5q0 -12 -4 -23l-52 -155q-7 -22 -23.5 -35.5t-36.5 -13.5q-26 0 -42.5 16.5t-16.5 45.5q0 5 1 12t3 14z" />
    <glyph glyph-name="less" unicode="&#x3c;" 
d="M111 201q-65 25 -65 75t65 75l311 122q15 5 28 5q25 0 42.5 -15.5t17.5 -41.5q0 -43 -45 -59l-233 -85v-2l233 -85q45 -16 45 -59q0 -26 -17.5 -41.5t-42.5 -15.5q-13 0 -28 5z" />
    <glyph glyph-name="equal" unicode="=" 
d="M109 322q-29 0 -46 16.5t-17 42.5t17 42.5t46 16.5h338q29 0 46 -16.5t17 -42.5t-17 -42.5t-46 -16.5h-338zM109 112q-29 0 -46 16.5t-17 42.5t17 42.5t46 16.5h338q29 0 46 -16.5t17 -42.5t-17 -42.5t-46 -16.5h-338z" />
    <glyph glyph-name="greater" unicode="&#x3e;" 
d="M106 74q-25 0 -42.5 15.5t-17.5 41.5q0 43 45 59l233 85v2l-233 85q-45 16 -45 59q0 26 17.5 41.5t42.5 15.5q13 0 28 -5l311 -122q65 -25 65 -75t-65 -75l-311 -122q-15 -5 -28 -5z" />
    <glyph glyph-name="question" unicode="?" horiz-adv-x="473" 
d="M228 193q-29 0 -48.5 18t-19.5 50q0 24 8.5 48t35.5 54l54 61q23 25 31.5 43.5t8.5 37.5q0 29 -18 47.5t-48 18.5q-28 0 -44 -13t-26 -36q-11 -23 -27.5 -33.5t-36.5 -10.5q-29 0 -46.5 16.5t-17.5 44.5q0 12 5 27q17 54 68 89.5t128 35.5q45 0 82 -14t63.5 -38t41 -57
t14.5 -72q0 -38 -12.5 -69t-41.5 -62l-62 -69q-13 -14 -18 -25.5t-5 -23.5q0 -32 -20.5 -50t-48.5 -18zM146 71q0 34 24 58t58 24t58 -24t24 -58t-24 -58t-58 -24t-58 24t-24 58z" />
    <glyph glyph-name="at" unicode="@" horiz-adv-x="910" 
d="M43 265q0 91 30 165.5t84 127.5t129.5 82.5t166.5 29.5t166.5 -29.5t129.5 -82.5t84 -127t30 -163q0 -55 -14.5 -95.5t-39.5 -67t-57 -39.5t-68 -13q-48 0 -80.5 18t-49.5 47h-1q-16 -29 -46 -47t-86 -18q-54 0 -91.5 24.5t-52.5 72.5q-7 21 -10.5 47t-3.5 68t3.5 68
t10.5 47q15 48 49.5 72t84.5 24q39 0 67 -15t41 -35h2q2 16 16 30t40 14t41 -15.5t15 -41.5v-199q0 -34 15.5 -49t37.5 -15q28 0 47 26.5t19 90.5q0 68 -21 124.5t-59.5 97t-94 62.5t-124.5 22t-124.5 -22.5t-94.5 -63t-59.5 -97t-20.5 -125.5q0 -68 20.5 -124t59.5 -96
t94.5 -62t124.5 -22q54 0 95.5 8.5t85.5 26.5q13 5 23 5q19 0 33 -12.5t14 -33.5q0 -14 -8 -26t-24 -20q-53 -26 -104.5 -36t-114.5 -10q-91 0 -166.5 29.5t-129.5 82.5t-84 127t-30 163zM384 200q8 -23 23.5 -35.5t41.5 -12.5t41 12.5t23 35.5q4 11 6 25t2 40t-2 40t-6 24
q-8 23 -23 36t-41 13t-41.5 -13t-23.5 -36q-3 -10 -5 -24t-2 -40t2 -40t5 -25z" />
    <glyph glyph-name="A" unicode="A" horiz-adv-x="644" 
d="M33 63q0 15 5 28l184 509q14 41 38 63.5t63 22.5t63.5 -22.5t38.5 -63.5l181 -509q5 -13 5 -28q0 -32 -21.5 -50.5t-49.5 -18.5q-24 0 -42.5 13.5t-26.5 38.5l-28 83h-243l-27 -83q-8 -25 -26.5 -38.5t-42.5 -13.5q-28 0 -49.5 18.5t-21.5 50.5zM402 254l-78 238h-3
l-79 -238h160z" />
    <glyph glyph-name="B" unicode="B" horiz-adv-x="610" 
d="M65 615q0 29 17 47t47 18h211q111 0 164 -50t53 -131q0 -55 -22 -90.5t-57 -54.5v-2q17 -7 33.5 -20.5t29 -33t20.5 -45t8 -55.5q0 -101 -62.5 -149.5t-173.5 -48.5h-204q-30 0 -47 17.5t-17 46.5v551zM321 402q42 0 66 21t24 59t-23.5 58.5t-66.5 20.5h-103q-6 0 -6 -6
v-147q0 -6 6 -6h103zM212 125q0 -6 6 -6h111q45 0 69 22.5t24 63.5q0 38 -24 61t-69 23h-111q-6 0 -6 -6v-158z" />
    <glyph glyph-name="C" unicode="C" horiz-adv-x="575" 
d="M66 156q-5 17 -9 33t-6 36.5t-3 48t-1 66.5t1 66.5t3 48t6 36.5t9 33q27 84 90 125.5t153 41.5q77 0 131 -31t80 -77q6 -11 9.5 -21.5t3.5 -22.5q0 -29 -19.5 -47.5t-47.5 -18.5q-19 0 -34.5 8.5t-30.5 29.5q-19 26 -39.5 38t-52.5 12q-42 0 -66.5 -20t-35.5 -55
q-3 -9 -5 -19.5t-3.5 -26.5t-2 -40t-0.5 -60t0.5 -60t2 -40t3.5 -26.5t5 -19.5q11 -35 35.5 -55t66.5 -20q32 0 52.5 12t39.5 38q15 21 30.5 29.5t34.5 8.5q28 0 47.5 -18.5t19.5 -47.5q0 -12 -3.5 -22.5t-9.5 -21.5q-26 -46 -80 -77t-131 -31q-90 0 -153 41.5t-90 125.5z
" />
    <glyph glyph-name="D" unicode="D" horiz-adv-x="628" 
d="M65 615q0 29 17 47t47 18h161q109 0 176.5 -36.5t94.5 -120.5q5 -15 8.5 -31.5t6 -38t4 -49.5t1.5 -64t-1.5 -64t-4 -49.5t-6 -38t-8.5 -31.5q-27 -84 -94.5 -120.5t-176.5 -36.5h-161q-30 0 -47 17.5t-17 46.5v551zM212 137q0 -6 6 -6h68q51 0 86 18t48 59
q5 17 8.5 48.5t3.5 83.5t-3.5 83.5t-8.5 48.5q-13 41 -48 59t-86 18h-68q-6 0 -6 -6v-406z" />
    <glyph glyph-name="E" unicode="E" horiz-adv-x="565" 
d="M65 615q0 29 17 47t47 18h330q31 0 49.5 -18t18.5 -46q0 -27 -18.5 -45t-49.5 -18h-241q-6 0 -6 -6v-135q0 -6 6 -6h193q31 0 49 -17.5t18 -45.5t-18 -45.5t-49 -17.5h-193q-6 0 -6 -6v-141q0 -6 6 -6h241q31 0 49.5 -18t18.5 -45q0 -28 -18.5 -46t-49.5 -18h-330
q-30 0 -47 18t-17 47v550z" />
    <glyph glyph-name="F" unicode="F" horiz-adv-x="557" 
d="M65 615q0 29 17 47t47 18h330q31 0 49.5 -18t18.5 -46q0 -27 -18.5 -45t-49.5 -18h-241q-6 0 -6 -6v-143q0 -6 6 -6h192q32 0 50 -17.5t18 -45.5t-18 -45.5t-50 -17.5h-192q-6 0 -6 -6v-194q0 -35 -20.5 -56.5t-52.5 -21.5t-53 21.5t-21 56.5v543z" />
    <glyph glyph-name="G" unicode="G" horiz-adv-x="628" 
d="M66 154q-6 18 -9.5 35t-5.5 38t-3 48t-1 65q0 37 1 64t3 48t5.5 38.5t9.5 35.5q26 83 92.5 124t157.5 41q83 0 139 -30t83 -76q6 -11 9.5 -21.5t3.5 -22.5q0 -29 -19.5 -47.5t-47.5 -18.5q-19 0 -34.5 7.5t-30.5 28.5q-20 27 -45 38.5t-58 11.5q-44 0 -71 -20.5
t-38 -55.5q-3 -9 -5 -20.5t-3.5 -28t-2 -40t-0.5 -56.5t0.5 -56.5t2 -40t3.5 -28.5t5 -21q11 -35 38.5 -55t72.5 -20q39 0 68.5 19t40.5 51q5 14 6.5 30.5t1.5 36.5q0 6 -6 6h-46q-29 0 -45.5 16t-16.5 42t16.5 42t45.5 16h140q58 0 58 -58v-7q0 -45 -4 -85t-13 -69
q-26 -82 -91.5 -126t-156.5 -44t-157.5 41t-92.5 124z" />
    <glyph glyph-name="H" unicode="H" horiz-adv-x="658" 
d="M65 608q0 36 21 57t53 21t52.5 -21t20.5 -57v-193q0 -6 6 -6h222q6 0 6 6v193q0 36 20.5 57t52.5 21t53 -21t21 -57v-536q0 -36 -21 -57t-53 -21t-52.5 21t-20.5 57v200q0 6 -6 6h-222q-6 0 -6 -6v-200q0 -36 -21 -57t-53 -21t-52.5 21t-20.5 57v536z" />
    <glyph glyph-name="I" unicode="I" horiz-adv-x="277" 
d="M65 608q0 35 21 56.5t53 21.5t52.5 -21.5t20.5 -56.5v-536q0 -35 -20.5 -56.5t-52.5 -21.5t-53 21.5t-21 56.5v536z" />
    <glyph glyph-name="J" unicode="J" horiz-adv-x="521" 
d="M57 46q-20 23 -20 51q0 26 18.5 44t46.5 18q14 0 26.5 -5.5t29.5 -16.5q26 -18 61 -18q42 0 67.5 26t25.5 89v374q0 36 20.5 57t52.5 21t53 -21t21 -57v-364q0 -126 -63.5 -190.5t-181.5 -64.5q-24 0 -47.5 4.5t-44.5 12t-38 18t-27 22.5z" />
    <glyph glyph-name="K" unicode="K" horiz-adv-x="615" 
d="M65 608q0 35 21 56.5t53 21.5t52.5 -21.5t20.5 -56.5v-228l225 274q27 32 60 32q27 0 46.5 -18t19.5 -47q0 -27 -17 -47l-146 -168l172 -297q13 -23 13 -45q0 -29 -19.5 -49.5t-50.5 -20.5q-45 0 -70 43l-143 257l-90 -113v-109q0 -35 -20.5 -56.5t-52.5 -21.5t-53 21.5
t-21 56.5v536z" />
    <glyph glyph-name="L" unicode="L" horiz-adv-x="550" 
d="M65 608q0 35 21 56.5t53 21.5t52.5 -21.5t20.5 -56.5v-471q0 -6 6 -6h242q34 0 54 -18t20 -47t-20 -47.5t-54 -18.5h-321q-34 0 -54 20.5t-20 53.5v534z" />
    <glyph glyph-name="M" unicode="M" horiz-adv-x="763" 
d="M65 598q0 41 22 64.5t59 23.5q33 0 53.5 -18.5t37.5 -57.5l145 -328h4l142 328q17 39 37 57.5t53 18.5q37 0 58.5 -23.5t21.5 -64.5v-533q0 -34 -18.5 -52.5t-48.5 -18.5t-48.5 18.5t-18.5 52.5v328h-5l-105 -244q-16 -36 -31 -49t-41 -13t-41 13t-31 49l-106 244h-5
v-328q0 -34 -18.5 -52.5t-47.5 -18.5q-30 0 -49 18.5t-19 52.5v533z" />
    <glyph glyph-name="N" unicode="N" horiz-adv-x="655" 
d="M65 598q0 41 22 64.5t60 23.5q32 0 54.5 -18.5t42.5 -53.5l208 -371h4v372q0 34 18.5 52.5t48.5 18.5t48.5 -18.5t18.5 -52.5v-533q0 -41 -22 -64.5t-60 -23.5q-32 0 -54.5 18.5t-42.5 53.5l-208 370h-4v-371q0 -34 -18.5 -52.5t-48.5 -18.5t-48.5 18.5t-18.5 52.5v533z
" />
    <glyph glyph-name="O" unicode="O" horiz-adv-x="628" 
d="M314 -11q-90 0 -155.5 41t-92.5 124q-6 18 -9.5 35t-5.5 38t-3 48t-1 65q0 37 1 64t3 48t5.5 38.5t9.5 35.5q27 83 92.5 124t155.5 41t155.5 -41t92.5 -124q6 -18 9.5 -35.5t5.5 -38.5t3 -48t1 -64q0 -38 -1 -65t-3 -48t-5.5 -38t-9.5 -35q-27 -83 -92.5 -124t-155.5 -41
zM314 119q42 0 69 19.5t38 54.5q3 9 5 21t3.5 29t2 40.5t0.5 56.5t-0.5 56.5t-2 40.5t-3.5 29t-5 21q-11 35 -38 54.5t-69 19.5t-69 -19.5t-38 -54.5q-3 -9 -5 -21t-3.5 -29t-2 -40.5t-0.5 -56.5t0.5 -56.5t2 -40.5t3.5 -29t5 -21q11 -35 38 -54.5t69 -19.5z" />
    <glyph glyph-name="P" unicode="P" horiz-adv-x="605" 
d="M139 -6q-32 0 -53 21.5t-21 56.5v543q0 29 17 47t47 18h210q56 0 100 -16t74.5 -45t46.5 -69t16 -89q0 -48 -16 -88t-47 -69t-75 -45t-99 -16h-121q-6 0 -6 -6v-165q0 -35 -20.5 -56.5t-52.5 -21.5zM330 370q47 0 73 24.5t26 66.5t-26 67t-73 25h-112q-6 0 -6 -6v-171
q0 -6 6 -6h112z" />
    <glyph glyph-name="Q" unicode="Q" horiz-adv-x="629" 
d="M586 84q21 -21 21 -50q0 -28 -20 -47.5t-48 -19.5q-29 0 -50 21l-34 34q-60 -33 -141 -33q-90 0 -155.5 41t-92.5 124q-6 18 -9.5 35t-5.5 38t-3 48t-1 65q0 37 1 64t3 48t5.5 38.5t9.5 35.5q27 83 92.5 124t155.5 41t155.5 -41t92.5 -124q6 -18 9.5 -35.5t5.5 -38.5
t3 -48t1 -64q0 -38 -1 -65t-3 -48t-5.5 -38t-9.5 -35q-3 -9 -6 -17t-7 -16zM314 119q20 0 38 5l-25 26q-11 11 -15.5 23.5t-4.5 26.5q0 27 19 47t48 20t50 -21l6 -7q2 17 2.5 41.5t0.5 59.5q0 33 -0.5 56.5t-2 40t-3.5 28.5t-5 21q-11 35 -37.5 55t-70.5 20t-70.5 -20
t-37.5 -55q-3 -9 -5 -21t-3.5 -28.5t-2 -40t-0.5 -56.5t0.5 -56.5t2 -40t3.5 -28.5t5 -21q11 -35 37.5 -55t70.5 -20z" />
    <glyph glyph-name="R" unicode="R" horiz-adv-x="624" 
d="M504 -6q-23 0 -41 11t-31 35l-114 219h-100q-6 0 -6 -6v-181q0 -35 -20.5 -56.5t-52.5 -21.5t-53 21.5t-21 56.5v543q0 29 17 47t47 18h216q52 0 95 -15.5t73.5 -43.5t47 -67t16.5 -85q0 -63 -29.5 -110.5t-82.5 -73.5l99 -180q10 -19 10 -41q0 -29 -18.5 -49.5
t-51.5 -20.5zM338 384q42 0 67 23t25 61q0 39 -25 62t-67 23h-120q-6 0 -6 -6v-157q0 -6 6 -6h120z" />
    <glyph glyph-name="S" unicode="S" horiz-adv-x="595" 
d="M291 -11q-72 0 -126 18.5t-88 39.5q-17 11 -26 27.5t-9 34.5q0 27 18.5 46t47.5 19q12 0 23 -3.5t20 -8.5q42 -23 75 -33.5t71 -10.5q54 0 82.5 22.5t28.5 57.5q0 30 -22 49t-83 27l-36 5q-105 14 -160 63.5t-55 140.5q0 47 17 85.5t48.5 65.5t76 42t99.5 15
q57 0 108.5 -13t81.5 -32q35 -22 35 -59q0 -28 -18.5 -46t-45.5 -18q-21 0 -43 11q-25 12 -55 20t-62 8q-45 0 -68.5 -20.5t-23.5 -52.5q0 -29 23 -48t83 -27l36 -5q106 -15 160 -64t54 -142q0 -46 -17 -85.5t-50.5 -68t-83.5 -44.5t-116 -16z" />
    <glyph glyph-name="T" unicode="T" horiz-adv-x="559" 
d="M279 -6q-32 0 -52.5 21.5t-20.5 56.5v471q0 6 -6 6h-115q-34 0 -54 18t-20 47t20 47.5t54 18.5h389q34 0 54 -18.5t20 -47.5t-20 -47t-54 -18h-115q-6 0 -6 -6v-471q0 -35 -21 -56.5t-53 -21.5z" />
    <glyph glyph-name="U" unicode="U" horiz-adv-x="645" 
d="M323 -11q-60 0 -108 17t-82 50t-52.5 82t-18.5 113v357q0 35 21 56.5t53 21.5t52.5 -21.5t20.5 -56.5v-362q0 -62 32.5 -94.5t81.5 -32.5q51 0 82 33t31 94v362q0 35 20.5 56.5t52.5 21.5t53 -21.5t21 -56.5v-357q0 -64 -19 -113t-53.5 -82t-82.5 -50t-105 -17z" />
    <glyph glyph-name="V" unicode="V" horiz-adv-x="595" 
d="M298 -6q-33 0 -55 19t-39 67l-173 506q-5 17 -5 31q0 29 20 49t52 20q52 0 71 -57l131 -405h3l124 405q18 57 71 57q32 0 51.5 -20t19.5 -49q0 -14 -5 -31l-173 -506q-17 -48 -39 -67t-54 -19z" />
    <glyph glyph-name="W" unicode="W" horiz-adv-x="864" 
d="M615 -6q-31 0 -49.5 17.5t-30.5 59.5l-103 361h-2l-101 -361q-11 -42 -30 -59.5t-50 -17.5q-30 0 -49.5 17.5t-30.5 59.5l-140 516q-2 7 -3 15t-1 14q0 30 19.5 50t52.5 20q26 0 44.5 -15.5t27.5 -52.5l89 -376h2l103 381q18 63 69 63q52 0 70 -63l106 -381h2l86 376
q8 37 27 52.5t45 15.5q33 0 52 -20t19 -50q0 -6 -1 -14t-3 -15l-140 -516q-11 -42 -30.5 -59.5t-49.5 -17.5z" />
    <glyph glyph-name="X" unicode="X" horiz-adv-x="594" 
d="M493 -6q-38 0 -61 35l-134 198h-2l-134 -198q-23 -35 -61 -35q-30 0 -49.5 19t-19.5 47q0 22 15 45l166 244l-154 226q-15 22 -15 45q0 28 19.5 47t49.5 19q38 0 61 -35l122 -180h2l122 180q23 35 61 35q30 0 49.5 -19t19.5 -47q0 -23 -15 -45l-155 -226l167 -244
q15 -23 15 -45q0 -28 -19.5 -47t-49.5 -19z" />
    <glyph glyph-name="Y" unicode="Y" horiz-adv-x="568" 
d="M283 -6q-31 0 -52 21t-21 57v198l-174 310q-11 20 -11 40q0 29 20 47.5t49 18.5q41 0 65 -44l124 -233h3l125 233q23 44 65 44q29 0 48 -18.5t19 -47.5q0 -20 -11 -40l-175 -310v-198q0 -36 -21 -57t-53 -21z" />
    <glyph glyph-name="Z" unicode="Z" horiz-adv-x="546" 
d="M111 0q-38 0 -57.5 20.5t-19.5 49.5q0 13 2.5 24.5t8 24t14.5 27t22 32.5l250 369v2h-216q-33 0 -51.5 18t-18.5 47t18.5 47.5t51.5 18.5h320q38 0 57.5 -20.5t19.5 -49.5q0 -11 -2 -21.5t-6.5 -22t-13 -25.5t-21.5 -33l-254 -375v-2h227q34 0 52 -18.5t18 -47.5t-18 -47
t-52 -18h-331z" />
    <glyph glyph-name="bracketleft" unicode="[" horiz-adv-x="302" 
d="M117 -84q-25 0 -39 14t-14 38v720q0 24 14 38t39 14h107q27 0 42 -14.5t15 -37.5t-15 -37.5t-42 -14.5h-30q-6 0 -6 -6v-604q0 -6 6 -6h30q27 0 42 -14.5t15 -37.5t-15 -37.5t-42 -14.5h-107z" />
    <glyph glyph-name="backslash" unicode="\" horiz-adv-x="424" 
d="M305 -16q-20 0 -36 12.5t-24 35.5l-185 579q-4 11 -4 25q0 28 18.5 44t44.5 16q20 0 36 -12.5t24 -35.5l185 -579q4 -11 4 -25q0 -28 -18.5 -44t-44.5 -16z" />
    <glyph glyph-name="bracketright" unicode="]" horiz-adv-x="302" 
d="M78 -84q-27 0 -42 14.5t-15 37.5t15 37.5t42 14.5h30q6 0 6 6v604q0 6 -6 6h-30q-27 0 -42 14.5t-15 37.5t15 37.5t42 14.5h107q25 0 39 -14t14 -38v-720q0 -24 -14 -38t-39 -14h-107z" />
    <glyph glyph-name="asciicircum" unicode="^" 
d="M426 248q-19 0 -34.5 10.5t-24.5 33.5l-88 219h-2l-88 -219q-9 -23 -24.5 -33.5t-34.5 -10.5q-25 0 -42 14.5t-17 41.5q0 17 7 32l127 297q23 53 73 53t73 -53l127 -297q7 -15 7 -32q0 -27 -17 -41.5t-42 -14.5z" />
    <glyph glyph-name="underscore" unicode="_" horiz-adv-x="520" 
d="M0 -152v88h520v-88h-520z" />
    <glyph glyph-name="grave" unicode="`" horiz-adv-x="454" 
d="M250 540q-28 0 -47 25l-44 59q-8 11 -10.5 19.5t-2.5 20.5q0 23 16.5 37t36.5 14q29 0 47 -24l43 -61q8 -11 10.5 -20.5t2.5 -20.5q0 -23 -15 -36t-37 -13z" />
    <glyph glyph-name="a" unicode="a" horiz-adv-x="528" 
d="M491 100q12 -20 12 -41q0 -28 -20.5 -46.5t-49.5 -18.5q-38 0 -57 27l-12 17h-1q-19 -23 -55.5 -36t-81.5 -13q-94 0 -139 39.5t-45 108.5q0 80 55 118t145 38h87q6 0 6 6v5q0 34 -24 53t-75 19q-23 0 -43.5 -4.5t-34.5 -9.5q-9 -3 -17 -5t-16 -2q-25 0 -40.5 15
t-15.5 41q0 16 8 31t28 25q24 12 60.5 20t87.5 8q110 0 163 -52t53 -143v-132q0 -17 2 -27t7 -19zM245 94q90 0 90 67v33q0 6 -6 6h-68q-86 0 -86 -55q0 -51 70 -51z" />
    <glyph glyph-name="b" unicode="b" horiz-adv-x="551" 
d="M327 -11q-48 0 -78.5 16.5t-47.5 39.5h-1q-5 -20 -21.5 -35.5t-45.5 -15.5q-31 0 -50.5 19.5t-19.5 54.5v544q0 35 19.5 54.5t50.5 19.5q30 0 50 -19.5t20 -54.5v-169h1q14 21 44.5 36.5t78.5 15.5q60 0 104.5 -33t63.5 -90q9 -27 13 -58t4 -72t-4 -72t-13 -58
q-19 -57 -63.5 -90t-104.5 -33zM286 107q57 0 75 56q9 27 9 79t-9 79q-18 56 -75 56q-56 0 -74 -56q-9 -27 -9 -79t9 -79q18 -56 74 -56z" />
    <glyph glyph-name="c" unicode="c" horiz-adv-x="477" 
d="M261 -11q-77 0 -130.5 35t-75.5 103q-8 22 -12 49.5t-4 65.5t4 65.5t12 49.5q22 68 75.5 103t130.5 35q51 0 90 -15t62 -38q15 -15 21.5 -28t6.5 -28q0 -26 -17.5 -43t-43.5 -17q-16 0 -29 7.5t-28 21.5q-23 22 -60 22q-57 0 -73 -53q-5 -14 -7 -33t-2 -49t2 -49t7 -33
q16 -53 73 -53q37 0 60 22q15 14 28 21.5t29 7.5q26 0 43.5 -17t17.5 -43q0 -15 -6.5 -28t-21.5 -28q-23 -23 -62 -38t-90 -15z" />
    <glyph glyph-name="d" unicode="d" horiz-adv-x="551" 
d="M418 -6q-29 0 -45.5 15.5t-21.5 35.5h-1q-17 -23 -47.5 -39.5t-78.5 -16.5q-60 0 -104.5 33t-63.5 90q-9 27 -13 58t-4 72t4 72t13 58q19 57 63.5 90t104.5 33q48 0 78.5 -15.5t44.5 -36.5h1v169q0 35 20 54.5t50 19.5q31 0 50.5 -19.5t19.5 -54.5v-544
q0 -35 -19.5 -54.5t-50.5 -19.5zM265 107q56 0 74 56q9 27 9 79t-9 79q-18 56 -74 56q-57 0 -75 -56q-9 -27 -9 -79t9 -79q18 -56 75 -56z" />
    <glyph glyph-name="e" unicode="e" horiz-adv-x="527" 
d="M271 -11q-85 0 -140 36t-76 102q-8 23 -12 50t-4 65t3.5 65.5t11.5 50.5q22 66 76.5 101.5t132.5 35.5q81 0 134.5 -35.5t74.5 -100.5q8 -26 12 -52.5t4 -60.5q0 -20 -12 -33t-34 -13h-257q-6 0 -6 -6q0 -13 5 -28q10 -31 36 -47t64 -16q25 0 48 7t43 18q25 15 48 15
q22 0 36.5 -14.5t14.5 -37.5q0 -31 -28 -50q-35 -24 -76.5 -38t-98.5 -14zM344 293q6 0 6 6q0 12 -1.5 20t-3.5 16q-8 26 -29.5 39.5t-51.5 13.5t-51 -13.5t-29 -39.5q-2 -8 -3.5 -16t-1.5 -20q0 -6 6 -6h159z" />
    <glyph glyph-name="f" unicode="f" horiz-adv-x="339" 
d="M151 -6q-31 0 -50.5 19.5t-19.5 54.5v306q0 6 -7 6h-4q-27 0 -41.5 14.5t-14.5 37.5t14.5 37.5t41.5 14.5h4q7 0 7 6v23q0 89 41 128t129 39h10q32 0 48 -16t16 -41q0 -26 -16 -42t-45 -16q-23 0 -33 -11.5t-10 -38.5v-25q0 -6 6 -6h38q27 0 41.5 -14.5t14.5 -37.5
t-14.5 -37.5t-41.5 -14.5h-38q-6 0 -6 -6v-306q0 -35 -20 -54.5t-50 -19.5z" />
    <glyph glyph-name="g" unicode="g" horiz-adv-x="544" 
d="M240 -191q-25 0 -49.5 4.5t-45.5 12t-37.5 17.5t-25.5 20q-10 11 -14.5 23t-4.5 23q0 23 16.5 41t42.5 18q14 0 27 -5t28 -13q17 -9 35 -14.5t35 -5.5q94 0 94 104v39h-1q-20 -26 -49.5 -40t-73.5 -14q-60 0 -102 31t-61 89q-16 49 -16 118t16 118q19 58 61 89t102 31
q48 0 78.5 -16.5t47.5 -39.5h1q5 20 21.5 35.5t45.5 15.5q31 0 50.5 -19.5t19.5 -54.5v-363q0 -244 -241 -244zM261 136q53 0 71 53q9 27 9 67q0 41 -9 68q-18 53 -71 53q-54 0 -72 -53q-9 -27 -9 -68q0 -40 9 -67q18 -53 72 -53z" />
    <glyph glyph-name="h" unicode="h" horiz-adv-x="553" 
d="M424 -6q-30 0 -50 19.5t-20 54.5v220q0 40 -19 64t-57 24t-56.5 -24t-18.5 -64v-220q0 -35 -20 -54.5t-50 -19.5q-31 0 -50.5 19.5t-19.5 54.5v544q0 35 19.5 54.5t50.5 19.5q30 0 50 -19.5t20 -54.5v-169h1q17 20 47.5 36t77.5 16q40 0 71 -13.5t52 -37.5t31.5 -57
t10.5 -72v-247q0 -35 -19.5 -54.5t-50.5 -19.5z" />
    <glyph glyph-name="i" unicode="i" horiz-adv-x="266" 
d="M133 533q-33 0 -56 23t-23 56t23 56t56 23t56 -23t23 -56t-23 -56t-56 -23zM133 -6q-31 0 -50.5 19.5t-19.5 54.5v348q0 35 19.5 54.5t50.5 19.5q30 0 50 -19.5t20 -54.5v-348q0 -35 -20 -54.5t-50 -19.5z" />
    <glyph glyph-name="j" unicode="j" horiz-adv-x="266" 
d="M133 533q-33 0 -56 23t-23 56t23 56t56 23t56 -23t23 -56t-23 -56t-56 -23zM33 -180q-31 0 -47 16.5t-16 42.5q0 50 54 61q23 5 31 16.5t8 38.5v421q0 35 19.5 54.5t50.5 19.5q30 0 50 -19.5t20 -54.5v-420q0 -93 -43.5 -134.5t-126.5 -41.5z" />
    <glyph glyph-name="k" unicode="k" horiz-adv-x="531" 
d="M422 -6q-40 0 -63 38l-106 178l-50 -52v-90q0 -35 -20 -54.5t-50 -19.5q-31 0 -50.5 19.5t-19.5 54.5v544q0 35 19.5 54.5t50.5 19.5q30 0 50 -19.5t20 -54.5v-302l151 155q25 25 54 25q23 0 39.5 -15.5t16.5 -40.5q0 -30 -22 -51l-91 -85l127 -201q11 -18 11 -39
q0 -27 -19.5 -45.5t-47.5 -18.5z" />
    <glyph glyph-name="l" unicode="l" horiz-adv-x="304" 
d="M210 -6q-83 0 -116 40t-33 114v464q0 35 19.5 54.5t50.5 19.5q30 0 50 -19.5t20 -54.5v-452q0 -21 7.5 -31t24.5 -13q30 -5 43 -21.5t13 -39.5q0 -26 -17.5 -43.5t-55.5 -17.5h-6z" />
    <glyph glyph-name="m" unicode="m" horiz-adv-x="844" 
d="M715 -6q-30 0 -50 19.5t-20 54.5v220q0 40 -19 64t-57 24q-37 0 -56 -24t-19 -64v-220q0 -35 -19.5 -54.5t-50.5 -19.5q-30 0 -50 19.5t-20 54.5v220q0 40 -19 64t-57 24t-56.5 -24t-18.5 -64v-220q0 -35 -20 -54.5t-50 -19.5q-31 0 -50.5 19.5t-19.5 54.5v348
q0 35 19.5 54.5t50.5 19.5q25 0 43 -13.5t24 -37.5h1q18 23 49.5 39.5t78.5 16.5q88 0 131 -63h1q26 29 63 46t89 17q43 0 75 -13t53.5 -37t32.5 -57t11 -73v-247q0 -35 -19.5 -54.5t-50.5 -19.5z" />
    <glyph glyph-name="n" unicode="n" horiz-adv-x="553" 
d="M424 -6q-30 0 -50 19.5t-20 54.5v220q0 40 -19 64t-57 24t-56.5 -24t-18.5 -64v-220q0 -35 -20 -54.5t-50 -19.5q-31 0 -50.5 19.5t-19.5 54.5v348q0 35 19.5 54.5t50.5 19.5q25 0 43 -13.5t24 -37.5h1q18 23 49.5 39.5t78.5 16.5q40 0 71 -13.5t52 -37.5t31.5 -57
t10.5 -72v-247q0 -35 -19.5 -54.5t-50.5 -19.5z" />
    <glyph glyph-name="o" unicode="o" horiz-adv-x="530" 
d="M265 -11q-80 0 -134 36t-76 103q-8 26 -12 52.5t-4 61.5t4 61.5t12 52.5q22 67 76 103t134 36t134 -36t76 -103q8 -26 12 -52.5t4 -61.5t-4 -61.5t-12 -52.5q-22 -67 -76 -103t-134 -36zM265 107q29 0 48 14t27 40q5 16 7 36t2 45t-2 45t-7 36q-8 26 -27 40t-48 14
t-48 -14t-27 -40q-5 -16 -7 -36t-2 -45t2 -45t7 -36q8 -26 27 -40t48 -14z" />
    <glyph glyph-name="p" unicode="p" horiz-adv-x="551" 
d="M133 -186q-31 0 -50.5 19.5t-19.5 54.5v528q0 35 19.5 54.5t50.5 19.5q29 0 45.5 -15.5t21.5 -35.5h1q17 23 47.5 39.5t78.5 16.5q60 0 104.5 -33t63.5 -90q9 -27 13 -58t4 -72t-4 -72t-13 -58q-19 -57 -63.5 -90t-104.5 -33q-48 0 -78.5 15.5t-44.5 36.5h-1v-153
q0 -35 -20 -54.5t-50 -19.5zM286 107q57 0 75 56q9 27 9 79t-9 79q-18 56 -75 56q-56 0 -74 -56q-9 -27 -9 -79t9 -79q18 -56 74 -56z" />
    <glyph glyph-name="q" unicode="q" horiz-adv-x="551" 
d="M418 -186q-30 0 -50 19.5t-20 54.5v153h-1q-14 -21 -44.5 -36.5t-78.5 -15.5q-60 0 -104.5 33t-63.5 90q-9 27 -13 58t-4 72t4 72t13 58q19 57 63.5 90t104.5 33q48 0 78.5 -16.5t47.5 -39.5h1q5 20 21.5 35.5t45.5 15.5q31 0 50.5 -19.5t19.5 -54.5v-528
q0 -35 -19.5 -54.5t-50.5 -19.5zM265 107q56 0 74 56q9 27 9 79t-9 79q-18 56 -74 56q-57 0 -75 -56q-9 -27 -9 -79t9 -79q18 -56 75 -56z" />
    <glyph glyph-name="r" unicode="r" horiz-adv-x="428" 
d="M133 -6q-31 0 -50.5 19.5t-19.5 54.5v348q0 35 19.5 54.5t50.5 19.5q25 0 43.5 -14t24.5 -40v-1h1q17 24 48.5 42t73.5 18q17 0 29 -2.5t22 -7.5q19 -9 28 -24t9 -33q0 -31 -19 -51t-50 -20q-13 0 -30 5t-36 5q-39 0 -56.5 -26.5t-17.5 -75.5v-197q0 -35 -20 -54.5
t-50 -19.5z" />
    <glyph glyph-name="s" unicode="s" horiz-adv-x="505" 
d="M250 -11q-57 0 -102 13.5t-75 32.5q-34 21 -34 56q0 23 17 39.5t41 16.5q18 0 41 -13q26 -15 55 -25t64 -10q38 0 56.5 12.5t18.5 32.5q0 17 -13.5 26.5t-56.5 14.5l-53 6q-79 9 -118.5 47t-39.5 101q0 72 52 114t148 42q41 0 78.5 -8t68.5 -24q41 -21 41 -55
q0 -23 -15 -39t-40 -16q-8 0 -17 2.5t-23 9.5q-45 21 -98 21q-32 0 -46.5 -10.5t-14.5 -27.5t13 -26.5t54 -13.5l53 -6q86 -10 123.5 -48t37.5 -99q0 -75 -56.5 -120.5t-159.5 -45.5z" />
    <glyph glyph-name="t" unicode="t" horiz-adv-x="331" 
d="M228 -6q-86 0 -120.5 39.5t-34.5 122.5v218q0 6 -7 6h-4q-27 0 -41.5 14.5t-14.5 37.5t14.5 37.5t41.5 14.5h4q7 0 7 6v72q0 35 19.5 54.5t50.5 19.5q30 0 49.5 -19.5t19.5 -54.5v-72q0 -6 6 -6h38q27 0 41.5 -14.5t14.5 -37.5t-14.5 -37.5t-41.5 -14.5h-38q-6 0 -6 -6
v-214q0 -22 8.5 -32t28.5 -12q33 -4 47.5 -21.5t14.5 -40.5q0 -26 -18.5 -43t-58.5 -17h-6z" />
    <glyph glyph-name="u" unicode="u" horiz-adv-x="549" 
d="M416 -6q-25 0 -43 13.5t-24 37.5h-1q-18 -23 -49.5 -39.5t-78.5 -16.5q-40 0 -70.5 13.5t-50.5 37.5t-30.5 57t-10.5 72v247q0 35 20 54.5t51 19.5q30 0 49.5 -19.5t19.5 -54.5v-220q0 -40 18 -64t56 -24q37 0 55.5 24t18.5 64v220q0 35 19.5 54.5t50.5 19.5
q30 0 50 -19.5t20 -54.5v-348q0 -35 -19.5 -54.5t-50.5 -19.5z" />
    <glyph glyph-name="v" unicode="v" horiz-adv-x="508" 
d="M254 -6q-35 0 -54 19t-39 67l-125 311q-7 17 -7 33q0 29 20 47.5t49 18.5q47 0 65 -49l93 -253h2l89 253q17 49 64 49q29 0 48.5 -18.5t19.5 -47.5q0 -16 -7 -33l-125 -311q-20 -48 -39 -67t-54 -19z" />
    <glyph glyph-name="w" unicode="w" horiz-adv-x="765" 
d="M532 -6q-60 0 -79 65l-69 232h-2l-70 -232q-21 -65 -77 -65q-57 0 -79 65l-113 335q-5 17 -5 29q0 29 19.5 48t48.5 19q50 0 67 -59l70 -245h2l69 244q18 60 69 60q50 0 68 -60l73 -244h2l67 245q17 59 67 59q29 0 48 -19t19 -48q0 -12 -5 -29l-113 -335q-22 -65 -77 -65
z" />
    <glyph glyph-name="x" unicode="x" horiz-adv-x="515" 
d="M407 -6q-34 0 -58 31l-91 120h-1l-91 -120q-24 -31 -58 -31q-27 0 -44.5 18t-17.5 43q0 23 17 46l114 149l-102 133q-17 23 -17 46q0 25 17.5 43t44.5 18q34 0 58 -31l79 -104h1l79 104q24 31 58 31q27 0 44.5 -18t17.5 -43q0 -23 -17 -46l-102 -133l114 -149
q17 -23 17 -46q0 -25 -17.5 -43t-44.5 -18z" />
    <glyph glyph-name="y" unicode="y" horiz-adv-x="507" 
d="M120 -180q-30 0 -47.5 16.5t-17.5 42.5t17 42.5t48 17.5q23 1 36.5 12t22.5 37l13 36l-155 367q-7 17 -7 33q0 29 20 47.5t49 18.5q25 0 40.5 -13t24.5 -36l93 -247h2l86 247q17 49 64 49q29 0 48.5 -18.5t19.5 -47.5q0 -16 -7 -33l-173 -433q-16 -39 -32.5 -65.5
t-36.5 -42.5t-44.5 -23t-57.5 -7h-6z" />
    <glyph glyph-name="z" unicode="z" horiz-adv-x="478" 
d="M93 0q-29 0 -46 16t-17 44q0 20 11 40t34 46l196 219v2h-164q-31 0 -47 16t-16 42t16 42.5t47 16.5h279q28 0 45 -16t17 -44q0 -20 -10.5 -40.5t-33.5 -46.5l-195 -218v-2h177q30 0 46 -16.5t16 -42.5t-16 -42t-46 -16h-293z" />
    <glyph glyph-name="braceleft" unicode="{" horiz-adv-x="357" 
d="M261 -84q-72 0 -104 33t-32 93v150q0 35 -10.5 51.5t-33.5 27.5q-41 17 -41 59t41 59q23 11 33.5 27.5t10.5 51.5v146q0 60 32 93t104 33h20q28 0 42.5 -14.5t14.5 -37.5q0 -48 -52 -54l-9 -1q-14 -2 -21.5 -11t-7.5 -30v-135q0 -57 -16.5 -84.5t-55.5 -41.5v-2
q39 -14 55.5 -41.5t16.5 -84.5v-139q0 -21 7.5 -30t21.5 -11l9 -1q52 -6 52 -54q0 -23 -14.5 -37.5t-42.5 -14.5h-20z" />
    <glyph glyph-name="bar" unicode="|" horiz-adv-x="335" 
d="M168 -90q-26 0 -43 17.5t-17 46.5v708q0 29 17 46.5t43 17.5t42.5 -17.5t16.5 -46.5v-708q0 -29 -16.5 -46.5t-42.5 -17.5z" />
    <glyph glyph-name="braceright" unicode="}" horiz-adv-x="357" 
d="M76 -84q-28 0 -42.5 14.5t-14.5 37.5q0 48 52 54l9 1q14 2 21.5 11t7.5 30v139q0 57 16.5 84.5t55.5 41.5v2q-39 14 -55.5 41.5t-16.5 84.5v135q0 21 -7.5 30t-21.5 11l-9 1q-52 6 -52 54q0 23 14.5 37.5t42.5 14.5h20q72 0 104 -33t32 -93v-146q0 -35 10.5 -51.5
t33.5 -27.5q41 -17 41 -59t-41 -59q-23 -11 -33.5 -27.5t-10.5 -51.5v-150q0 -60 -32 -93t-104 -33h-20z" />
    <glyph glyph-name="asciitilde" unicode="~" 
d="M367 191q-32 0 -55.5 8.5t-49.5 25.5q-17 11 -33.5 18.5t-33.5 7.5q-16 0 -27 -6t-22 -19q-23 -27 -48 -27q-20 0 -35 12.5t-15 35.5q0 20 13 40q19 29 52.5 51t75.5 22q32 0 55.5 -8.5t49.5 -25.5q17 -11 33.5 -18.5t33.5 -7.5q16 0 27 6t22 19q23 27 48 27
q20 0 35 -12.5t15 -35.5q0 -20 -13 -40q-19 -29 -52.5 -51t-75.5 -22z" />
    <glyph glyph-name="uni00A0" unicode="&#xa0;" horiz-adv-x="236" 
 />
    <glyph glyph-name="exclamdown" unicode="&#xa1;" horiz-adv-x="312" 
d="M156.01 280.012q30.998 0 50.9971 -19.998q19.998 -19.999 19.998 -54.9971v-337.979q0 -34.998 -19.998 -54.4961q-19.999 -19.499 -50.9971 -19.499q-29.998 0 -49.9971 19.499q-19.999 19.498 -19.999 54.4961v337.979q0 34.998 19.999 54.9971
q19.999 19.998 49.9971 19.998zM238.005 408.004q0 -33.9971 -23.999 -57.9961q-23.998 -23.998 -57.9961 -23.998t-57.9971 23.998q-23.998 23.999 -23.998 57.9961q0 33.998 23.998 57.9971q23.999 23.998 57.9971 23.998t57.9961 -23.998q23.999 -23.999 23.999 -57.9971
z" />
    <glyph glyph-name="cent" unicode="&#xa2;" 
d="M265 -9q-66 7 -112 41t-66 95q-8 22 -12 49.5t-4 65.5t4 65.5t12 49.5q20 60 66 94.5t112 41.5v61q0 16 9 25t24 9q14 0 23 -9t9 -25v-61q45 -6 82 -25.5t56 -52.5q9 -18 9 -35q0 -24 -16 -41t-42 -17q-28 0 -58 28q-15 13 -31 20v-256q16 7 31 20q30 28 58 28
q26 0 42 -17t16 -41q0 -17 -9 -35q-19 -33 -56 -52.5t-82 -25.5v-61q0 -16 -9 -25t-23 -9q-15 0 -24 9t-9 25v61zM222 161q10 -35 43 -48v257q-32 -11 -43 -47q-5 -14 -6.5 -32.5t-1.5 -48.5t1.5 -48.5t6.5 -32.5z" />
    <glyph glyph-name="sterling" unicode="&#xa3;" 
d="M131 0q-31 0 -48 17t-17 43q0 18 7.5 33t27.5 37q24 25 24 75v58q0 6 -6 6h-11q-26 0 -40.5 13.5t-14.5 36.5t14.5 36t40.5 13h11q6 0 6 6v122q0 94 51 144.5t140 50.5q64 0 105 -27t55 -65q5 -14 5 -29q0 -27 -17 -45t-45 -18q-40 0 -59 35q-8 14 -18.5 22t-26.5 8
q-49 0 -49 -61v-137q0 -6 6 -6h83q26 0 40.5 -13t14.5 -36t-14.5 -36.5t-40.5 -13.5h-83q-6 0 -6 -6v-43q0 -68 -26 -98v-2h199q30 0 47 -16.5t17 -43.5t-17 -43.5t-47 -16.5h-308z" />
    <glyph glyph-name="currency" unicode="&#xa4;" 
d="M278 100q-55 0 -100 25l-35 -35q-20 -20 -45 -20q-26 0 -42.5 17.5t-16.5 40.5q0 25 20 45l36 36q-23 43 -23 96t24 97l-37 37q-20 20 -20 45q0 23 16.5 40.5t42.5 17.5q25 0 45 -20l36 -37q45 25 99 25q53 0 98 -25l36 37q20 20 45 20q26 0 42.5 -17.5t16.5 -40.5
q0 -25 -20 -45l-37 -37q11 -22 17.5 -46.5t6.5 -50.5t-6.5 -50.5t-17.5 -45.5l37 -36q20 -20 20 -45q0 -23 -16.5 -40.5t-42.5 -17.5q-25 0 -45 20l-35 35q-45 -25 -99 -25zM278 204q43 0 70.5 29t27.5 72q0 44 -27.5 73t-70.5 29q-44 0 -71.5 -29t-27.5 -73q0 -43 27.5 -72
t71.5 -29z" />
    <glyph glyph-name="yen" unicode="&#xa5;" 
d="M278 -6q-31 0 -50.5 19.5t-19.5 54.5v57q0 6 -6 6h-88q-20 0 -31.5 11.5t-11.5 29.5t11.5 29.5t31.5 11.5h88q6 0 6 6v34q0 6 -6 6h-88q-20 0 -31.5 11.5t-11.5 29.5t11.5 29.5t31.5 11.5h64v2l-120 246q-4 8 -5.5 16.5t-1.5 16.5q0 26 19 45t49 19q43 0 63 -45l98 -228
h3l94 228q19 45 62 45q30 0 48 -19t18 -45q0 -8 -1.5 -16.5t-5.5 -16.5l-120 -246v-2h64q20 0 31.5 -11.5t11.5 -29.5t-11.5 -29.5t-31.5 -11.5h-88q-6 0 -6 -6v-34q0 -6 6 -6h88q20 0 31.5 -11.5t11.5 -29.5t-11.5 -29.5t-31.5 -11.5h-88q-6 0 -6 -6v-57q0 -35 -20 -54.5
t-50 -19.5z" />
    <glyph glyph-name="brokenbar" unicode="&#xa6;" horiz-adv-x="335" 
d="M168 382q-26 0 -43 17t-17 47v236q0 30 17 47t43 17t42.5 -17t16.5 -47v-236q0 -30 -16.5 -47t-42.5 -17zM168 -90q-26 0 -43 17t-17 47v236q0 30 17 47t43 17t42.5 -17t16.5 -47v-236q0 -30 -16.5 -47t-42.5 -17z" />
    <glyph glyph-name="section" unicode="&#xa7;" horiz-adv-x="558" 
d="M276 -191q-39 0 -71 10t-55.5 27t-38 39.5t-18.5 46.5q-1 5 -1 8v6q0 26 16.5 41.5t44.5 15.5q41 0 57 -43q8 -20 24 -32.5t42 -12.5q29 0 45.5 16.5t16.5 42.5q0 31 -23.5 50.5t-85.5 35.5q-156 40 -156 191q0 51 23.5 90.5t64.5 62.5v1q-35 23 -49.5 53t-14.5 71
q0 33 13 62.5t37.5 51.5t58.5 35t76 13q71 0 118 -32t56 -81q1 -3 1.5 -8.5t0.5 -8.5q0 -26 -16 -41.5t-43 -15.5q-20 0 -34 11t-22 31q-8 18 -22 28.5t-36 10.5q-29 0 -45 -15.5t-16 -41.5q0 -32 23.5 -50.5t80.5 -33.5q157 -42 157 -191q0 -53 -26 -93t-62 -60v-1
q67 -41 67 -124q0 -77 -51.5 -121.5t-136.5 -44.5zM279 168q36 0 57.5 22t21.5 62t-21.5 62t-57.5 22q-37 0 -58 -22t-21 -62t21 -62t58 -22z" />
    <glyph glyph-name="dieresis" unicode="&#xa8;" horiz-adv-x="454" 
d="M328 543q-30 0 -51 21t-21 51q0 29 21 50t51 21q29 0 50 -21t21 -50q0 -30 -21 -51t-50 -21zM127 543q-30 0 -51 21t-21 51q0 29 21 50t51 21q29 0 50 -21t21 -50q0 -30 -21 -51t-50 -21z" />
    <glyph glyph-name="copyright" unicode="&#xa9;" horiz-adv-x="813" 
d="M406 -11q-75 0 -139 26.5t-111 74t-74 111.5t-27 139t27 139t74 111.5t111 74t139 26.5t139.5 -26.5t111.5 -74t74 -111.5t27 -139t-27 -139t-74 -111.5t-111.5 -74t-139.5 -26.5zM406 68q58 0 107.5 20.5t85.5 57t56 86t20 108.5q0 58 -20 108t-56 86.5t-85.5 57
t-107.5 20.5t-107 -20.5t-85 -57t-56 -86.5t-20 -108q0 -59 20 -108.5t56 -86t85 -57t107 -20.5zM415 143q-61 0 -104 28.5t-62 82.5q-5 14 -8 33.5t-3 52.5t3 52.5t8 33.5q19 54 62 82.5t104 28.5q39 0 70.5 -13t48.5 -33q13 -16 13 -35q0 -17 -12.5 -31t-32.5 -14
q-23 0 -41 17q-11 9 -20 13t-23 4q-49 0 -64 -44q-3 -8 -4.5 -20t-1.5 -41t1.5 -41t4.5 -20q15 -44 64 -44q14 0 23 4t20 13q18 17 41 17q20 0 32.5 -14t12.5 -31q0 -19 -13 -35q-17 -20 -48.5 -33t-70.5 -13z" />
    <glyph glyph-name="ordfeminine" unicode="&#xaa;" horiz-adv-x="356" 
d="M329 466q11 -14 11 -31q0 -20 -13.5 -33.5t-35.5 -13.5q-26 0 -41 23l-4 6h-1q-12 -13 -34.5 -21.5t-53.5 -8.5q-63 0 -93 23.5t-30 67.5q0 48 34 70t95 22h49q6 0 6 6v4q0 14 -13.5 22.5t-41.5 8.5q-18 0 -30 -2.5t-26 -7.5q-11 -4 -23 -4q-17 0 -27 9.5t-10 26.5
q0 11 6 20.5t17 15.5q17 9 40.5 14t61.5 5q75 0 109.5 -30t34.5 -85v-70q0 -19 7 -29zM166 458q52 0 52 35v8q0 6 -6 6h-41q-23 0 -32 -7t-9 -18q0 -24 36 -24z" />
    <glyph glyph-name="guillemotleft" unicode="&#xab;" horiz-adv-x="564" 
d="M476 63q-24 0 -43 19l-140 140q-11 11 -16.5 20.5t-5.5 21.5t5.5 21.5t16.5 20.5l140 140q19 19 43 19q20 0 34 -13.5t14 -34.5q0 -23 -19 -42l-107 -106q-5 -5 0 -10l107 -106q19 -19 19 -42q0 -21 -14 -34.5t-34 -13.5zM233 63q-24 0 -43 19l-140 140
q-11 11 -16.5 20.5t-5.5 21.5t5.5 21.5t16.5 20.5l140 140q19 19 43 19q20 0 34 -13.5t14 -34.5q0 -23 -19 -42l-107 -106q-5 -5 0 -10l107 -106q19 -19 19 -42q0 -21 -14 -34.5t-34 -13.5z" />
    <glyph glyph-name="logicalnot" unicode="&#xac;" 
d="M444 78q-26 0 -43.5 17t-17.5 48v68q0 6 -6 6h-268q-29 0 -46 16.5t-17 42.5t17 42.5t46 16.5h337q26 0 42.5 -16t16.5 -43v-133q0 -31 -17.5 -48t-43.5 -17z" />
    <glyph glyph-name="uni00AD" unicode="&#xad;" horiz-adv-x="392" 
d="M101 204q-30 0 -47.5 17t-17.5 44t17.5 44t47.5 17h190q30 0 47.5 -17t17.5 -44t-17.5 -44t-47.5 -17h-190z" />
    <glyph glyph-name="registered" unicode="&#xae;" horiz-adv-x="440" 
d="M220 301q-41 0 -76 14.5t-60.5 40.5t-40.5 61t-15 76q0 40 15 75t40.5 61t60.5 40.5t76 14.5t76 -14.5t61 -40.5t40.5 -61t14.5 -75q0 -41 -14.5 -76t-40.5 -61t-61 -40.5t-76 -14.5zM220 341q32 0 59.5 11t47.5 31.5t31.5 48.5t11.5 61t-11.5 60.5t-31.5 48t-47.5 31.5
t-59.5 11t-59 -11t-47 -31.5t-31.5 -48t-11.5 -60.5t11.5 -61t31.5 -48.5t47 -31.5t59 -11zM166 385q-28 0 -28 30v157q0 28 28 28h68q38 0 59 -18t21 -50q0 -42 -33 -58l26 -47q5 -6 5 -17t-7.5 -18t-18.5 -7q-18 0 -29 20l-33 60h-25q-4 0 -4 -5v-45q0 -14 -8 -22t-21 -8z
M230 510q29 0 29 22q0 23 -29 23h-31q-4 0 -4 -4v-37q0 -4 4 -4h31z" />
    <glyph glyph-name="macron" unicode="&#xaf;" horiz-adv-x="454" 
d="M121 575q-26 0 -39.5 14t-13.5 35q0 22 13.5 36t39.5 14h213q25 0 38.5 -14t13.5 -36q0 -21 -13.5 -35t-38.5 -14h-213z" />
    <glyph glyph-name="degree" unicode="&#xb0;" horiz-adv-x="439" 
d="M220 386q-33 0 -61 11.5t-49 32t-32.5 48.5t-11.5 61t11.5 61t32.5 49t49 32.5t61 11.5t61 -11.5t48.5 -32.5t32 -49t11.5 -61t-11.5 -61t-32 -48.5t-48.5 -32t-61 -11.5zM220 467q30 0 49.5 20.5t19.5 51.5q0 32 -19 52.5t-50 20.5t-50.5 -20.5t-19.5 -52.5
q0 -31 19.5 -51.5t50.5 -20.5z" />
    <glyph glyph-name="plusminus" unicode="&#xb1;" 
d="M278 164q-26 0 -43.5 17t-17.5 48v102q0 6 -6 6h-102q-29 0 -46 16.5t-17 42.5t17 42.5t46 16.5h102q6 0 6 6v102q0 31 17.5 48t43.5 17t43.5 -17t17.5 -48v-102q0 -6 6 -6h102q29 0 46 -16.5t17 -42.5t-17 -42.5t-46 -16.5h-102q-6 0 -6 -6v-102q0 -31 -17.5 -48
t-43.5 -17zM109 0q-29 0 -46 16.5t-17 42.5t17 42.5t46 16.5h338q29 0 46 -16.5t17 -42.5t-17 -42.5t-46 -16.5h-338z" />
    <glyph glyph-name="twosuperior" unicode="&#xb2;" horiz-adv-x="358" 
d="M84 430q-25 0 -38 13.5t-13 33.5q0 18 11 35t29 35l118 123q14 14 19.5 26t5.5 26q0 17 -11 26t-28 9q-14 0 -24 -6.5t-19 -20.5q-20 -29 -46 -29q-20 0 -33.5 12t-13.5 32q0 11 5 26q11 29 47 51t87 22q61 0 100.5 -32.5t39.5 -89.5q0 -32 -12.5 -56.5t-36.5 -48.5
l-95 -97v-1h102q23 0 35.5 -12t12.5 -32t-12.5 -32.5t-35.5 -12.5h-194z" />
    <glyph glyph-name="threesuperior" unicode="&#xb3;" horiz-adv-x="358" 
d="M179 422q-45 0 -82 16.5t-50 47.5q-5 13 -5 22q0 18 13 31.5t35 13.5q24 0 47 -27q14 -17 40 -17q20 0 32 11.5t12 31.5q0 19 -13 30.5t-36 11.5q-22 0 -33.5 12t-11.5 31t11.5 31t33.5 12q17 0 28.5 10t11.5 28q0 19 -11 29t-29 10q-21 0 -36 -15q-11 -11 -21.5 -18
t-23.5 -7q-19 0 -32.5 11t-13.5 31q0 9 5 22q11 26 44.5 44.5t81.5 18.5q66 0 103 -32.5t37 -83.5q0 -22 -9.5 -43.5t-32.5 -38.5v-1q18 -8 34.5 -32t16.5 -62q0 -59 -40 -94t-106 -35z" />
    <glyph glyph-name="acute" unicode="&#xb4;" horiz-adv-x="454" 
d="M251 565q-19 -25 -47 -25q-22 0 -37 13t-15 36q0 11 2.5 20.5t10.5 20.5l43 61q18 24 47 24q20 0 36.5 -14t16.5 -37q0 -12 -2.5 -20.5t-10.5 -19.5z" />
    <glyph glyph-name="mu" unicode="&#xb5;" horiz-adv-x="554" 
d="M421 -6q-25 0 -43 13.5t-24 37.5h-1q-12 -20 -38.5 -36t-59.5 -16q-20 0 -31 4t-19 11h-1v-120q0 -35 -20 -54.5t-50 -19.5q-31 0 -51 19.5t-20 54.5v528q0 35 20 54.5t51 19.5q30 0 49.5 -19.5t19.5 -54.5v-220q0 -40 18 -64t56 -24q37 0 55.5 24t18.5 64v220
q0 35 19.5 54.5t50.5 19.5q30 0 50 -19.5t20 -54.5v-348q0 -35 -19.5 -54.5t-50.5 -19.5z" />
    <glyph glyph-name="mu" unicode="&#x3bc;" horiz-adv-x="554" 
d="M421 -6q-25 0 -43 13.5t-24 37.5h-1q-12 -20 -38.5 -36t-59.5 -16q-20 0 -31 4t-19 11h-1v-120q0 -35 -20 -54.5t-50 -19.5q-31 0 -51 19.5t-20 54.5v528q0 35 20 54.5t51 19.5q30 0 49.5 -19.5t19.5 -54.5v-220q0 -40 18 -64t56 -24q37 0 55.5 24t18.5 64v220
q0 35 19.5 54.5t50.5 19.5q30 0 50 -19.5t20 -54.5v-348q0 -35 -19.5 -54.5t-50.5 -19.5z" />
    <glyph glyph-name="mu" unicode="&#x3bc;" horiz-adv-x="554" 
d="M421 -6q-25 0 -43 13.5t-24 37.5h-1q-12 -20 -38.5 -36t-59.5 -16q-20 0 -31 4t-19 11h-1v-120q0 -35 -20 -54.5t-50 -19.5q-31 0 -51 19.5t-20 54.5v528q0 35 20 54.5t51 19.5q30 0 49.5 -19.5t19.5 -54.5v-220q0 -40 18 -64t56 -24q37 0 55.5 24t18.5 64v220
q0 35 19.5 54.5t50.5 19.5q30 0 50 -19.5t20 -54.5v-348q0 -35 -19.5 -54.5t-50.5 -19.5z" />
    <glyph glyph-name="paragraph" unicode="&#xb6;" horiz-adv-x="657" 
d="M521 -186q-26 0 -42 16.5t-16 45.5v694q0 6 -6 6h-69q-6 0 -6 -6v-694q0 -29 -16 -45.5t-42 -16.5t-42 16.5t-16 45.5v361q-45 3 -83 20.5t-65 47t-42 68.5t-15 85q0 47 16 87.5t46.5 70.5t74 47t99.5 17h223q28 0 43.5 -15.5t15.5 -43.5v-745q0 -29 -16 -45.5t-42 -16.5
z" />
    <glyph glyph-name="periodcentered" unicode="&#xb7;" horiz-adv-x="260" 
d="M130 184q-34 0 -58 24t-24 58t24 58t58 24t58 -24t24 -58t-24 -58t-58 -24z" />
    <glyph glyph-name="cedilla" unicode="&#xb8;" horiz-adv-x="454" 
d="M257 -138q-6 -20 -20 -29.5t-31 -9.5q-22 0 -39.5 13t-17.5 37q0 12 5 25l39 102q4 10 14 10h91q10 0 7 -10z" />
    <glyph glyph-name="onesuperior" unicode="&#xb9;" horiz-adv-x="358" 
d="M204 424q-23 0 -38 15.5t-15 41.5v241h-2l-23 -14q-15 -9 -32 -9q-20 0 -31 13t-11 32q0 12 6 23t18 19l53 33q16 10 32.5 16.5t36.5 6.5q27 0 43 -15.5t16 -47.5v-298q0 -26 -15 -41.5t-38 -15.5z" />
    <glyph glyph-name="ordmasculine" unicode="&#xba;" horiz-adv-x="372" 
d="M186 384q-113 0 -142 88q-5 13 -7 28t-2 36t2 36t7 28q29 88 142 88t142 -88q5 -13 7 -28t2 -36t-2 -36t-7 -28q-29 -88 -142 -88zM186 468q32 0 42 28q5 13 5 40t-5 40q-10 28 -42 28t-42 -28q-5 -13 -5 -40t5 -40q10 -28 42 -28z" />
    <glyph glyph-name="guillemotright" unicode="&#xbb;" horiz-adv-x="564" 
d="M331 63q-20 0 -34 13.5t-14 34.5q0 23 19 42l107 106q5 5 0 10l-107 106q-19 19 -19 42q0 21 14 34.5t34 13.5q24 0 43 -19l140 -140q11 -11 16.5 -20.5t5.5 -21.5t-5.5 -21.5t-16.5 -20.5l-140 -140q-19 -19 -43 -19zM88 63q-20 0 -34 13.5t-14 34.5q0 23 19 42l107 106
q5 5 0 10l-107 106q-19 19 -19 42q0 21 14 34.5t34 13.5q24 0 43 -19l140 -140q11 -11 16.5 -20.5t5.5 -21.5t-5.5 -21.5t-16.5 -20.5l-140 -140q-19 -19 -43 -19z" />
    <glyph glyph-name="onequarter" unicode="&#xbc;" horiz-adv-x="873" 
d="M226 268q-23 0 -38 15.5t-15 41.5v241h-2l-23 -14q-15 -9 -32 -9q-20 0 -31 13t-11 32q0 12 6 23t18 19l53 33q16 10 32.5 16.5t36.5 6.5q27 0 43 -15.5t16 -47.5v-298q0 -26 -15 -41.5t-38 -15.5zM716 -5q-22 0 -36 13.5t-14 37.5v5q0 6 -6 6h-130q-23 0 -35.5 12
t-12.5 32q0 13 4 28.5t14 37.5l96 211q16 36 49 36q21 0 35.5 -13.5t14.5 -36.5q0 -13 -6 -26l-90 -192v-1h61q6 0 6 6v33q0 24 14 38t36 14q21 0 35 -14t14 -38v-33q0 -6 6 -6q20 0 32.5 -12t12.5 -32t-12.5 -32t-32.5 -12q-6 0 -6 -6v-5q0 -24 -14 -37.5t-35 -13.5z
M295 11q-16 -28 -44 -28q-19 0 -31 12.5t-12 31.5q0 14 8 28l355 613q16 28 44 28q19 0 31 -12.5t12 -31.5q0 -14 -8 -28z" />
    <glyph glyph-name="onehalf" unicode="&#xbd;" horiz-adv-x="907" 
d="M226 268q-23 0 -38 15.5t-15 41.5v241h-2l-23 -14q-15 -9 -32 -9q-20 0 -31 13t-11 32q0 12 6 23t18 19l53 33q16 10 32.5 16.5t36.5 6.5q27 0 43 -15.5t16 -47.5v-298q0 -26 -15 -41.5t-38 -15.5zM596 1q-25 0 -38 13.5t-13 33.5q0 18 11 35t29 35l118 123
q14 14 19.5 26t5.5 26q0 17 -11 26t-28 9q-14 0 -24 -6.5t-19 -20.5q-20 -29 -46 -29q-20 0 -33.5 12t-13.5 32q0 11 5 26q11 29 47 51t87 22q61 0 100.5 -32.5t39.5 -89.5q0 -32 -12.5 -56.5t-36.5 -48.5l-95 -97v-1h102q23 0 35.5 -12t12.5 -32t-12.5 -32.5t-35.5 -12.5
h-194zM295 11q-16 -28 -44 -28q-19 0 -31 12.5t-12 31.5q0 14 8 28l355 613q16 28 44 28q19 0 31 -12.5t12 -31.5q0 -14 -8 -28z" />
    <glyph glyph-name="threequarters" unicode="&#xbe;" horiz-adv-x="941" 
d="M764 -5q-22 0 -36 13.5t-14 37.5v5q0 6 -6 6h-130q-23 0 -35.5 12t-12.5 32q0 13 4 28.5t14 37.5l96 211q16 36 49 36q21 0 35.5 -13.5t14.5 -36.5q0 -13 -6 -26l-90 -192v-1h61q6 0 6 6v33q0 24 14 38t36 14q21 0 35 -14t14 -38v-33q0 -6 6 -6q20 0 32.5 -12t12.5 -32
t-12.5 -32t-32.5 -12q-6 0 -6 -6v-5q0 -24 -14 -37.5t-35 -13.5zM346 11q-16 -28 -44 -28q-19 0 -31 12.5t-12 31.5q0 14 8 28l355 613q16 28 44 28q19 0 31 -12.5t12 -31.5q0 -14 -8 -28zM223 266q-45 0 -82 16.5t-50 47.5q-5 13 -5 22q0 18 13 31.5t35 13.5q24 0 47 -27
q14 -17 40 -17q20 0 32 11.5t12 31.5q0 19 -13 30.5t-36 11.5q-22 0 -33.5 12t-11.5 31t11.5 31t33.5 12q17 0 28.5 10t11.5 28q0 19 -11 29t-29 10q-21 0 -36 -15q-11 -11 -21.5 -18t-23.5 -7q-19 0 -32.5 11t-13.5 31q0 9 5 22q11 26 44.5 44.5t81.5 18.5q66 0 103 -32.5
t37 -83.5q0 -22 -9.5 -43.5t-32.5 -38.5v-1q18 -8 34.5 -32t16.5 -62q0 -59 -40 -94t-106 -35z" />
    <glyph glyph-name="questiondown" unicode="&#xbf;" horiz-adv-x="473" 
d="M245.014 286.012q28.998 0 48.4971 -17.999t19.499 -49.9971q0 -23.998 -8.49902 -47.9971q-8.5 -23.998 -35.498 -53.9961l-53.9971 -60.9971q-22.998 -24.998 -31.498 -43.4971q-8.49902 -18.499 -8.49902 -37.4971q0 -28.999 17.999 -47.4971
q17.998 -18.499 47.9961 -18.499q27.999 0 43.998 12.999t25.998 35.998q10.999 22.998 27.498 33.498q16.499 10.499 36.498 10.499q28.998 0 46.4971 -16.499t17.499 -44.4971q0 -12 -5 -26.999q-16.998 -53.9961 -67.9951 -89.4941t-127.992 -35.498
q-44.9971 0 -81.9951 13.999t-63.4961 37.998q-26.499 23.998 -40.998 56.9961t-14.499 71.9961q0 37.998 12.499 68.9961q12.5 30.998 41.498 61.9961l61.9961 68.9951q12.999 13.999 17.999 25.499q5 11.499 5 23.498q0 31.998 20.498 49.9971
q20.499 17.999 48.4971 17.999zM327.009 408.004q0 -33.9971 -23.998 -57.9961q-23.999 -23.998 -57.9971 -23.998t-57.9961 23.998q-23.999 23.999 -23.999 57.9961q0 33.998 23.999 57.9971q23.998 23.998 57.9961 23.998t57.9971 -23.998q23.998 -23.999 23.998 -57.9971
z" />
    <glyph glyph-name="Agrave" unicode="&#xc0;" horiz-adv-x="644" 
d="M33 63q0 15 5 28l184 509q14 41 38 63.5t63 22.5t63.5 -22.5t38.5 -63.5l181 -509q5 -13 5 -28q0 -32 -21.5 -50.5t-49.5 -18.5q-24 0 -42.5 13.5t-26.5 38.5l-28 83h-243l-27 -83q-8 -25 -26.5 -38.5t-42.5 -13.5q-28 0 -49.5 18.5t-21.5 50.5zM402 254l-78 238h-3
l-79 -238h160zM203 817q-17 17 -17 44q0 23 16 36.5t37 13.5q26 0 46 -21l49 -55q19 -21 19 -47q0 -21 -15 -35t-35 -14q-28 0 -47 22z" />
    <glyph glyph-name="Aacute" unicode="&#xc1;" horiz-adv-x="644" 
d="M33 63q0 15 5 28l184 509q14 41 38 63.5t63 22.5t63.5 -22.5t38.5 -63.5l181 -509q5 -13 5 -28q0 -32 -21.5 -50.5t-49.5 -18.5q-24 0 -42.5 13.5t-26.5 38.5l-28 83h-243l-27 -83q-8 -25 -26.5 -38.5t-42.5 -13.5q-28 0 -49.5 18.5t-21.5 50.5zM402 254l-78 238h-3
l-79 -238h160zM374 761q-19 -22 -47 -22q-20 0 -35 14t-15 35q0 27 17 45l51 57q20 21 46 21q21 0 37 -13.5t16 -36.5q0 -27 -17 -44z" />
    <glyph glyph-name="Acircumflex" unicode="&#xc2;" horiz-adv-x="644" 
d="M33 63q0 15 5 28l184 509q14 41 38 63.5t63 22.5t63.5 -22.5t38.5 -63.5l181 -509q5 -13 5 -28q0 -32 -21.5 -50.5t-49.5 -18.5q-24 0 -42.5 13.5t-26.5 38.5l-28 83h-243l-27 -83q-8 -25 -26.5 -38.5t-42.5 -13.5q-28 0 -49.5 18.5t-21.5 50.5zM402 254l-78 238h-3
l-79 -238h160zM421 735q-21 0 -39 18l-59 57h-2l-59 -57q-18 -18 -39 -18q-17 0 -29.5 11t-12.5 29q0 16 12 30l64 74q14 17 29 26.5t36 9.5t36 -9.5t29 -26.5l64 -74q12 -14 12 -30q0 -18 -12.5 -29t-29.5 -11z" />
    <glyph glyph-name="Atilde" unicode="&#xc3;" horiz-adv-x="644" 
d="M33 63q0 15 5 28l184 509q14 41 38 63.5t63 22.5t63.5 -22.5t38.5 -63.5l181 -509q5 -13 5 -28q0 -32 -21.5 -50.5t-49.5 -18.5q-24 0 -42.5 13.5t-26.5 38.5l-28 83h-243l-27 -83q-8 -25 -26.5 -38.5t-42.5 -13.5q-28 0 -49.5 18.5t-21.5 50.5zM402 254l-78 238h-3
l-79 -238h160zM383 748q-22 0 -38 6t-32 16q-17 11 -25.5 14t-17.5 3q-10 0 -16.5 -3.5t-16.5 -12.5q-18 -16 -36 -16q-19 0 -31 12t-12 30q0 20 14 39q23 28 45.5 39t45.5 11q22 0 38 -6t32 -16q17 -11 25.5 -14t17.5 -3q10 0 16.5 3.5t16.5 12.5q18 16 36 16q19 0 31 -12
t12 -30q0 -20 -14 -39q-23 -28 -45.5 -39t-45.5 -11z" />
    <glyph glyph-name="Adieresis" unicode="&#xc4;" horiz-adv-x="644" 
d="M33 63q0 15 5 28l184 509q14 41 38 63.5t63 22.5t63.5 -22.5t38.5 -63.5l181 -509q5 -13 5 -28q0 -32 -21.5 -50.5t-49.5 -18.5q-24 0 -42.5 13.5t-26.5 38.5l-28 83h-243l-27 -83q-8 -25 -26.5 -38.5t-42.5 -13.5q-28 0 -49.5 18.5t-21.5 50.5zM402 254l-78 238h-3
l-79 -238h160zM423 748q-30 0 -51 20.5t-21 50.5t21 50.5t51 20.5q29 0 50 -20.5t21 -50.5t-21 -50.5t-50 -20.5zM222 748q-30 0 -51 20.5t-21 50.5t21 50.5t51 20.5q29 0 50 -20.5t21 -50.5t-21 -50.5t-50 -20.5z" />
    <glyph glyph-name="Aring" unicode="&#xc5;" horiz-adv-x="644" 
d="M33 63q0 15 5 28l184 509q14 41 38 63.5t63 22.5t63.5 -22.5t38.5 -63.5l181 -509q5 -13 5 -28q0 -32 -21.5 -50.5t-49.5 -18.5q-24 0 -42.5 13.5t-26.5 38.5l-28 83h-243l-27 -83q-8 -25 -26.5 -38.5t-42.5 -13.5q-28 0 -49.5 18.5t-21.5 50.5zM402 254l-78 238h-3
l-79 -238h160zM322 712q-47 0 -77.5 30t-30.5 77t30.5 77t77.5 30t77.5 -30t30.5 -77t-30.5 -77t-77.5 -30zM322 771q20 0 33 13.5t13 34.5t-13 34.5t-33 13.5t-33 -13.5t-13 -34.5t13 -34.5t33 -13.5z" />
    <glyph glyph-name="AE" unicode="&#xc6;" horiz-adv-x="925" 
d="M489 0q-29 0 -46.5 17.5t-17.5 46.5v59q0 6 -6 6h-202l-43 -88q-23 -47 -69 -47q-29 0 -51 18.5t-22 50.5q0 19 11 43l257 507q17 35 42 51t65 16h412q31 0 49.5 -18t18.5 -46t-18.5 -46t-49.5 -18h-240q-6 0 -6 -6v-134q0 -6 6 -6h192q31 0 49 -17.5t18 -45.5t-18 -45.5
t-49 -17.5h-192q-6 0 -6 -6v-140q0 -6 6 -6h240q31 0 49.5 -18t18.5 -46t-18.5 -46t-49.5 -18h-330zM277 254h142q6 0 6 6v292h-3z" />
    <glyph glyph-name="Ccedilla" unicode="&#xc7;" horiz-adv-x="575" 
d="M313 -138q-6 -20 -20 -29.5t-31 -9.5q-22 0 -39.5 13t-17.5 37q0 12 5 25l37 97q-66 12 -112.5 52t-68.5 109q-5 17 -9 33t-6 36.5t-3 48t-1 66.5t1 66.5t3 48t6 36.5t9 33q27 84 90 125.5t153 41.5q77 0 131 -31t80 -77q6 -11 9.5 -21.5t3.5 -22.5q0 -29 -19.5 -47.5
t-47.5 -18.5q-19 0 -34.5 8.5t-30.5 29.5q-19 26 -39.5 38t-52.5 12q-42 0 -66.5 -20t-35.5 -55q-3 -9 -5 -19.5t-3.5 -26.5t-2 -40t-0.5 -60t0.5 -60t2 -40t3.5 -26.5t5 -19.5q11 -35 35.5 -55t66.5 -20q32 0 52.5 12t39.5 38q15 21 30.5 29.5t34.5 8.5q28 0 47.5 -18.5
t19.5 -47.5q0 -12 -3.5 -22.5t-9.5 -21.5q-21 -38 -62.5 -66.5t-99.5 -37.5z" />
    <glyph glyph-name="Egrave" unicode="&#xc8;" horiz-adv-x="565" 
d="M65 615q0 29 17 47t47 18h330q31 0 49.5 -18t18.5 -46q0 -27 -18.5 -45t-49.5 -18h-241q-6 0 -6 -6v-135q0 -6 6 -6h193q31 0 49 -17.5t18 -45.5t-18 -45.5t-49 -17.5h-193q-6 0 -6 -6v-141q0 -6 6 -6h241q31 0 49.5 -18t18.5 -45q0 -28 -18.5 -46t-49.5 -18h-330
q-30 0 -47 18t-17 47v550zM183 817q-17 17 -17 44q0 23 16 36.5t37 13.5q26 0 46 -21l49 -55q19 -21 19 -47q0 -21 -15 -35t-35 -14q-28 0 -47 22z" />
    <glyph glyph-name="Eacute" unicode="&#xc9;" horiz-adv-x="565" 
d="M65 615q0 29 17 47t47 18h330q31 0 49.5 -18t18.5 -46q0 -27 -18.5 -45t-49.5 -18h-241q-6 0 -6 -6v-135q0 -6 6 -6h193q31 0 49 -17.5t18 -45.5t-18 -45.5t-49 -17.5h-193q-6 0 -6 -6v-141q0 -6 6 -6h241q31 0 49.5 -18t18.5 -45q0 -28 -18.5 -46t-49.5 -18h-330
q-30 0 -47 18t-17 47v550zM333 761q-19 -22 -47 -22q-20 0 -35 14t-15 35q0 27 17 45l51 57q20 21 46 21q21 0 37 -13.5t16 -36.5q0 -27 -17 -44z" />
    <glyph glyph-name="Ecircumflex" unicode="&#xca;" horiz-adv-x="565" 
d="M65 615q0 29 17 47t47 18h330q31 0 49.5 -18t18.5 -46q0 -27 -18.5 -45t-49.5 -18h-241q-6 0 -6 -6v-135q0 -6 6 -6h193q31 0 49 -17.5t18 -45.5t-18 -45.5t-49 -17.5h-193q-6 0 -6 -6v-141q0 -6 6 -6h241q31 0 49.5 -18t18.5 -45q0 -28 -18.5 -46t-49.5 -18h-330
q-30 0 -47 18t-17 47v550zM393 735q-21 0 -39 18l-59 57h-2l-59 -57q-18 -18 -39 -18q-17 0 -29.5 11t-12.5 29q0 16 12 30l64 74q14 17 29 26.5t36 9.5t36 -9.5t29 -26.5l64 -74q12 -14 12 -30q0 -18 -12.5 -29t-29.5 -11z" />
    <glyph glyph-name="Edieresis" unicode="&#xcb;" horiz-adv-x="565" 
d="M65 615q0 29 17 47t47 18h330q31 0 49.5 -18t18.5 -46q0 -27 -18.5 -45t-49.5 -18h-241q-6 0 -6 -6v-135q0 -6 6 -6h193q31 0 49 -17.5t18 -45.5t-18 -45.5t-49 -17.5h-193q-6 0 -6 -6v-141q0 -6 6 -6h241q31 0 49.5 -18t18.5 -45q0 -28 -18.5 -46t-49.5 -18h-330
q-30 0 -47 18t-17 47v550zM396 748q-30 0 -51 20.5t-21 50.5t21 50.5t51 20.5q29 0 50 -20.5t21 -50.5t-21 -50.5t-50 -20.5zM195 748q-30 0 -51 20.5t-21 50.5t21 50.5t51 20.5q29 0 50 -20.5t21 -50.5t-21 -50.5t-50 -20.5z" />
    <glyph glyph-name="Igrave" unicode="&#xcc;" horiz-adv-x="277" 
d="M65 608q0 35 21 56.5t53 21.5t52.5 -21.5t20.5 -56.5v-536q0 -35 -20.5 -56.5t-52.5 -21.5t-53 21.5t-21 56.5v536zM31 817q-17 17 -17 44q0 23 16 36.5t37 13.5q26 0 46 -21l49 -55q19 -21 19 -47q0 -21 -15 -35t-35 -14q-28 0 -47 22z" />
    <glyph glyph-name="Iacute" unicode="&#xcd;" horiz-adv-x="277" 
d="M65 608q0 35 21 56.5t53 21.5t52.5 -21.5t20.5 -56.5v-536q0 -35 -20.5 -56.5t-52.5 -21.5t-53 21.5t-21 56.5v536zM191 761q-19 -22 -47 -22q-20 0 -35 14t-15 35q0 27 17 45l51 57q20 21 46 21q21 0 37 -13.5t16 -36.5q0 -27 -17 -44z" />
    <glyph glyph-name="Icircumflex" unicode="&#xce;" horiz-adv-x="277" 
d="M65 608q0 35 21 56.5t53 21.5t52.5 -21.5t20.5 -56.5v-536q0 -35 -20.5 -56.5t-52.5 -21.5t-53 21.5t-21 56.5v536zM239 735q-21 0 -39 18l-59 57h-2l-59 -57q-18 -18 -39 -18q-17 0 -29.5 11t-12.5 29q0 16 12 30l64 74q14 17 29 26.5t36 9.5t36 -9.5t29 -26.5l64 -74
q12 -14 12 -30q0 -18 -12.5 -29t-29.5 -11z" />
    <glyph glyph-name="Idieresis" unicode="&#xcf;" horiz-adv-x="277" 
d="M65 608q0 35 21 56.5t53 21.5t52.5 -21.5t20.5 -56.5v-536q0 -35 -20.5 -56.5t-52.5 -21.5t-53 21.5t-21 56.5v536zM240 748q-30 0 -51 20.5t-21 50.5t21 50.5t51 20.5q29 0 50 -20.5t21 -50.5t-21 -50.5t-50 -20.5zM39 748q-30 0 -51 20.5t-21 50.5t21 50.5t51 20.5
q29 0 50 -20.5t21 -50.5t-21 -50.5t-50 -20.5z" />
    <glyph glyph-name="Eth" unicode="&#xd0;" horiz-adv-x="628" 
d="M129 0q-30 0 -47 17.5t-17 46.5v219q0 6 -6 6h-5q-24 0 -39 15t-15 39t15 39t39 15h5q6 0 6 6v212q0 29 17 47t47 18h161q109 0 176.5 -36.5t94.5 -120.5q5 -15 8.5 -31.5t6 -38t4 -49.5t1.5 -64t-1.5 -64t-4 -49.5t-6 -38t-8.5 -31.5q-27 -84 -94.5 -120.5t-176.5 -36.5
h-161zM286 131q51 0 86 18t48 59q5 17 8.5 48.5t3.5 83.5t-3.5 83.5t-8.5 48.5q-13 41 -48 59t-86 18h-67q-6 0 -6 -6v-140q0 -6 6 -6h45q26 0 41.5 -15t15.5 -39t-15.5 -39t-41.5 -15h-45q-6 0 -6 -6v-146q0 -6 6 -6h67z" />
    <glyph glyph-name="Ntilde" unicode="&#xd1;" horiz-adv-x="655" 
d="M65 598q0 41 22 64.5t60 23.5q32 0 54.5 -18.5t42.5 -53.5l208 -371h4v372q0 34 18.5 52.5t48.5 18.5t48.5 -18.5t18.5 -52.5v-533q0 -41 -22 -64.5t-60 -23.5q-32 0 -54.5 18.5t-42.5 53.5l-208 370h-4v-371q0 -34 -18.5 -52.5t-48.5 -18.5t-48.5 18.5t-18.5 52.5v533z
M392 748q-22 0 -38 6t-32 16q-17 11 -25.5 14t-17.5 3q-10 0 -16.5 -3.5t-16.5 -12.5q-18 -16 -36 -16q-19 0 -31 12t-12 30q0 20 14 39q23 28 45.5 39t45.5 11q22 0 38 -6t32 -16q17 -11 25.5 -14t17.5 -3q10 0 16.5 3.5t16.5 12.5q18 16 36 16q19 0 31 -12t12 -30
q0 -20 -14 -39q-23 -28 -45.5 -39t-45.5 -11z" />
    <glyph glyph-name="Ograve" unicode="&#xd2;" horiz-adv-x="628" 
d="M314 -11q-90 0 -155.5 41t-92.5 124q-6 18 -9.5 35t-5.5 38t-3 48t-1 65q0 37 1 64t3 48t5.5 38.5t9.5 35.5q27 83 92.5 124t155.5 41t155.5 -41t92.5 -124q6 -18 9.5 -35.5t5.5 -38.5t3 -48t1 -64q0 -38 -1 -65t-3 -48t-5.5 -38t-9.5 -35q-27 -83 -92.5 -124t-155.5 -41
zM314 119q42 0 69 19.5t38 54.5q3 9 5 21t3.5 29t2 40.5t0.5 56.5t-0.5 56.5t-2 40.5t-3.5 29t-5 21q-11 35 -38 54.5t-69 19.5t-69 -19.5t-38 -54.5q-3 -9 -5 -21t-3.5 -29t-2 -40.5t-0.5 -56.5t0.5 -56.5t2 -40.5t3.5 -29t5 -21q11 -35 38 -54.5t69 -19.5zM208 817
q-17 17 -17 44q0 23 16 36.5t37 13.5q26 0 46 -21l49 -55q19 -21 19 -47q0 -21 -15 -35t-35 -14q-28 0 -47 22z" />
    <glyph glyph-name="Oacute" unicode="&#xd3;" horiz-adv-x="628" 
d="M314 -11q-90 0 -155.5 41t-92.5 124q-6 18 -9.5 35t-5.5 38t-3 48t-1 65q0 37 1 64t3 48t5.5 38.5t9.5 35.5q27 83 92.5 124t155.5 41t155.5 -41t92.5 -124q6 -18 9.5 -35.5t5.5 -38.5t3 -48t1 -64q0 -38 -1 -65t-3 -48t-5.5 -38t-9.5 -35q-27 -83 -92.5 -124t-155.5 -41
zM314 119q42 0 69 19.5t38 54.5q3 9 5 21t3.5 29t2 40.5t0.5 56.5t-0.5 56.5t-2 40.5t-3.5 29t-5 21q-11 35 -38 54.5t-69 19.5t-69 -19.5t-38 -54.5q-3 -9 -5 -21t-3.5 -29t-2 -40.5t-0.5 -56.5t0.5 -56.5t2 -40.5t3.5 -29t5 -21q11 -35 38 -54.5t69 -19.5zM364 761
q-19 -22 -47 -22q-20 0 -35 14t-15 35q0 27 17 45l51 57q20 21 46 21q21 0 37 -13.5t16 -36.5q0 -27 -17 -44z" />
    <glyph glyph-name="Ocircumflex" unicode="&#xd4;" horiz-adv-x="628" 
d="M314 -11q-90 0 -155.5 41t-92.5 124q-6 18 -9.5 35t-5.5 38t-3 48t-1 65q0 37 1 64t3 48t5.5 38.5t9.5 35.5q27 83 92.5 124t155.5 41t155.5 -41t92.5 -124q6 -18 9.5 -35.5t5.5 -38.5t3 -48t1 -64q0 -38 -1 -65t-3 -48t-5.5 -38t-9.5 -35q-27 -83 -92.5 -124t-155.5 -41
zM314 119q42 0 69 19.5t38 54.5q3 9 5 21t3.5 29t2 40.5t0.5 56.5t-0.5 56.5t-2 40.5t-3.5 29t-5 21q-11 35 -38 54.5t-69 19.5t-69 -19.5t-38 -54.5q-3 -9 -5 -21t-3.5 -29t-2 -40.5t-0.5 -56.5t0.5 -56.5t2 -40.5t3.5 -29t5 -21q11 -35 38 -54.5t69 -19.5zM413 735
q-21 0 -39 18l-59 57h-2l-59 -57q-18 -18 -39 -18q-17 0 -29.5 11t-12.5 29q0 16 12 30l64 74q14 17 29 26.5t36 9.5t36 -9.5t29 -26.5l64 -74q12 -14 12 -30q0 -18 -12.5 -29t-29.5 -11z" />
    <glyph glyph-name="Otilde" unicode="&#xd5;" horiz-adv-x="628" 
d="M314 -11q-90 0 -155.5 41t-92.5 124q-6 18 -9.5 35t-5.5 38t-3 48t-1 65q0 37 1 64t3 48t5.5 38.5t9.5 35.5q27 83 92.5 124t155.5 41t155.5 -41t92.5 -124q6 -18 9.5 -35.5t5.5 -38.5t3 -48t1 -64q0 -38 -1 -65t-3 -48t-5.5 -38t-9.5 -35q-27 -83 -92.5 -124t-155.5 -41
zM314 119q42 0 69 19.5t38 54.5q3 9 5 21t3.5 29t2 40.5t0.5 56.5t-0.5 56.5t-2 40.5t-3.5 29t-5 21q-11 35 -38 54.5t-69 19.5t-69 -19.5t-38 -54.5q-3 -9 -5 -21t-3.5 -29t-2 -40.5t-0.5 -56.5t0.5 -56.5t2 -40.5t3.5 -29t5 -21q11 -35 38 -54.5t69 -19.5zM374 748
q-22 0 -38 6t-32 16q-17 11 -25.5 14t-17.5 3q-10 0 -16.5 -3.5t-16.5 -12.5q-18 -16 -36 -16q-19 0 -31 12t-12 30q0 20 14 39q23 28 45.5 39t45.5 11q22 0 38 -6t32 -16q17 -11 25.5 -14t17.5 -3q10 0 16.5 3.5t16.5 12.5q18 16 36 16q19 0 31 -12t12 -30q0 -20 -14 -39
q-23 -28 -45.5 -39t-45.5 -11z" />
    <glyph glyph-name="Odieresis" unicode="&#xd6;" horiz-adv-x="628" 
d="M314 -11q-90 0 -155.5 41t-92.5 124q-6 18 -9.5 35t-5.5 38t-3 48t-1 65q0 37 1 64t3 48t5.5 38.5t9.5 35.5q27 83 92.5 124t155.5 41t155.5 -41t92.5 -124q6 -18 9.5 -35.5t5.5 -38.5t3 -48t1 -64q0 -38 -1 -65t-3 -48t-5.5 -38t-9.5 -35q-27 -83 -92.5 -124t-155.5 -41
zM314 119q42 0 69 19.5t38 54.5q3 9 5 21t3.5 29t2 40.5t0.5 56.5t-0.5 56.5t-2 40.5t-3.5 29t-5 21q-11 35 -38 54.5t-69 19.5t-69 -19.5t-38 -54.5q-3 -9 -5 -21t-3.5 -29t-2 -40.5t-0.5 -56.5t0.5 -56.5t2 -40.5t3.5 -29t5 -21q11 -35 38 -54.5t69 -19.5zM415 748
q-30 0 -51 20.5t-21 50.5t21 50.5t51 20.5q29 0 50 -20.5t21 -50.5t-21 -50.5t-50 -20.5zM214 748q-30 0 -51 20.5t-21 50.5t21 50.5t51 20.5q29 0 50 -20.5t21 -50.5t-21 -50.5t-50 -20.5z" />
    <glyph glyph-name="multiply" unicode="&#xd7;" 
d="M448 187q22 -22 22 -46q0 -23 -15 -40t-41 -17q-25 0 -47 22l-85 85q-4 5 -8 0l-84 -84q-22 -22 -47 -22q-26 0 -41 17t-15 40q0 22 22 46l84 84q5 4 0 8l-85 85q-22 22 -22 46q0 23 15 40t41 17q25 0 47 -22l85 -85q4 -5 8 0l84 84q22 22 47 22q26 0 41 -17t15 -40
q0 -22 -22 -46l-84 -84q-5 -4 0 -8z" />
    <glyph glyph-name="Oslash" unicode="&#xd8;" horiz-adv-x="628" 
d="M142 -13q-14 -23 -37 -23q-16 0 -27.5 10.5t-11.5 28.5q0 13 8 26l31 50q-12 16 -22 34.5t-17 40.5q-6 18 -9.5 35t-5.5 38t-3 48t-1 65q0 37 1 64t3 48t5.5 38.5t9.5 35.5q27 83 92.5 124t155.5 41q86 0 148 -37l24 39q14 23 37 23q16 0 27.5 -10.5t11.5 -28.5
q0 -13 -8 -26l-31 -51q24 -31 39 -74q6 -18 9.5 -35.5t5.5 -38.5t3 -48t1 -64q0 -38 -1 -65t-3 -48t-5.5 -38t-9.5 -35q-27 -83 -92.5 -124t-155.5 -41q-87 0 -148 36zM194 340q0 -43 1 -70.5t3 -45.5l190 315q-29 23 -74 23q-42 0 -70 -19.5t-39 -54.5q-3 -9 -5 -21
t-3.5 -29.5t-2 -41t-0.5 -56.5zM314 118q42 0 70 19.5t39 54.5q3 9 5 21t3.5 29.5t2 41t0.5 56.5q0 42 -1 69t-3 45l-189 -314q28 -22 73 -22z" />
    <glyph glyph-name="Ugrave" unicode="&#xd9;" horiz-adv-x="645" 
d="M323 -11q-60 0 -108 17t-82 50t-52.5 82t-18.5 113v357q0 35 21 56.5t53 21.5t52.5 -21.5t20.5 -56.5v-362q0 -62 32.5 -94.5t81.5 -32.5q51 0 82 33t31 94v362q0 35 20.5 56.5t52.5 21.5t53 -21.5t21 -56.5v-357q0 -64 -19 -113t-53.5 -82t-82.5 -50t-105 -17zM221 817
q-17 17 -17 44q0 23 16 36.5t37 13.5q26 0 46 -21l49 -55q19 -21 19 -47q0 -21 -15 -35t-35 -14q-28 0 -47 22z" />
    <glyph glyph-name="Uacute" unicode="&#xda;" horiz-adv-x="645" 
d="M323 -11q-60 0 -108 17t-82 50t-52.5 82t-18.5 113v357q0 35 21 56.5t53 21.5t52.5 -21.5t20.5 -56.5v-362q0 -62 32.5 -94.5t81.5 -32.5q51 0 82 33t31 94v362q0 35 20.5 56.5t52.5 21.5t53 -21.5t21 -56.5v-357q0 -64 -19 -113t-53.5 -82t-82.5 -50t-105 -17zM369 761
q-19 -22 -47 -22q-20 0 -35 14t-15 35q0 27 17 45l51 57q20 21 46 21q21 0 37 -13.5t16 -36.5q0 -27 -17 -44z" />
    <glyph glyph-name="Ucircumflex" unicode="&#xdb;" horiz-adv-x="645" 
d="M323 -11q-60 0 -108 17t-82 50t-52.5 82t-18.5 113v357q0 35 21 56.5t53 21.5t52.5 -21.5t20.5 -56.5v-362q0 -62 32.5 -94.5t81.5 -32.5q51 0 82 33t31 94v362q0 35 20.5 56.5t52.5 21.5t53 -21.5t21 -56.5v-357q0 -64 -19 -113t-53.5 -82t-82.5 -50t-105 -17zM421 735
q-21 0 -39 18l-59 57h-2l-59 -57q-18 -18 -39 -18q-17 0 -29.5 11t-12.5 29q0 16 12 30l64 74q14 17 29 26.5t36 9.5t36 -9.5t29 -26.5l64 -74q12 -14 12 -30q0 -18 -12.5 -29t-29.5 -11z" />
    <glyph glyph-name="Udieresis" unicode="&#xdc;" horiz-adv-x="645" 
d="M323 -11q-60 0 -108 17t-82 50t-52.5 82t-18.5 113v357q0 35 21 56.5t53 21.5t52.5 -21.5t20.5 -56.5v-362q0 -62 32.5 -94.5t81.5 -32.5q51 0 82 33t31 94v362q0 35 20.5 56.5t52.5 21.5t53 -21.5t21 -56.5v-357q0 -64 -19 -113t-53.5 -82t-82.5 -50t-105 -17zM423 748
q-30 0 -51 20.5t-21 50.5t21 50.5t51 20.5q29 0 50 -20.5t21 -50.5t-21 -50.5t-50 -20.5zM222 748q-30 0 -51 20.5t-21 50.5t21 50.5t51 20.5q29 0 50 -20.5t21 -50.5t-21 -50.5t-50 -20.5z" />
    <glyph glyph-name="Yacute" unicode="&#xdd;" horiz-adv-x="567" 
d="M283 -6q-31 0 -52 21t-21 57v198l-174 310q-11 20 -11 40q0 29 20 47.5t49 18.5q41 0 65 -44l124 -233h3l125 233q23 44 65 44q29 0 48 -18.5t19 -47.5q0 -20 -11 -40l-175 -310v-198q0 -36 -21 -57t-53 -21zM331 761q-19 -22 -47 -22q-20 0 -35 14t-15 35q0 27 17 45
l51 57q20 21 46 21q21 0 37 -13.5t16 -36.5q0 -27 -17 -44z" />
    <glyph glyph-name="Thorn" unicode="&#xde;" horiz-adv-x="605" 
d="M139 -6q-32 0 -53 21.5t-21 56.5v536q0 35 21 56.5t53 21.5t52.5 -21.5t20.5 -56.5v-30q0 -6 6 -6h121q56 0 100 -16t74.5 -45t46.5 -69t16 -89q0 -48 -16 -88.5t-47 -69t-75 -44.5t-99 -16h-121q-6 0 -6 -6v-57q0 -35 -20.5 -56.5t-52.5 -21.5zM330 262q47 0 73 24.5
t26 66.5t-26 67t-73 25h-112q-6 0 -6 -6v-171q0 -6 6 -6h112z" />
    <glyph glyph-name="germandbls" unicode="&#xdf;" horiz-adv-x="562" 
d="M324 -4q-29 0 -44.5 16t-15.5 41q0 26 16 40.5t43 18.5q20 3 33.5 12t18.5 28q2 8 4 23.5t2 51.5q0 38 -3 57t-6 28q-6 20 -20.5 28.5t-34.5 8.5q-29 0 -45.5 16t-16.5 41q0 26 16.5 42t45.5 16q55 0 55 55q0 56 -80 56q-47 0 -68 -20.5t-21 -66.5v-420q0 -35 -20 -54.5
t-50 -19.5q-31 0 -50.5 19.5t-19.5 54.5v417q0 97 53.5 151.5t173.5 54.5q106 0 164 -43.5t58 -123.5q0 -73 -57 -113v-2q37 -19 53 -68q6 -19 9.5 -47t3.5 -69q0 -46 -3.5 -75.5t-10.5 -49.5q-17 -54 -61 -79t-122 -25z" />
    <glyph glyph-name="agrave" unicode="&#xe0;" horiz-adv-x="528" 
d="M491 100q12 -20 12 -41q0 -28 -20.5 -46.5t-49.5 -18.5q-38 0 -57 27l-12 17h-1q-19 -23 -55.5 -36t-81.5 -13q-94 0 -139 39.5t-45 108.5q0 80 55 118t145 38h87q6 0 6 6v5q0 34 -24 53t-75 19q-23 0 -43.5 -4.5t-34.5 -9.5q-9 -3 -17 -5t-16 -2q-25 0 -40.5 15
t-15.5 41q0 16 8 31t28 25q24 12 60.5 20t87.5 8q110 0 163 -52t53 -143v-132q0 -17 2 -27t7 -19zM245 94q90 0 90 67v33q0 6 -6 6h-68q-86 0 -86 -55q0 -51 70 -51zM274 540q-28 0 -47 25l-44 59q-8 11 -10.5 19.5t-2.5 20.5q0 23 16.5 37t36.5 14q29 0 47 -24l43 -61
q8 -11 10.5 -20.5t2.5 -20.5q0 -23 -15 -36t-37 -13z" />
    <glyph glyph-name="aacute" unicode="&#xe1;" horiz-adv-x="528" 
d="M491 100q12 -20 12 -41q0 -28 -20.5 -46.5t-49.5 -18.5q-38 0 -57 27l-12 17h-1q-19 -23 -55.5 -36t-81.5 -13q-94 0 -139 39.5t-45 108.5q0 80 55 118t145 38h87q6 0 6 6v5q0 34 -24 53t-75 19q-23 0 -43.5 -4.5t-34.5 -9.5q-9 -3 -17 -5t-16 -2q-25 0 -40.5 15
t-15.5 41q0 16 8 31t28 25q24 12 60.5 20t87.5 8q110 0 163 -52t53 -143v-132q0 -17 2 -27t7 -19zM245 94q90 0 90 67v33q0 6 -6 6h-68q-86 0 -86 -55q0 -51 70 -51zM313 565q-19 -25 -47 -25q-22 0 -37 13t-15 36q0 11 2.5 20.5t10.5 20.5l43 61q18 24 47 24q20 0 36.5 -14
t16.5 -37q0 -12 -2.5 -20.5t-10.5 -19.5z" />
    <glyph glyph-name="acircumflex" unicode="&#xe2;" horiz-adv-x="528" 
d="M491 100q12 -20 12 -41q0 -28 -20.5 -46.5t-49.5 -18.5q-38 0 -57 27l-12 17h-1q-19 -23 -55.5 -36t-81.5 -13q-94 0 -139 39.5t-45 108.5q0 80 55 118t145 38h87q6 0 6 6v5q0 34 -24 53t-75 19q-23 0 -43.5 -4.5t-34.5 -9.5q-9 -3 -17 -5t-16 -2q-25 0 -40.5 15
t-15.5 41q0 16 8 31t28 25q24 12 60.5 20t87.5 8q110 0 163 -52t53 -143v-132q0 -17 2 -27t7 -19zM245 94q90 0 90 67v33q0 6 -6 6h-68q-86 0 -86 -55q0 -51 70 -51zM363 538q-21 0 -39 18l-59 57h-2l-59 -57q-18 -18 -39 -18q-17 0 -29.5 11t-12.5 29q0 16 12 30l64 74
q14 17 29 26.5t36 9.5t36 -9.5t29 -26.5l64 -74q12 -14 12 -30q0 -18 -12.5 -29t-29.5 -11z" />
    <glyph glyph-name="atilde" unicode="&#xe3;" horiz-adv-x="528" 
d="M491 100q12 -20 12 -41q0 -28 -20.5 -46.5t-49.5 -18.5q-38 0 -57 27l-12 17h-1q-19 -23 -55.5 -36t-81.5 -13q-94 0 -139 39.5t-45 108.5q0 80 55 118t145 38h87q6 0 6 6v5q0 34 -24 53t-75 19q-23 0 -43.5 -4.5t-34.5 -9.5q-9 -3 -17 -5t-16 -2q-25 0 -40.5 15
t-15.5 41q0 16 8 31t28 25q24 12 60.5 20t87.5 8q110 0 163 -52t53 -143v-132q0 -17 2 -27t7 -19zM245 94q90 0 90 67v33q0 6 -6 6h-68q-86 0 -86 -55q0 -51 70 -51zM323 553q-22 0 -38 6t-32 16q-17 11 -25.5 14t-17.5 3q-10 0 -16.5 -3.5t-16.5 -12.5q-18 -16 -36 -16
q-19 0 -31 12t-12 30q0 20 14 39q23 28 45.5 39t45.5 11q22 0 38 -6t32 -16q17 -11 25.5 -14t17.5 -3q10 0 16.5 3.5t16.5 12.5q18 16 36 16q19 0 31 -12t12 -30q0 -20 -14 -39q-23 -28 -45.5 -39t-45.5 -11z" />
    <glyph glyph-name="adieresis" unicode="&#xe4;" horiz-adv-x="528" 
d="M491 100q12 -20 12 -41q0 -28 -20.5 -46.5t-49.5 -18.5q-38 0 -57 27l-12 17h-1q-19 -23 -55.5 -36t-81.5 -13q-94 0 -139 39.5t-45 108.5q0 80 55 118t145 38h87q6 0 6 6v5q0 34 -24 53t-75 19q-23 0 -43.5 -4.5t-34.5 -9.5q-9 -3 -17 -5t-16 -2q-25 0 -40.5 15
t-15.5 41q0 16 8 31t28 25q24 12 60.5 20t87.5 8q110 0 163 -52t53 -143v-132q0 -17 2 -27t7 -19zM245 94q90 0 90 67v33q0 6 -6 6h-68q-86 0 -86 -55q0 -51 70 -51zM365 543q-30 0 -51 21t-21 51q0 29 21 50t51 21q29 0 50 -21t21 -50q0 -30 -21 -51t-50 -21zM164 543
q-30 0 -51 21t-21 51q0 29 21 50t51 21q29 0 50 -21t21 -50q0 -30 -21 -51t-50 -21z" />
    <glyph glyph-name="aring" unicode="&#xe5;" horiz-adv-x="528" 
d="M491 100q12 -20 12 -41q0 -28 -20.5 -46.5t-49.5 -18.5q-38 0 -57 27l-12 17h-1q-19 -23 -55.5 -36t-81.5 -13q-94 0 -139 39.5t-45 108.5q0 80 55 118t145 38h87q6 0 6 6v5q0 34 -24 53t-75 19q-23 0 -43.5 -4.5t-34.5 -9.5q-9 -3 -17 -5t-16 -2q-25 0 -40.5 15
t-15.5 41q0 16 8 31t28 25q24 12 60.5 20t87.5 8q110 0 163 -52t53 -143v-132q0 -17 2 -27t7 -19zM245 94q90 0 90 67v33q0 6 -6 6h-68q-86 0 -86 -55q0 -51 70 -51zM266 524q-47 0 -77.5 30t-30.5 77t30.5 77t77.5 30t77.5 -30t30.5 -77t-30.5 -77t-77.5 -30zM266 583
q20 0 33 13.5t13 34.5t-13 34.5t-33 13.5t-33 -13.5t-13 -34.5t13 -34.5t33 -13.5z" />
    <glyph glyph-name="ae" unicode="&#xe6;" horiz-adv-x="816" 
d="M560 -11q-53 0 -95.5 15t-71.5 44h-1q-35 -35 -73.5 -47t-92.5 -12q-94 0 -139 39.5t-45 108.5q0 80 55 118t145 38h87q6 0 6 6v5q0 34 -24 53t-75 19q-23 0 -43.5 -4.5t-34.5 -9.5q-9 -3 -17 -5t-16 -2q-25 0 -40.5 15t-15.5 41q0 16 8 31t28 25q24 12 60.5 20t87.5 8
q101 0 154 -45h1q29 23 65 34t79 11q81 0 134.5 -35.5t74.5 -100.5q8 -26 12 -52.5t4 -60.5q0 -20 -12 -33t-34 -13h-257q-6 0 -6 -6q0 -13 5 -28q10 -31 36 -47t64 -16q25 0 48 7t43 18q25 15 48 15q22 0 36.5 -14.5t14.5 -37.5q0 -31 -28 -50q-35 -24 -76.5 -38t-98.5 -14
zM633 293q6 0 6 6q0 12 -1.5 20t-3.5 16q-8 26 -29.5 39.5t-51.5 13.5t-51 -13.5t-29 -39.5q-2 -8 -3.5 -16t-1.5 -20q0 -6 6 -6h159zM245 94q90 0 90 67v33q0 6 -6 6h-68q-86 0 -86 -55q0 -51 70 -51z" />
    <glyph glyph-name="ccedilla" unicode="&#xe7;" horiz-adv-x="477" 
d="M261 -138q-6 -20 -20 -29.5t-31 -9.5q-22 0 -39.5 13t-17.5 37q0 12 5 25l37 99q-51 12 -87 44.5t-53 85.5q-8 22 -12 49.5t-4 65.5t4 65.5t12 49.5q22 68 75.5 103t130.5 35q51 0 90 -15t62 -38q15 -15 21.5 -28t6.5 -28q0 -26 -17.5 -43t-43.5 -17q-16 0 -29 7.5
t-28 21.5q-23 22 -60 22q-57 0 -73 -53q-5 -14 -7 -33t-2 -49t2 -49t7 -33q16 -53 73 -53q37 0 60 22q15 14 28 21.5t29 7.5q26 0 43.5 -17t17.5 -43q0 -15 -6.5 -28t-21.5 -28q-18 -18 -45 -31t-62 -18z" />
    <glyph glyph-name="egrave" unicode="&#xe8;" horiz-adv-x="527" 
d="M271 -11q-85 0 -140 36t-76 102q-8 23 -12 50t-4 65t3.5 65.5t11.5 50.5q22 66 76.5 101.5t132.5 35.5q81 0 134.5 -35.5t74.5 -100.5q8 -26 12 -52.5t4 -60.5q0 -20 -12 -33t-34 -13h-257q-6 0 -6 -6q0 -13 5 -28q10 -31 36 -47t64 -16q25 0 48 7t43 18q25 15 48 15
q22 0 36.5 -14.5t14.5 -37.5q0 -31 -28 -50q-35 -24 -76.5 -38t-98.5 -14zM344 293q6 0 6 6q0 12 -1.5 20t-3.5 16q-8 26 -29.5 39.5t-51.5 13.5t-51 -13.5t-29 -39.5q-2 -8 -3.5 -16t-1.5 -20q0 -6 6 -6h159zM264 540q-28 0 -47 25l-44 59q-8 11 -10.5 19.5t-2.5 20.5
q0 23 16.5 37t36.5 14q29 0 47 -24l43 -61q8 -11 10.5 -20.5t2.5 -20.5q0 -23 -15 -36t-37 -13z" />
    <glyph glyph-name="eacute" unicode="&#xe9;" horiz-adv-x="527" 
d="M271 -11q-85 0 -140 36t-76 102q-8 23 -12 50t-4 65t3.5 65.5t11.5 50.5q22 66 76.5 101.5t132.5 35.5q81 0 134.5 -35.5t74.5 -100.5q8 -26 12 -52.5t4 -60.5q0 -20 -12 -33t-34 -13h-257q-6 0 -6 -6q0 -13 5 -28q10 -31 36 -47t64 -16q25 0 48 7t43 18q25 15 48 15
q22 0 36.5 -14.5t14.5 -37.5q0 -31 -28 -50q-35 -24 -76.5 -38t-98.5 -14zM344 293q6 0 6 6q0 12 -1.5 20t-3.5 16q-8 26 -29.5 39.5t-51.5 13.5t-51 -13.5t-29 -39.5q-2 -8 -3.5 -16t-1.5 -20q0 -6 6 -6h159zM305 565q-19 -25 -47 -25q-22 0 -37 13t-15 36q0 11 2.5 20.5
t10.5 20.5l43 61q18 24 47 24q20 0 36.5 -14t16.5 -37q0 -12 -2.5 -20.5t-10.5 -19.5z" />
    <glyph glyph-name="ecircumflex" unicode="&#xea;" horiz-adv-x="527" 
d="M271 -11q-85 0 -140 36t-76 102q-8 23 -12 50t-4 65t3.5 65.5t11.5 50.5q22 66 76.5 101.5t132.5 35.5q81 0 134.5 -35.5t74.5 -100.5q8 -26 12 -52.5t4 -60.5q0 -20 -12 -33t-34 -13h-257q-6 0 -6 -6q0 -13 5 -28q10 -31 36 -47t64 -16q25 0 48 7t43 18q25 15 48 15
q22 0 36.5 -14.5t14.5 -37.5q0 -31 -28 -50q-35 -24 -76.5 -38t-98.5 -14zM344 293q6 0 6 6q0 12 -1.5 20t-3.5 16q-8 26 -29.5 39.5t-51.5 13.5t-51 -13.5t-29 -39.5q-2 -8 -3.5 -16t-1.5 -20q0 -6 6 -6h159zM363 538q-21 0 -39 18l-59 57h-2l-59 -57q-18 -18 -39 -18
q-17 0 -29.5 11t-12.5 29q0 16 12 30l64 74q14 17 29 26.5t36 9.5t36 -9.5t29 -26.5l64 -74q12 -14 12 -30q0 -18 -12.5 -29t-29.5 -11z" />
    <glyph glyph-name="edieresis" unicode="&#xeb;" horiz-adv-x="527" 
d="M271 -11q-85 0 -140 36t-76 102q-8 23 -12 50t-4 65t3.5 65.5t11.5 50.5q22 66 76.5 101.5t132.5 35.5q81 0 134.5 -35.5t74.5 -100.5q8 -26 12 -52.5t4 -60.5q0 -20 -12 -33t-34 -13h-257q-6 0 -6 -6q0 -13 5 -28q10 -31 36 -47t64 -16q25 0 48 7t43 18q25 15 48 15
q22 0 36.5 -14.5t14.5 -37.5q0 -31 -28 -50q-35 -24 -76.5 -38t-98.5 -14zM344 293q6 0 6 6q0 12 -1.5 20t-3.5 16q-8 26 -29.5 39.5t-51.5 13.5t-51 -13.5t-29 -39.5q-2 -8 -3.5 -16t-1.5 -20q0 -6 6 -6h159zM365 543q-30 0 -51 21t-21 51q0 29 21 50t51 21q29 0 50 -21
t21 -50q0 -30 -21 -51t-50 -21zM164 543q-30 0 -51 21t-21 51q0 29 21 50t51 21q29 0 50 -21t21 -50q0 -30 -21 -51t-50 -21z" />
    <glyph glyph-name="igrave" unicode="&#xec;" horiz-adv-x="266" 
d="M133 -6q-31 0 -50.5 19.5t-19.5 54.5v348q0 35 19.5 54.5t50.5 19.5q30 0 50 -19.5t20 -54.5v-348q0 -35 -20 -54.5t-50 -19.5zM125 540q-28 0 -47 25l-44 59q-8 11 -10.5 19.5t-2.5 20.5q0 23 16.5 37t36.5 14q29 0 47 -24l43 -61q8 -11 10.5 -20.5t2.5 -20.5
q0 -23 -15 -36t-37 -13z" />
    <glyph glyph-name="iacute" unicode="&#xed;" horiz-adv-x="266" 
d="M133 -6q-31 0 -50.5 19.5t-19.5 54.5v348q0 35 19.5 54.5t50.5 19.5q30 0 50 -19.5t20 -54.5v-348q0 -35 -20 -54.5t-50 -19.5zM190 565q-19 -25 -47 -25q-22 0 -37 13t-15 36q0 11 2.5 20.5t10.5 20.5l43 61q18 24 47 24q20 0 36.5 -14t16.5 -37q0 -12 -2.5 -20.5
t-10.5 -19.5z" />
    <glyph glyph-name="icircumflex" unicode="&#xee;" horiz-adv-x="266" 
d="M133 -6q-31 0 -50.5 19.5t-19.5 54.5v348q0 35 19.5 54.5t50.5 19.5q30 0 50 -19.5t20 -54.5v-348q0 -35 -20 -54.5t-50 -19.5zM233 538q-21 0 -39 18l-59 57h-2l-59 -57q-18 -18 -39 -18q-17 0 -29.5 11t-12.5 29q0 16 12 30l64 74q14 17 29 26.5t36 9.5t36 -9.5
t29 -26.5l64 -74q12 -14 12 -30q0 -18 -12.5 -29t-29.5 -11z" />
    <glyph glyph-name="idieresis" unicode="&#xef;" horiz-adv-x="266" 
d="M133 -6q-31 0 -50.5 19.5t-19.5 54.5v348q0 35 19.5 54.5t50.5 19.5q30 0 50 -19.5t20 -54.5v-348q0 -35 -20 -54.5t-50 -19.5zM235 543q-30 0 -51 21t-21 51q0 29 21 50t51 21q29 0 50 -21t21 -50q0 -30 -21 -51t-50 -21zM34 543q-30 0 -51 21t-21 51q0 29 21 50t51 21
q29 0 50 -21t21 -50q0 -30 -21 -51t-50 -21z" />
    <glyph glyph-name="eth" unicode="&#xf0;" horiz-adv-x="530" 
d="M357 547l18 -23q53 -70 84.5 -141.5t31.5 -142.5q0 -35 -3 -62.5t-11 -50.5q-21 -66 -77.5 -102t-134.5 -36q-81 0 -136 36t-75 99q-8 23 -11 47.5t-3 50.5q0 55 14 100q20 59 63.5 93.5t106.5 34.5q17 0 35.5 -4t29.5 -12h2l-59 77l-68 -20q-9 -3 -18 -3
q-20 0 -31.5 12.5t-11.5 31.5q0 14 9 26.5t28 17.5l35 10q-6 9 -10 19.5t-4 19.5q0 26 16.5 43.5t45.5 17.5q20 0 31.5 -8.5t23.5 -24.5l22 -30l72 21q9 3 18 3q20 0 31.5 -13t11.5 -32q0 -14 -9 -26t-28 -17zM265 107q59 0 76 52q9 28 9 63t-9 64q-17 52 -76 52
q-58 0 -75 -52q-9 -29 -9 -64t9 -63q17 -52 75 -52z" />
    <glyph glyph-name="ntilde" unicode="&#xf1;" horiz-adv-x="553" 
d="M424 -6q-30 0 -50 19.5t-20 54.5v220q0 40 -19 64t-57 24t-56.5 -24t-18.5 -64v-220q0 -35 -20 -54.5t-50 -19.5q-31 0 -50.5 19.5t-19.5 54.5v348q0 35 19.5 54.5t50.5 19.5q25 0 43 -13.5t24 -37.5h1q18 23 49.5 39.5t78.5 16.5q40 0 71 -13.5t52 -37.5t31.5 -57
t10.5 -72v-247q0 -35 -19.5 -54.5t-50.5 -19.5zM336 553q-22 0 -38 6t-32 16q-17 11 -25.5 14t-17.5 3q-10 0 -16.5 -3.5t-16.5 -12.5q-18 -16 -36 -16q-19 0 -31 12t-12 30q0 20 14 39q23 28 45.5 39t45.5 11q22 0 38 -6t32 -16q17 -11 25.5 -14t17.5 -3q10 0 16.5 3.5
t16.5 12.5q18 16 36 16q19 0 31 -12t12 -30q0 -20 -14 -39q-23 -28 -45.5 -39t-45.5 -11z" />
    <glyph glyph-name="ograve" unicode="&#xf2;" horiz-adv-x="530" 
d="M265 -11q-80 0 -134 36t-76 103q-8 26 -12 52.5t-4 61.5t4 61.5t12 52.5q22 67 76 103t134 36t134 -36t76 -103q8 -26 12 -52.5t4 -61.5t-4 -61.5t-12 -52.5q-22 -67 -76 -103t-134 -36zM265 107q29 0 48 14t27 40q5 16 7 36t2 45t-2 45t-7 36q-8 26 -27 40t-48 14
t-48 -14t-27 -40q-5 -16 -7 -36t-2 -45t2 -45t7 -36q8 -26 27 -40t48 -14zM259 540q-28 0 -47 25l-44 59q-8 11 -10.5 19.5t-2.5 20.5q0 23 16.5 37t36.5 14q29 0 47 -24l43 -61q8 -11 10.5 -20.5t2.5 -20.5q0 -23 -15 -36t-37 -13z" />
    <glyph glyph-name="oacute" unicode="&#xf3;" horiz-adv-x="530" 
d="M265 -11q-80 0 -134 36t-76 103q-8 26 -12 52.5t-4 61.5t4 61.5t12 52.5q22 67 76 103t134 36t134 -36t76 -103q8 -26 12 -52.5t4 -61.5t-4 -61.5t-12 -52.5q-22 -67 -76 -103t-134 -36zM265 107q29 0 48 14t27 40q5 16 7 36t2 45t-2 45t-7 36q-8 26 -27 40t-48 14
t-48 -14t-27 -40q-5 -16 -7 -36t-2 -45t2 -45t7 -36q8 -26 27 -40t48 -14zM318 565q-19 -25 -47 -25q-22 0 -37 13t-15 36q0 11 2.5 20.5t10.5 20.5l43 61q18 24 47 24q20 0 36.5 -14t16.5 -37q0 -12 -2.5 -20.5t-10.5 -19.5z" />
    <glyph glyph-name="ocircumflex" unicode="&#xf4;" horiz-adv-x="530" 
d="M265 -11q-80 0 -134 36t-76 103q-8 26 -12 52.5t-4 61.5t4 61.5t12 52.5q22 67 76 103t134 36t134 -36t76 -103q8 -26 12 -52.5t4 -61.5t-4 -61.5t-12 -52.5q-22 -67 -76 -103t-134 -36zM265 107q29 0 48 14t27 40q5 16 7 36t2 45t-2 45t-7 36q-8 26 -27 40t-48 14
t-48 -14t-27 -40q-5 -16 -7 -36t-2 -45t2 -45t7 -36q8 -26 27 -40t48 -14zM364 538q-21 0 -39 18l-59 57h-2l-59 -57q-18 -18 -39 -18q-17 0 -29.5 11t-12.5 29q0 16 12 30l64 74q14 17 29 26.5t36 9.5t36 -9.5t29 -26.5l64 -74q12 -14 12 -30q0 -18 -12.5 -29t-29.5 -11z
" />
    <glyph glyph-name="otilde" unicode="&#xf5;" horiz-adv-x="530" 
d="M265 -11q-80 0 -134 36t-76 103q-8 26 -12 52.5t-4 61.5t4 61.5t12 52.5q22 67 76 103t134 36t134 -36t76 -103q8 -26 12 -52.5t4 -61.5t-4 -61.5t-12 -52.5q-22 -67 -76 -103t-134 -36zM265 107q29 0 48 14t27 40q5 16 7 36t2 45t-2 45t-7 36q-8 26 -27 40t-48 14
t-48 -14t-27 -40q-5 -16 -7 -36t-2 -45t2 -45t7 -36q8 -26 27 -40t48 -14zM325 553q-22 0 -38 6t-32 16q-17 11 -25.5 14t-17.5 3q-10 0 -16.5 -3.5t-16.5 -12.5q-18 -16 -36 -16q-19 0 -31 12t-12 30q0 20 14 39q23 28 45.5 39t45.5 11q22 0 38 -6t32 -16q17 -11 25.5 -14
t17.5 -3q10 0 16.5 3.5t16.5 12.5q18 16 36 16q19 0 31 -12t12 -30q0 -20 -14 -39q-23 -28 -45.5 -39t-45.5 -11z" />
    <glyph glyph-name="odieresis" unicode="&#xf6;" horiz-adv-x="530" 
d="M265 -11q-80 0 -134 36t-76 103q-8 26 -12 52.5t-4 61.5t4 61.5t12 52.5q22 67 76 103t134 36t134 -36t76 -103q8 -26 12 -52.5t4 -61.5t-4 -61.5t-12 -52.5q-22 -67 -76 -103t-134 -36zM265 107q29 0 48 14t27 40q5 16 7 36t2 45t-2 45t-7 36q-8 26 -27 40t-48 14
t-48 -14t-27 -40q-5 -16 -7 -36t-2 -45t2 -45t7 -36q8 -26 27 -40t48 -14zM366 543q-30 0 -51 21t-21 51q0 29 21 50t51 21q29 0 50 -21t21 -50q0 -30 -21 -51t-50 -21zM165 543q-30 0 -51 21t-21 51q0 29 21 50t51 21q29 0 50 -21t21 -50q0 -30 -21 -51t-50 -21z" />
    <glyph glyph-name="divide" unicode="&#xf7;" 
d="M279 387q-32 0 -54 22t-22 54t22 54t54 22t54 -22t22 -54t-22 -54t-54 -22zM109 217q-29 0 -46 16.5t-17 42.5t17 42.5t46 16.5h338q29 0 46 -16.5t17 -42.5t-17 -42.5t-46 -16.5h-338zM279 13q-32 0 -54 22t-22 54t22 54t54 22t54 -22t22 -54t-22 -54t-54 -22z" />
    <glyph glyph-name="oslash" unicode="&#xf8;" horiz-adv-x="530" 
d="M84 -36q-11 0 -20 8t-9 20t9 24l30 41q-25 28 -39 71q-8 26 -12 52.5t-4 61.5t4 61.5t12 52.5q22 67 76 103t134 36q72 0 122 -29l29 39q12 16 28 16q11 0 20 -8t9 -20t-9 -24l-30 -41q28 -31 41 -72q8 -26 12 -52.5t4 -61.5t-4 -61.5t-12 -52.5q-22 -67 -76 -103
t-134 -36q-74 0 -125 30l-28 -39q-12 -16 -28 -16zM179 242q0 -19 1 -35.5t3 -30.5l130 188q-20 14 -48 14q-29 0 -49 -14t-28 -40q-5 -16 -7 -36.5t-2 -45.5zM265 106q29 0 49 14t28 40q5 16 7 36.5t2 45.5q0 19 -1.5 35t-3.5 30l-129 -188q19 -13 48 -13z" />
    <glyph glyph-name="ugrave" unicode="&#xf9;" horiz-adv-x="549" 
d="M416 -6q-25 0 -43 13.5t-24 37.5h-1q-18 -23 -49.5 -39.5t-78.5 -16.5q-40 0 -70.5 13.5t-50.5 37.5t-30.5 57t-10.5 72v247q0 35 20 54.5t51 19.5q30 0 49.5 -19.5t19.5 -54.5v-220q0 -40 18 -64t56 -24q37 0 55.5 24t18.5 64v220q0 35 19.5 54.5t50.5 19.5
q30 0 50 -19.5t20 -54.5v-348q0 -35 -19.5 -54.5t-50.5 -19.5zM271 540q-28 0 -47 25l-44 59q-8 11 -10.5 19.5t-2.5 20.5q0 23 16.5 37t36.5 14q29 0 47 -24l43 -61q8 -11 10.5 -20.5t2.5 -20.5q0 -23 -15 -36t-37 -13z" />
    <glyph glyph-name="uacute" unicode="&#xfa;" horiz-adv-x="549" 
d="M416 -6q-25 0 -43 13.5t-24 37.5h-1q-18 -23 -49.5 -39.5t-78.5 -16.5q-40 0 -70.5 13.5t-50.5 37.5t-30.5 57t-10.5 72v247q0 35 20 54.5t51 19.5q30 0 49.5 -19.5t19.5 -54.5v-220q0 -40 18 -64t56 -24q37 0 55.5 24t18.5 64v220q0 35 19.5 54.5t50.5 19.5
q30 0 50 -19.5t20 -54.5v-348q0 -35 -19.5 -54.5t-50.5 -19.5zM323 565q-19 -25 -47 -25q-22 0 -37 13t-15 36q0 11 2.5 20.5t10.5 20.5l43 61q18 24 47 24q20 0 36.5 -14t16.5 -37q0 -12 -2.5 -20.5t-10.5 -19.5z" />
    <glyph glyph-name="ucircumflex" unicode="&#xfb;" horiz-adv-x="549" 
d="M416 -6q-25 0 -43 13.5t-24 37.5h-1q-18 -23 -49.5 -39.5t-78.5 -16.5q-40 0 -70.5 13.5t-50.5 37.5t-30.5 57t-10.5 72v247q0 35 20 54.5t51 19.5q30 0 49.5 -19.5t19.5 -54.5v-220q0 -40 18 -64t56 -24q37 0 55.5 24t18.5 64v220q0 35 19.5 54.5t50.5 19.5
q30 0 50 -19.5t20 -54.5v-348q0 -35 -19.5 -54.5t-50.5 -19.5zM373 538q-21 0 -39 18l-59 57h-2l-59 -57q-18 -18 -39 -18q-17 0 -29.5 11t-12.5 29q0 16 12 30l64 74q14 17 29 26.5t36 9.5t36 -9.5t29 -26.5l64 -74q12 -14 12 -30q0 -18 -12.5 -29t-29.5 -11z" />
    <glyph glyph-name="udieresis" unicode="&#xfc;" horiz-adv-x="549" 
d="M416 -6q-25 0 -43 13.5t-24 37.5h-1q-18 -23 -49.5 -39.5t-78.5 -16.5q-40 0 -70.5 13.5t-50.5 37.5t-30.5 57t-10.5 72v247q0 35 20 54.5t51 19.5q30 0 49.5 -19.5t19.5 -54.5v-220q0 -40 18 -64t56 -24q37 0 55.5 24t18.5 64v220q0 35 19.5 54.5t50.5 19.5
q30 0 50 -19.5t20 -54.5v-348q0 -35 -19.5 -54.5t-50.5 -19.5zM375 543q-30 0 -51 21t-21 51q0 29 21 50t51 21q29 0 50 -21t21 -50q0 -30 -21 -51t-50 -21zM174 543q-30 0 -51 21t-21 51q0 29 21 50t51 21q29 0 50 -21t21 -50q0 -30 -21 -51t-50 -21z" />
    <glyph glyph-name="yacute" unicode="&#xfd;" horiz-adv-x="507" 
d="M120 -180q-30 0 -47.5 16.5t-17.5 42.5t17 42.5t48 17.5q23 1 36.5 12t22.5 37l13 36l-155 367q-7 17 -7 33q0 29 20 47.5t49 18.5q25 0 40.5 -13t24.5 -36l93 -247h2l86 247q17 49 64 49q29 0 48.5 -18.5t19.5 -47.5q0 -16 -7 -33l-173 -433q-16 -39 -32.5 -65.5
t-36.5 -42.5t-44.5 -23t-57.5 -7h-6zM308 565q-19 -25 -47 -25q-22 0 -37 13t-15 36q0 11 2.5 20.5t10.5 20.5l43 61q18 24 47 24q20 0 36.5 -14t16.5 -37q0 -12 -2.5 -20.5t-10.5 -19.5z" />
    <glyph glyph-name="thorn" unicode="&#xfe;" horiz-adv-x="551" 
d="M133 -186q-31 0 -50.5 19.5t-19.5 54.5v724q0 35 19.5 54.5t50.5 19.5q30 0 50 -19.5t20 -54.5v-169h1q14 21 44.5 36.5t78.5 15.5q60 0 104.5 -33t63.5 -90q9 -27 13 -58t4 -72t-4 -72t-13 -58q-19 -57 -63.5 -90t-104.5 -33q-48 0 -78.5 15.5t-44.5 36.5h-1v-153
q0 -35 -20 -54.5t-50 -19.5zM286 107q57 0 75 56q9 27 9 79t-9 79q-18 56 -75 56q-56 0 -74 -56q-9 -27 -9 -79t9 -79q18 -56 74 -56z" />
    <glyph glyph-name="ydieresis" unicode="&#xff;" horiz-adv-x="507" 
d="M120 -180q-30 0 -47.5 16.5t-17.5 42.5t17 42.5t48 17.5q23 1 36.5 12t22.5 37l13 36l-155 367q-7 17 -7 33q0 29 20 47.5t49 18.5q25 0 40.5 -13t24.5 -36l93 -247h2l86 247q17 49 64 49q29 0 48.5 -18.5t19.5 -47.5q0 -16 -7 -33l-173 -433q-16 -39 -32.5 -65.5
t-36.5 -42.5t-44.5 -23t-57.5 -7h-6zM355 543q-30 0 -51 21t-21 51q0 29 21 50t51 21q29 0 50 -21t21 -50q0 -30 -21 -51t-50 -21zM154 543q-30 0 -51 21t-21 51q0 29 21 50t51 21q29 0 50 -21t21 -50q0 -30 -21 -51t-50 -21z" />
    <glyph glyph-name="Amacron" unicode="&#x100;" horiz-adv-x="644" 
d="M33 63q0 15 5 28l184 509q14 41 38 63.5t63 22.5t63.5 -22.5t38.5 -63.5l181 -509q5 -13 5 -28q0 -32 -21.5 -50.5t-49.5 -18.5q-24 0 -42.5 13.5t-26.5 38.5l-28 83h-243l-27 -83q-8 -25 -26.5 -38.5t-42.5 -13.5q-28 0 -49.5 18.5t-21.5 50.5zM402 254l-78 238h-3
l-79 -238h160zM216 769q-26 0 -39.5 14t-13.5 35q0 22 13.5 36t39.5 14h213q25 0 38.5 -14t13.5 -36q0 -21 -13.5 -35t-38.5 -14h-213z" />
    <glyph glyph-name="amacron" unicode="&#x101;" horiz-adv-x="528" 
d="M491 100q12 -20 12 -41q0 -28 -20.5 -46.5t-49.5 -18.5q-38 0 -57 27l-12 17h-1q-19 -23 -55.5 -36t-81.5 -13q-94 0 -139 39.5t-45 108.5q0 80 55 118t145 38h87q6 0 6 6v5q0 34 -24 53t-75 19q-23 0 -43.5 -4.5t-34.5 -9.5q-9 -3 -17 -5t-16 -2q-25 0 -40.5 15
t-15.5 41q0 16 8 31t28 25q24 12 60.5 20t87.5 8q110 0 163 -52t53 -143v-132q0 -17 2 -27t7 -19zM245 94q90 0 90 67v33q0 6 -6 6h-68q-86 0 -86 -55q0 -51 70 -51zM158 575q-26 0 -39.5 14t-13.5 35q0 22 13.5 36t39.5 14h213q25 0 38.5 -14t13.5 -36q0 -21 -13.5 -35
t-38.5 -14h-213z" />
    <glyph glyph-name="Abreve" unicode="&#x102;" horiz-adv-x="644" 
d="M33 63q0 15 5 28l184 509q14 41 38 63.5t63 22.5t63.5 -22.5t38.5 -63.5l181 -509q5 -13 5 -28q0 -32 -21.5 -50.5t-49.5 -18.5q-24 0 -42.5 13.5t-26.5 38.5l-28 83h-243l-27 -83q-8 -25 -26.5 -38.5t-42.5 -13.5q-28 0 -49.5 18.5t-21.5 50.5zM402 254l-78 238h-3
l-79 -238h160zM322 743q-32 0 -59 9t-47 25t-31 36.5t-11 44.5q0 18 10.5 29t27.5 11t25 -8t16 -22q11 -19 29 -27t40 -8t40 8t29 27q8 14 16 22t25 8t27.5 -11t10.5 -29q0 -24 -11 -44.5t-31 -36.5t-47 -25t-59 -9z" />
    <glyph glyph-name="abreve" unicode="&#x103;" horiz-adv-x="528" 
d="M491 100q12 -20 12 -41q0 -28 -20.5 -46.5t-49.5 -18.5q-38 0 -57 27l-12 17h-1q-19 -23 -55.5 -36t-81.5 -13q-94 0 -139 39.5t-45 108.5q0 80 55 118t145 38h87q6 0 6 6v5q0 34 -24 53t-75 19q-23 0 -43.5 -4.5t-34.5 -9.5q-9 -3 -17 -5t-16 -2q-25 0 -40.5 15
t-15.5 41q0 16 8 31t28 25q24 12 60.5 20t87.5 8q110 0 163 -52t53 -143v-132q0 -17 2 -27t7 -19zM245 94q90 0 90 67v33q0 6 -6 6h-68q-86 0 -86 -55q0 -51 70 -51zM263 545q-32 0 -59 9t-47 25t-31 36.5t-11 44.5q0 18 10.5 29t27.5 11t25 -8t16 -22q11 -19 29 -27t40 -8
t40 8t29 27q8 14 16 22t25 8t27.5 -11t10.5 -29q0 -24 -11 -44.5t-31 -36.5t-47 -25t-59 -9z" />
    <glyph glyph-name="Aogonek" unicode="&#x104;" horiz-adv-x="644" 
d="M517 -191q-49 0 -77.5 25.5t-28.5 69.5q0 35 19 65.5t52 53.5q-6 9 -11 23l-28 83h-243l-27 -83q-8 -25 -26.5 -38.5t-42.5 -13.5q-28 0 -49.5 18.5t-21.5 50.5q0 15 5 28l184 509q14 41 38 63.5t63 22.5t63.5 -22.5t38.5 -63.5l181 -509q5 -17 5 -29q0 -28 -19 -47
q-21 -21 -35 -35.5t-22.5 -24.5t-11.5 -17.5t-3 -14.5q0 -18 16 -18q6 0 14 3q5 2 10 3t11 1q17 0 28 -12.5t11 -30.5q0 -13 -6 -24.5t-20 -19.5q-27 -16 -67 -16zM242 254h160l-78 238h-3z" />
    <glyph glyph-name="aogonek" unicode="&#x105;" horiz-adv-x="528" 
d="M397 -191q-49 0 -77.5 25t-28.5 69q0 27 19 57.5t68 57.5l-14 20h-1q-19 -23 -55.5 -36t-81.5 -13q-94 0 -139 39.5t-45 108.5q0 80 55 118t145 38h87q6 0 6 6v5q0 34 -24 53t-75 19q-23 0 -43.5 -4.5t-34.5 -9.5q-9 -3 -17 -5t-16 -2q-25 0 -40.5 15t-15.5 41q0 16 8 31
t28 25q24 12 60.5 20t87.5 8q110 0 163 -52t53 -143v-132q0 -17 2 -27t7 -19l13 -22q12 -20 12 -41q0 -30 -24 -50q-24 -19 -39 -32.5t-24 -23.5t-12.5 -17t-3.5 -13q0 -18 16 -18q6 0 14 3q5 2 10 3t11 1q17 0 28 -12.5t11 -30.5q0 -13 -6 -24.5t-20 -19.5q-27 -16 -67 -16
zM245 94q90 0 90 67v33q0 6 -6 6h-68q-86 0 -86 -55q0 -51 70 -51z" />
    <glyph glyph-name="Cacute" unicode="&#x106;" horiz-adv-x="575" 
d="M66 156q-5 17 -9 33t-6 36.5t-3 48t-1 66.5t1 66.5t3 48t6 36.5t9 33q27 84 90 125.5t153 41.5q77 0 131 -31t80 -77q6 -11 9.5 -21.5t3.5 -22.5q0 -29 -19.5 -47.5t-47.5 -18.5q-19 0 -34.5 8.5t-30.5 29.5q-19 26 -39.5 38t-52.5 12q-42 0 -66.5 -20t-35.5 -55
q-3 -9 -5 -19.5t-3.5 -26.5t-2 -40t-0.5 -60t0.5 -60t2 -40t3.5 -26.5t5 -19.5q11 -35 35.5 -55t66.5 -20q32 0 52.5 12t39.5 38q15 21 30.5 29.5t34.5 8.5q28 0 47.5 -18.5t19.5 -47.5q0 -12 -3.5 -22.5t-9.5 -21.5q-26 -46 -80 -77t-131 -31q-90 0 -153 41.5t-90 125.5z
M345 761q-19 -22 -47 -22q-20 0 -35 14t-15 35q0 27 17 45l51 57q20 21 46 21q21 0 37 -13.5t16 -36.5q0 -27 -17 -44z" />
    <glyph glyph-name="cacute" unicode="&#x107;" horiz-adv-x="477" 
d="M261 -11q-77 0 -130.5 35t-75.5 103q-8 22 -12 49.5t-4 65.5t4 65.5t12 49.5q22 68 75.5 103t130.5 35q51 0 90 -15t62 -38q15 -15 21.5 -28t6.5 -28q0 -26 -17.5 -43t-43.5 -17q-16 0 -29 7.5t-28 21.5q-23 22 -60 22q-57 0 -73 -53q-5 -14 -7 -33t-2 -49t2 -49t7 -33
q16 -53 73 -53q37 0 60 22q15 14 28 21.5t29 7.5q26 0 43.5 -17t17.5 -43q0 -15 -6.5 -28t-21.5 -28q-23 -23 -62 -38t-90 -15zM305 565q-19 -25 -47 -25q-22 0 -37 13t-15 36q0 11 2.5 20.5t10.5 20.5l43 61q18 24 47 24q20 0 36.5 -14t16.5 -37q0 -12 -2.5 -20.5
t-10.5 -19.5z" />
    <glyph glyph-name="Ccircumflex" unicode="&#x108;" horiz-adv-x="575" 
d="M66 156q-5 17 -9 33t-6 36.5t-3 48t-1 66.5t1 66.5t3 48t6 36.5t9 33q27 84 90 125.5t153 41.5q77 0 131 -31t80 -77q6 -11 9.5 -21.5t3.5 -22.5q0 -29 -19.5 -47.5t-47.5 -18.5q-19 0 -34.5 8.5t-30.5 29.5q-19 26 -39.5 38t-52.5 12q-42 0 -66.5 -20t-35.5 -55
q-3 -9 -5 -19.5t-3.5 -26.5t-2 -40t-0.5 -60t0.5 -60t2 -40t3.5 -26.5t5 -19.5q11 -35 35.5 -55t66.5 -20q32 0 52.5 12t39.5 38q15 21 30.5 29.5t34.5 8.5q28 0 47.5 -18.5t19.5 -47.5q0 -12 -3.5 -22.5t-9.5 -21.5q-26 -46 -80 -77t-131 -31q-90 0 -153 41.5t-90 125.5z
M405 735q-21 0 -39 18l-59 57h-2l-59 -57q-18 -18 -39 -18q-17 0 -29.5 11t-12.5 29q0 16 12 30l64 74q14 17 29 26.5t36 9.5t36 -9.5t29 -26.5l64 -74q12 -14 12 -30q0 -18 -12.5 -29t-29.5 -11z" />
    <glyph glyph-name="ccircumflex" unicode="&#x109;" horiz-adv-x="477" 
d="M261 -11q-77 0 -130.5 35t-75.5 103q-8 22 -12 49.5t-4 65.5t4 65.5t12 49.5q22 68 75.5 103t130.5 35q51 0 90 -15t62 -38q15 -15 21.5 -28t6.5 -28q0 -26 -17.5 -43t-43.5 -17q-16 0 -29 7.5t-28 21.5q-23 22 -60 22q-57 0 -73 -53q-5 -14 -7 -33t-2 -49t2 -49t7 -33
q16 -53 73 -53q37 0 60 22q15 14 28 21.5t29 7.5q26 0 43.5 -17t17.5 -43q0 -15 -6.5 -28t-21.5 -28q-23 -23 -62 -38t-90 -15zM358 538q-21 0 -39 18l-59 57h-2l-59 -57q-18 -18 -39 -18q-17 0 -29.5 11t-12.5 29q0 16 12 30l64 74q14 17 29 26.5t36 9.5t36 -9.5t29 -26.5
l64 -74q12 -14 12 -30q0 -18 -12.5 -29t-29.5 -11z" />
    <glyph glyph-name="Cdotaccent" unicode="&#x10a;" horiz-adv-x="575" 
d="M66 156q-5 17 -9 33t-6 36.5t-3 48t-1 66.5t1 66.5t3 48t6 36.5t9 33q27 84 90 125.5t153 41.5q77 0 131 -31t80 -77q6 -11 9.5 -21.5t3.5 -22.5q0 -29 -19.5 -47.5t-47.5 -18.5q-19 0 -34.5 8.5t-30.5 29.5q-19 26 -39.5 38t-52.5 12q-42 0 -66.5 -20t-35.5 -55
q-3 -9 -5 -19.5t-3.5 -26.5t-2 -40t-0.5 -60t0.5 -60t2 -40t3.5 -26.5t5 -19.5q11 -35 35.5 -55t66.5 -20q32 0 52.5 12t39.5 38q15 21 30.5 29.5t34.5 8.5q28 0 47.5 -18.5t19.5 -47.5q0 -12 -3.5 -22.5t-9.5 -21.5q-26 -46 -80 -77t-131 -31q-90 0 -153 41.5t-90 125.5z
M306 737q-33 0 -56 23t-23 56t23 56t56 23t56 -23t23 -56t-23 -56t-56 -23z" />
    <glyph glyph-name="cdotaccent" unicode="&#x10b;" horiz-adv-x="477" 
d="M261 -11q-77 0 -130.5 35t-75.5 103q-8 22 -12 49.5t-4 65.5t4 65.5t12 49.5q22 68 75.5 103t130.5 35q51 0 90 -15t62 -38q15 -15 21.5 -28t6.5 -28q0 -26 -17.5 -43t-43.5 -17q-16 0 -29 7.5t-28 21.5q-23 22 -60 22q-57 0 -73 -53q-5 -14 -7 -33t-2 -49t2 -49t7 -33
q16 -53 73 -53q37 0 60 22q15 14 28 21.5t29 7.5q26 0 43.5 -17t17.5 -43q0 -15 -6.5 -28t-21.5 -28q-23 -23 -62 -38t-90 -15zM259 533q-33 0 -56 23t-23 56t23 56t56 23t56 -23t23 -56t-23 -56t-56 -23z" />
    <glyph glyph-name="Ccaron" unicode="&#x10c;" horiz-adv-x="575" 
d="M66 156q-5 17 -9 33t-6 36.5t-3 48t-1 66.5t1 66.5t3 48t6 36.5t9 33q27 84 90 125.5t153 41.5q77 0 131 -31t80 -77q6 -11 9.5 -21.5t3.5 -22.5q0 -29 -19.5 -47.5t-47.5 -18.5q-19 0 -34.5 8.5t-30.5 29.5q-19 26 -39.5 38t-52.5 12q-42 0 -66.5 -20t-35.5 -55
q-3 -9 -5 -19.5t-3.5 -26.5t-2 -40t-0.5 -60t0.5 -60t2 -40t3.5 -26.5t5 -19.5q11 -35 35.5 -55t66.5 -20q32 0 52.5 12t39.5 38q15 21 30.5 29.5t34.5 8.5q28 0 47.5 -18.5t19.5 -47.5q0 -12 -3.5 -22.5t-9.5 -21.5q-26 -46 -80 -77t-131 -31q-90 0 -153 41.5t-90 125.5z
M305 727q-21 0 -36 9.5t-29 26.5l-64 74q-12 13 -12 30q0 18 12.5 29t29.5 11q21 0 39 -18l59 -57h2l59 57q18 18 39 18q17 0 29.5 -11t12.5 -29q0 -17 -12 -30l-64 -74q-14 -17 -29 -26.5t-36 -9.5z" />
    <glyph glyph-name="ccaron" unicode="&#x10d;" horiz-adv-x="477" 
d="M261 -11q-77 0 -130.5 35t-75.5 103q-8 22 -12 49.5t-4 65.5t4 65.5t12 49.5q22 68 75.5 103t130.5 35q51 0 90 -15t62 -38q15 -15 21.5 -28t6.5 -28q0 -26 -17.5 -43t-43.5 -17q-16 0 -29 7.5t-28 21.5q-23 22 -60 22q-57 0 -73 -53q-5 -14 -7 -33t-2 -49t2 -49t7 -33
q16 -53 73 -53q37 0 60 22q15 14 28 21.5t29 7.5q26 0 43.5 -17t17.5 -43q0 -15 -6.5 -28t-21.5 -28q-23 -23 -62 -38t-90 -15zM258 531q-21 0 -36 9.5t-29 26.5l-64 74q-12 13 -12 30q0 18 12.5 29t29.5 11q21 0 39 -18l59 -57h2l59 57q18 18 39 18q17 0 29.5 -11t12.5 -29
q0 -17 -12 -30l-64 -74q-14 -17 -29 -26.5t-36 -9.5z" />
    <glyph glyph-name="Dcaron" unicode="&#x10e;" horiz-adv-x="628" 
d="M65 615q0 29 17 47t47 18h161q109 0 176.5 -36.5t94.5 -120.5q5 -15 8.5 -31.5t6 -38t4 -49.5t1.5 -64t-1.5 -64t-4 -49.5t-6 -38t-8.5 -31.5q-27 -84 -94.5 -120.5t-176.5 -36.5h-161q-30 0 -47 17.5t-17 46.5v551zM212 137q0 -6 6 -6h68q51 0 86 18t48 59
q5 17 8.5 48.5t3.5 83.5t-3.5 83.5t-8.5 48.5q-13 41 -48 59t-86 18h-68q-6 0 -6 -6v-406zM295 727q-21 0 -36 9.5t-29 26.5l-64 74q-12 13 -12 30q0 18 12.5 29t29.5 11q21 0 39 -18l59 -57h2l59 57q18 18 39 18q17 0 29.5 -11t12.5 -29q0 -17 -12 -30l-64 -74
q-14 -17 -29 -26.5t-36 -9.5z" />
    <glyph glyph-name="dcaron" unicode="&#x10f;" horiz-adv-x="551" 
d="M418 -6q-29 0 -45.5 15.5t-21.5 35.5h-1q-17 -23 -47.5 -39.5t-78.5 -16.5q-60 0 -104.5 33t-63.5 90q-9 27 -13 58t-4 72t4 72t13 58q19 57 63.5 90t104.5 33q48 0 78.5 -15.5t44.5 -36.5h1v169q0 35 20 54.5t50 19.5q31 0 50.5 -19.5t19.5 -54.5v-544
q0 -35 -19.5 -54.5t-50.5 -19.5zM265 107q56 0 74 56q9 27 9 79t-9 79q-18 56 -74 56q-57 0 -75 -56q-9 -27 -9 -79t9 -79q18 -56 75 -56zM625 541q-16 -47 -55 -47q-26 0 -42.5 15t-16.5 41q0 6 1 13t3 14l20 62q16 47 55 47q25 0 42 -15t17 -42q0 -14 -4 -26z" />
    <glyph glyph-name="Dcroat" unicode="&#x110;" horiz-adv-x="628" 
d="M129 0q-30 0 -47 17.5t-17 46.5v219q0 6 -6 6h-5q-24 0 -39 15t-15 39t15 39t39 15h5q6 0 6 6v212q0 29 17 47t47 18h161q109 0 176.5 -36.5t94.5 -120.5q5 -15 8.5 -31.5t6 -38t4 -49.5t1.5 -64t-1.5 -64t-4 -49.5t-6 -38t-8.5 -31.5q-27 -84 -94.5 -120.5t-176.5 -36.5
h-161zM286 131q51 0 86 18t48 59q5 17 8.5 48.5t3.5 83.5t-3.5 83.5t-8.5 48.5q-13 41 -48 59t-86 18h-67q-6 0 -6 -6v-140q0 -6 6 -6h45q26 0 41.5 -15t15.5 -39t-15.5 -39t-41.5 -15h-45q-6 0 -6 -6v-146q0 -6 6 -6h67z" />
    <glyph glyph-name="dcroat" unicode="&#x111;" horiz-adv-x="551" 
d="M418 -6q-29 0 -45.5 15.5t-21.5 35.5h-1q-17 -23 -47.5 -39.5t-78.5 -16.5q-60 0 -104.5 33t-63.5 90q-9 27 -13 58t-4 72t4 72t13 58q19 57 63.5 90t104.5 33q48 0 78.5 -15.5t44.5 -36.5h1v83q0 6 -6 6h-66q-25 0 -39 12.5t-14 33.5t14 34t39 13h67q5 0 7 6
q5 24 22.5 39.5t45.5 15.5q26 0 44.5 -14.5t23.5 -40.5q1 -6 7 -6h4q25 0 39 -13t14 -34t-14 -33.5t-39 -12.5h-3q-6 0 -6 -6v-458q0 -35 -19.5 -54.5t-50.5 -19.5zM265 107q56 0 74 56q9 27 9 79t-9 79q-18 56 -74 56q-57 0 -75 -56q-9 -27 -9 -79t9 -79q18 -56 75 -56z
" />
    <glyph glyph-name="Emacron" unicode="&#x112;" horiz-adv-x="565" 
d="M65 615q0 29 17 47t47 18h330q31 0 49.5 -18t18.5 -46q0 -27 -18.5 -45t-49.5 -18h-241q-6 0 -6 -6v-135q0 -6 6 -6h193q31 0 49 -17.5t18 -45.5t-18 -45.5t-49 -17.5h-193q-6 0 -6 -6v-141q0 -6 6 -6h241q31 0 49.5 -18t18.5 -45q0 -28 -18.5 -46t-49.5 -18h-330
q-30 0 -47 18t-17 47v550zM187 769q-26 0 -39.5 14t-13.5 35q0 22 13.5 36t39.5 14h213q25 0 38.5 -14t13.5 -36q0 -21 -13.5 -35t-38.5 -14h-213z" />
    <glyph glyph-name="emacron" unicode="&#x113;" horiz-adv-x="527" 
d="M271 -11q-85 0 -140 36t-76 102q-8 23 -12 50t-4 65t3.5 65.5t11.5 50.5q22 66 76.5 101.5t132.5 35.5q81 0 134.5 -35.5t74.5 -100.5q8 -26 12 -52.5t4 -60.5q0 -20 -12 -33t-34 -13h-257q-6 0 -6 -6q0 -13 5 -28q10 -31 36 -47t64 -16q25 0 48 7t43 18q25 15 48 15
q22 0 36.5 -14.5t14.5 -37.5q0 -31 -28 -50q-35 -24 -76.5 -38t-98.5 -14zM344 293q6 0 6 6q0 12 -1.5 20t-3.5 16q-8 26 -29.5 39.5t-51.5 13.5t-51 -13.5t-29 -39.5q-2 -8 -3.5 -16t-1.5 -20q0 -6 6 -6h159zM158 575q-26 0 -39.5 14t-13.5 35q0 22 13.5 36t39.5 14h213
q25 0 38.5 -14t13.5 -36q0 -21 -13.5 -35t-38.5 -14h-213z" />
    <glyph glyph-name="Ebreve" unicode="&#x114;" horiz-adv-x="565" 
d="M65 615q0 29 17 47t47 18h330q31 0 49.5 -18t18.5 -46q0 -27 -18.5 -45t-49.5 -18h-241q-6 0 -6 -6v-135q0 -6 6 -6h193q31 0 49 -17.5t18 -45.5t-18 -45.5t-49 -17.5h-193q-6 0 -6 -6v-141q0 -6 6 -6h241q31 0 49.5 -18t18.5 -45q0 -28 -18.5 -46t-49.5 -18h-330
q-30 0 -47 18t-17 47v550zM295 743q-32 0 -59 9t-47 25t-31 36.5t-11 44.5q0 18 10.5 29t27.5 11t25 -8t16 -22q11 -19 29 -27t40 -8t40 8t29 27q8 14 16 22t25 8t27.5 -11t10.5 -29q0 -24 -11 -44.5t-31 -36.5t-47 -25t-59 -9z" />
    <glyph glyph-name="ebreve" unicode="&#x115;" horiz-adv-x="527" 
d="M271 -11q-85 0 -140 36t-76 102q-8 23 -12 50t-4 65t3.5 65.5t11.5 50.5q22 66 76.5 101.5t132.5 35.5q81 0 134.5 -35.5t74.5 -100.5q8 -26 12 -52.5t4 -60.5q0 -20 -12 -33t-34 -13h-257q-6 0 -6 -6q0 -13 5 -28q10 -31 36 -47t64 -16q25 0 48 7t43 18q25 15 48 15
q22 0 36.5 -14.5t14.5 -37.5q0 -31 -28 -50q-35 -24 -76.5 -38t-98.5 -14zM344 293q6 0 6 6q0 12 -1.5 20t-3.5 16q-8 26 -29.5 39.5t-51.5 13.5t-51 -13.5t-29 -39.5q-2 -8 -3.5 -16t-1.5 -20q0 -6 6 -6h159zM264 545q-32 0 -59 9t-47 25t-31 36.5t-11 44.5q0 18 10.5 29
t27.5 11t25 -8t16 -22q11 -19 29 -27t40 -8t40 8t29 27q8 14 16 22t25 8t27.5 -11t10.5 -29q0 -24 -11 -44.5t-31 -36.5t-47 -25t-59 -9z" />
    <glyph glyph-name="Edotaccent" unicode="&#x116;" horiz-adv-x="565" 
d="M65 615q0 29 17 47t47 18h330q31 0 49.5 -18t18.5 -46q0 -27 -18.5 -45t-49.5 -18h-241q-6 0 -6 -6v-135q0 -6 6 -6h193q31 0 49 -17.5t18 -45.5t-18 -45.5t-49 -17.5h-193q-6 0 -6 -6v-141q0 -6 6 -6h241q31 0 49.5 -18t18.5 -45q0 -28 -18.5 -46t-49.5 -18h-330
q-30 0 -47 18t-17 47v550zM292 737q-33 0 -56 23t-23 56t23 56t56 23t56 -23t23 -56t-23 -56t-56 -23z" />
    <glyph glyph-name="edotaccent" unicode="&#x117;" horiz-adv-x="527" 
d="M271 -11q-85 0 -140 36t-76 102q-8 23 -12 50t-4 65t3.5 65.5t11.5 50.5q22 66 76.5 101.5t132.5 35.5q81 0 134.5 -35.5t74.5 -100.5q8 -26 12 -52.5t4 -60.5q0 -20 -12 -33t-34 -13h-257q-6 0 -6 -6q0 -13 5 -28q10 -31 36 -47t64 -16q25 0 48 7t43 18q25 15 48 15
q22 0 36.5 -14.5t14.5 -37.5q0 -31 -28 -50q-35 -24 -76.5 -38t-98.5 -14zM344 293q6 0 6 6q0 12 -1.5 20t-3.5 16q-8 26 -29.5 39.5t-51.5 13.5t-51 -13.5t-29 -39.5q-2 -8 -3.5 -16t-1.5 -20q0 -6 6 -6h159zM264 533q-33 0 -56 23t-23 56t23 56t56 23t56 -23t23 -56
t-23 -56t-56 -23z" />
    <glyph glyph-name="Eogonek" unicode="&#x118;" horiz-adv-x="565" 
d="M398 -191q-48 0 -76.5 25t-28.5 69q0 23 9 47t35 50h-208q-30 0 -47 18t-17 47v550q0 29 17 47t47 18h330q31 0 49.5 -18t18.5 -46q0 -27 -18.5 -45t-49.5 -18h-241q-6 0 -6 -6v-135q0 -6 6 -6h193q31 0 49 -17.5t18 -45.5t-18 -45.5t-49 -17.5h-193q-6 0 -6 -6v-141
q0 -6 6 -6h241q31 0 49.5 -18t18.5 -45q0 -28 -18.5 -46t-49.5 -18h-6q-30 -26 -40.5 -45.5t-10.5 -31.5q0 -18 16 -18q6 0 14 3q5 2 10 3t11 1q17 0 28 -12.5t11 -30.5q0 -13 -6 -24.5t-20 -19.5q-27 -16 -68 -16z" />
    <glyph glyph-name="eogonek" unicode="&#x119;" horiz-adv-x="527" 
d="M340 -191q-49 0 -77.5 25t-28.5 69q0 23 11 45.5t31 40.5h-5q-85 0 -140 36t-76 102q-8 23 -12 50t-4 65t3.5 65.5t11.5 50.5q22 66 76.5 101.5t132.5 35.5q81 0 134.5 -35.5t74.5 -100.5q8 -26 12 -52.5t4 -60.5q0 -20 -12 -33t-34 -13h-257q-6 0 -6 -6q0 -13 5 -28
q10 -31 36 -47t64 -16q25 0 48 7t43 18q25 15 48 15q22 0 36.5 -14.5t14.5 -37.5q0 -31 -28 -50l-24 -15q-24 -22 -39.5 -38t-24.5 -28.5t-12 -21t-3 -15.5q0 -18 16 -18q6 0 14 3q5 2 10 3t11 1q17 0 28 -12.5t11 -30.5q0 -13 -6 -24.5t-20 -19.5q-27 -16 -67 -16zM344 293
q6 0 6 6q0 12 -1.5 20t-3.5 16q-8 26 -29.5 39.5t-51.5 13.5t-51 -13.5t-29 -39.5q-2 -8 -3.5 -16t-1.5 -20q0 -6 6 -6h159z" />
    <glyph glyph-name="Ecaron" unicode="&#x11a;" horiz-adv-x="565" 
d="M65 615q0 29 17 47t47 18h330q31 0 49.5 -18t18.5 -46q0 -27 -18.5 -45t-49.5 -18h-241q-6 0 -6 -6v-135q0 -6 6 -6h193q31 0 49 -17.5t18 -45.5t-18 -45.5t-49 -17.5h-193q-6 0 -6 -6v-141q0 -6 6 -6h241q31 0 49.5 -18t18.5 -45q0 -28 -18.5 -46t-49.5 -18h-330
q-30 0 -47 18t-17 47v550zM292 727q-21 0 -36 9.5t-29 26.5l-64 74q-12 13 -12 30q0 18 12.5 29t29.5 11q21 0 39 -18l59 -57h2l59 57q18 18 39 18q17 0 29.5 -11t12.5 -29q0 -17 -12 -30l-64 -74q-14 -17 -29 -26.5t-36 -9.5z" />
    <glyph glyph-name="ecaron" unicode="&#x11b;" horiz-adv-x="527" 
d="M271 -11q-85 0 -140 36t-76 102q-8 23 -12 50t-4 65t3.5 65.5t11.5 50.5q22 66 76.5 101.5t132.5 35.5q81 0 134.5 -35.5t74.5 -100.5q8 -26 12 -52.5t4 -60.5q0 -20 -12 -33t-34 -13h-257q-6 0 -6 -6q0 -13 5 -28q10 -31 36 -47t64 -16q25 0 48 7t43 18q25 15 48 15
q22 0 36.5 -14.5t14.5 -37.5q0 -31 -28 -50q-35 -24 -76.5 -38t-98.5 -14zM344 293q6 0 6 6q0 12 -1.5 20t-3.5 16q-8 26 -29.5 39.5t-51.5 13.5t-51 -13.5t-29 -39.5q-2 -8 -3.5 -16t-1.5 -20q0 -6 6 -6h159zM264 531q-21 0 -36 9.5t-29 26.5l-64 74q-12 13 -12 30
q0 18 12.5 29t29.5 11q21 0 39 -18l59 -57h2l59 57q18 18 39 18q17 0 29.5 -11t12.5 -29q0 -17 -12 -30l-64 -74q-14 -17 -29 -26.5t-36 -9.5z" />
    <glyph glyph-name="Gcircumflex" unicode="&#x11c;" horiz-adv-x="628" 
d="M66 154q-6 18 -9.5 35t-5.5 38t-3 48t-1 65q0 37 1 64t3 48t5.5 38.5t9.5 35.5q26 83 92.5 124t157.5 41q83 0 139 -30t83 -76q6 -11 9.5 -21.5t3.5 -22.5q0 -29 -19.5 -47.5t-47.5 -18.5q-19 0 -34.5 7.5t-30.5 28.5q-20 27 -45 38.5t-58 11.5q-44 0 -71 -20.5
t-38 -55.5q-3 -9 -5 -20.5t-3.5 -28t-2 -40t-0.5 -56.5t0.5 -56.5t2 -40t3.5 -28.5t5 -21q11 -35 38.5 -55t72.5 -20q39 0 68.5 19t40.5 51q5 14 6.5 30.5t1.5 36.5q0 6 -6 6h-46q-29 0 -45.5 16t-16.5 42t16.5 42t45.5 16h140q58 0 58 -58v-7q0 -45 -4 -85t-13 -69
q-26 -82 -91.5 -126t-156.5 -44t-157.5 41t-92.5 124zM413 735q-21 0 -39 18l-59 57h-2l-59 -57q-18 -18 -39 -18q-17 0 -29.5 11t-12.5 29q0 16 12 30l64 74q14 17 29 26.5t36 9.5t36 -9.5t29 -26.5l64 -74q12 -14 12 -30q0 -18 -12.5 -29t-29.5 -11z" />
    <glyph glyph-name="gcircumflex" unicode="&#x11d;" horiz-adv-x="544" 
d="M240 -191q-25 0 -49.5 4.5t-45.5 12t-37.5 17.5t-25.5 20q-10 11 -14.5 23t-4.5 23q0 23 16.5 41t42.5 18q14 0 27 -5t28 -13q17 -9 35 -14.5t35 -5.5q94 0 94 104v39h-1q-20 -26 -49.5 -40t-73.5 -14q-60 0 -102 31t-61 89q-16 49 -16 118t16 118q19 58 61 89t102 31
q48 0 78.5 -16.5t47.5 -39.5h1q5 20 21.5 35.5t45.5 15.5q31 0 50.5 -19.5t19.5 -54.5v-363q0 -244 -241 -244zM261 136q53 0 71 53q9 27 9 67q0 41 -9 68q-18 53 -71 53q-54 0 -72 -53q-9 -27 -9 -68q0 -40 9 -67q18 -53 72 -53zM361 538q-21 0 -39 18l-59 57h-2l-59 -57
q-18 -18 -39 -18q-17 0 -29.5 11t-12.5 29q0 16 12 30l64 74q14 17 29 26.5t36 9.5t36 -9.5t29 -26.5l64 -74q12 -14 12 -30q0 -18 -12.5 -29t-29.5 -11z" />
    <glyph glyph-name="Gbreve" unicode="&#x11e;" horiz-adv-x="628" 
d="M66 154q-6 18 -9.5 35t-5.5 38t-3 48t-1 65q0 37 1 64t3 48t5.5 38.5t9.5 35.5q26 83 92.5 124t157.5 41q83 0 139 -30t83 -76q6 -11 9.5 -21.5t3.5 -22.5q0 -29 -19.5 -47.5t-47.5 -18.5q-19 0 -34.5 7.5t-30.5 28.5q-20 27 -45 38.5t-58 11.5q-44 0 -71 -20.5
t-38 -55.5q-3 -9 -5 -20.5t-3.5 -28t-2 -40t-0.5 -56.5t0.5 -56.5t2 -40t3.5 -28.5t5 -21q11 -35 38.5 -55t72.5 -20q39 0 68.5 19t40.5 51q5 14 6.5 30.5t1.5 36.5q0 6 -6 6h-46q-29 0 -45.5 16t-16.5 42t16.5 42t45.5 16h140q58 0 58 -58v-7q0 -45 -4 -85t-13 -69
q-26 -82 -91.5 -126t-156.5 -44t-157.5 41t-92.5 124zM314 743q-32 0 -59 9t-47 25t-31 36.5t-11 44.5q0 18 10.5 29t27.5 11t25 -8t16 -22q11 -19 29 -27t40 -8t40 8t29 27q8 14 16 22t25 8t27.5 -11t10.5 -29q0 -24 -11 -44.5t-31 -36.5t-47 -25t-59 -9z" />
    <glyph glyph-name="gbreve" unicode="&#x11f;" horiz-adv-x="544" 
d="M240 -191q-25 0 -49.5 4.5t-45.5 12t-37.5 17.5t-25.5 20q-10 11 -14.5 23t-4.5 23q0 23 16.5 41t42.5 18q14 0 27 -5t28 -13q17 -9 35 -14.5t35 -5.5q94 0 94 104v39h-1q-20 -26 -49.5 -40t-73.5 -14q-60 0 -102 31t-61 89q-16 49 -16 118t16 118q19 58 61 89t102 31
q48 0 78.5 -16.5t47.5 -39.5h1q5 20 21.5 35.5t45.5 15.5q31 0 50.5 -19.5t19.5 -54.5v-363q0 -244 -241 -244zM261 136q53 0 71 53q9 27 9 67q0 41 -9 68q-18 53 -71 53q-54 0 -72 -53q-9 -27 -9 -68q0 -40 9 -67q18 -53 72 -53zM263 545q-32 0 -59 9t-47 25t-31 36.5
t-11 44.5q0 18 10.5 29t27.5 11t25 -8t16 -22q11 -19 29 -27t40 -8t40 8t29 27q8 14 16 22t25 8t27.5 -11t10.5 -29q0 -24 -11 -44.5t-31 -36.5t-47 -25t-59 -9z" />
    <glyph glyph-name="Gdotaccent" unicode="&#x120;" horiz-adv-x="628" 
d="M66 154q-6 18 -9.5 35t-5.5 38t-3 48t-1 65q0 37 1 64t3 48t5.5 38.5t9.5 35.5q26 83 92.5 124t157.5 41q83 0 139 -30t83 -76q6 -11 9.5 -21.5t3.5 -22.5q0 -29 -19.5 -47.5t-47.5 -18.5q-19 0 -34.5 7.5t-30.5 28.5q-20 27 -45 38.5t-58 11.5q-44 0 -71 -20.5
t-38 -55.5q-3 -9 -5 -20.5t-3.5 -28t-2 -40t-0.5 -56.5t0.5 -56.5t2 -40t3.5 -28.5t5 -21q11 -35 38.5 -55t72.5 -20q39 0 68.5 19t40.5 51q5 14 6.5 30.5t1.5 36.5q0 6 -6 6h-46q-29 0 -45.5 16t-16.5 42t16.5 42t45.5 16h140q58 0 58 -58v-7q0 -45 -4 -85t-13 -69
q-26 -82 -91.5 -126t-156.5 -44t-157.5 41t-92.5 124zM314 737q-33 0 -56 23t-23 56t23 56t56 23t56 -23t23 -56t-23 -56t-56 -23z" />
    <glyph glyph-name="gdotaccent" unicode="&#x121;" horiz-adv-x="544" 
d="M240 -191q-25 0 -49.5 4.5t-45.5 12t-37.5 17.5t-25.5 20q-10 11 -14.5 23t-4.5 23q0 23 16.5 41t42.5 18q14 0 27 -5t28 -13q17 -9 35 -14.5t35 -5.5q94 0 94 104v39h-1q-20 -26 -49.5 -40t-73.5 -14q-60 0 -102 31t-61 89q-16 49 -16 118t16 118q19 58 61 89t102 31
q48 0 78.5 -16.5t47.5 -39.5h1q5 20 21.5 35.5t45.5 15.5q31 0 50.5 -19.5t19.5 -54.5v-363q0 -244 -241 -244zM261 136q53 0 71 53q9 27 9 67q0 41 -9 68q-18 53 -71 53q-54 0 -72 -53q-9 -27 -9 -68q0 -40 9 -67q18 -53 72 -53zM262 533q-33 0 -56 23t-23 56t23 56t56 23
t56 -23t23 -56t-23 -56t-56 -23z" />
    <glyph glyph-name="Gcommaaccent" unicode="&#x122;" horiz-adv-x="628" 
d="M66 154q-6 18 -9.5 35t-5.5 38t-3 48t-1 65q0 37 1 64t3 48t5.5 38.5t9.5 35.5q26 83 92.5 124t157.5 41q83 0 139 -30t83 -76q6 -11 9.5 -21.5t3.5 -22.5q0 -29 -19.5 -47.5t-47.5 -18.5q-19 0 -34.5 7.5t-30.5 28.5q-20 27 -45 38.5t-58 11.5q-44 0 -71 -20.5
t-38 -55.5q-3 -9 -5 -20.5t-3.5 -28t-2 -40t-0.5 -56.5t0.5 -56.5t2 -40t3.5 -28.5t5 -21q11 -35 38.5 -55t72.5 -20q39 0 68.5 19t40.5 51q5 14 6.5 30.5t1.5 36.5q0 6 -6 6h-46q-29 0 -45.5 16t-16.5 42t16.5 42t45.5 16h140q58 0 58 -58v-7q0 -45 -4 -85t-13 -69
q-26 -82 -91.5 -126t-156.5 -44t-157.5 41t-92.5 124zM347 -194q-16 -47 -55 -47q-26 0 -43 15t-17 41q0 12 5 27l22 69q15 47 55 47q25 0 42.5 -14.5t17.5 -41.5q0 -12 -5 -27z" />
    <glyph glyph-name="gcommaaccent" unicode="&#x123;" horiz-adv-x="544" 
d="M240 -191q-25 0 -49.5 4.5t-45.5 12t-37.5 17.5t-25.5 20q-10 11 -14.5 23t-4.5 23q0 23 16.5 41t42.5 18q14 0 27 -5t28 -13q17 -9 35 -14.5t35 -5.5q94 0 94 104v39h-1q-20 -26 -49.5 -40t-73.5 -14q-60 0 -102 31t-61 89q-16 49 -16 118t16 118q19 58 61 89t102 31
q48 0 78.5 -16.5t47.5 -39.5h1q5 20 21.5 35.5t45.5 15.5q31 0 50.5 -19.5t19.5 -54.5v-363q0 -244 -241 -244zM261 136q53 0 71 53q9 27 9 67q0 41 -9 68q-18 53 -71 53q-54 0 -72 -53q-9 -27 -9 -68q0 -40 9 -67q18 -53 72 -53zM315 593q-16 -47 -55 -47q-24 0 -41.5 14.5
t-17.5 40.5q0 6 1 13.5t3 14.5l24 73q16 47 55 47q24 0 41.5 -15t17.5 -42q0 -14 -4 -26z" />
    <glyph glyph-name="Hcircumflex" unicode="&#x124;" horiz-adv-x="658" 
d="M65 608q0 36 21 57t53 21t52.5 -21t20.5 -57v-193q0 -6 6 -6h222q6 0 6 6v193q0 36 20.5 57t52.5 21t53 -21t21 -57v-536q0 -36 -21 -57t-53 -21t-52.5 21t-20.5 57v200q0 6 -6 6h-222q-6 0 -6 -6v-200q0 -36 -21 -57t-53 -21t-52.5 21t-20.5 57v536zM428 735
q-21 0 -39 18l-59 57h-2l-59 -57q-18 -18 -39 -18q-17 0 -29.5 11t-12.5 29q0 16 12 30l64 74q14 17 29 26.5t36 9.5t36 -9.5t29 -26.5l64 -74q12 -14 12 -30q0 -18 -12.5 -29t-29.5 -11z" />
    <glyph glyph-name="hcircumflex" unicode="&#x125;" horiz-adv-x="553" 
d="M424 -6q-30 0 -50 19.5t-20 54.5v220q0 40 -19 64t-57 24t-56.5 -24t-18.5 -64v-220q0 -35 -20 -54.5t-50 -19.5q-31 0 -50.5 19.5t-19.5 54.5v544q0 35 19.5 54.5t50.5 19.5q30 0 50 -19.5t20 -54.5v-169h1q17 20 47.5 36t77.5 16q40 0 71 -13.5t52 -37.5t31.5 -57
t10.5 -72v-247q0 -35 -19.5 -54.5t-50.5 -19.5zM380 735q-21 0 -39 18l-59 57h-2l-59 -57q-18 -18 -39 -18q-17 0 -29.5 11t-12.5 29q0 16 12 30l64 74q14 17 29 26.5t36 9.5t36 -9.5t29 -26.5l64 -74q12 -14 12 -30q0 -18 -12.5 -29t-29.5 -11z" />
    <glyph glyph-name="Hbar" unicode="&#x126;" horiz-adv-x="658" 
d="M519 -6q-32 0 -52.5 21t-20.5 57v200q0 6 -6 6h-222q-6 0 -6 -6v-200q0 -36 -20.5 -57t-52.5 -21t-53 21t-21 57v418q0 6 -6 6h-5q-22 0 -35 13.5t-13 33.5t13 33.5t35 13.5h5q6 0 6 6v12q0 36 21 57t53 21t52.5 -21t20.5 -57v-12q0 -6 6 -6h222q6 0 6 6v12q0 36 20.5 57
t52.5 21t53 -21t21 -57v-12q0 -6 6 -6h5q22 0 35 -13.5t13 -33.5t-13 -33.5t-35 -13.5h-5q-6 0 -6 -6v-418q0 -36 -21 -57t-53 -21zM440 409q6 0 6 6v75q0 6 -6 6h-222q-6 0 -6 -6v-75q0 -6 6 -6h222z" />
    <glyph glyph-name="hbar" unicode="&#x127;" horiz-adv-x="553" 
d="M424 -6q-30 0 -50 19.5t-20 54.5v220q0 40 -19 64t-57 24t-56.5 -24t-18.5 -64v-220q0 -35 -20 -54.5t-50 -19.5q-31 0 -50.5 19.5t-19.5 54.5v458q0 6 -6 6h-3q-25 0 -39 12.5t-14 33.5t14 34t39 13h4q5 0 7 6q5 26 23.5 40.5t44.5 14.5q28 0 45.5 -15.5t22.5 -39.5
q1 -6 7 -6h67q25 0 39 -13t14 -34t-14 -33.5t-39 -12.5h-66q-6 0 -6 -6v-83h1q17 20 47.5 36t77.5 16q40 0 71 -13.5t52 -37.5t31.5 -57t10.5 -72v-247q0 -35 -19.5 -54.5t-50.5 -19.5z" />
    <glyph glyph-name="Itilde" unicode="&#x128;" horiz-adv-x="277" 
d="M65 608q0 35 21 56.5t53 21.5t52.5 -21.5t20.5 -56.5v-536q0 -35 -20.5 -56.5t-52.5 -21.5t-53 21.5t-21 56.5v536zM200 748q-22 0 -38 6t-32 16q-17 11 -25.5 14t-17.5 3q-10 0 -16.5 -3.5t-16.5 -12.5q-18 -16 -36 -16q-19 0 -31 12t-12 30q0 20 14 39q23 28 45.5 39
t45.5 11q22 0 38 -6t32 -16q17 -11 25.5 -14t17.5 -3q10 0 16.5 3.5t16.5 12.5q18 16 36 16q19 0 31 -12t12 -30q0 -20 -14 -39q-23 -28 -45.5 -39t-45.5 -11z" />
    <glyph glyph-name="itilde" unicode="&#x129;" horiz-adv-x="266" 
d="M133 -6q-31 0 -50.5 19.5t-19.5 54.5v348q0 35 19.5 54.5t50.5 19.5q30 0 50 -19.5t20 -54.5v-348q0 -35 -20 -54.5t-50 -19.5zM194 553q-22 0 -38 6t-32 16q-17 11 -25.5 14t-17.5 3q-10 0 -16.5 -3.5t-16.5 -12.5q-18 -16 -36 -16q-19 0 -31 12t-12 30q0 20 14 39
q23 28 45.5 39t45.5 11q22 0 38 -6t32 -16q17 -11 25.5 -14t17.5 -3q10 0 16.5 3.5t16.5 12.5q18 16 36 16q19 0 31 -12t12 -30q0 -20 -14 -39q-23 -28 -45.5 -39t-45.5 -11z" />
    <glyph glyph-name="Imacron" unicode="&#x12a;" horiz-adv-x="277" 
d="M65 608q0 35 21 56.5t53 21.5t52.5 -21.5t20.5 -56.5v-536q0 -35 -20.5 -56.5t-52.5 -21.5t-53 21.5t-21 56.5v536zM33 769q-26 0 -39.5 14t-13.5 35q0 22 13.5 36t39.5 14h213q25 0 38.5 -14t13.5 -36q0 -21 -13.5 -35t-38.5 -14h-213z" />
    <glyph glyph-name="imacron" unicode="&#x12b;" horiz-adv-x="266" 
d="M133 -6q-31 0 -50.5 19.5t-19.5 54.5v348q0 35 19.5 54.5t50.5 19.5q30 0 50 -19.5t20 -54.5v-348q0 -35 -20 -54.5t-50 -19.5zM28 575q-26 0 -39.5 14t-13.5 35q0 22 13.5 36t39.5 14h213q25 0 38.5 -14t13.5 -36q0 -21 -13.5 -35t-38.5 -14h-213z" />
    <glyph glyph-name="Ibreve" unicode="&#x12c;" horiz-adv-x="277" 
d="M65 608q0 35 21 56.5t53 21.5t52.5 -21.5t20.5 -56.5v-536q0 -35 -20.5 -56.5t-52.5 -21.5t-53 21.5t-21 56.5v536zM140 743q-32 0 -59 9t-47 25t-31 36.5t-11 44.5q0 18 10.5 29t27.5 11t25 -8t16 -22q11 -19 29 -27t40 -8t40 8t29 27q8 14 16 22t25 8t27.5 -11
t10.5 -29q0 -24 -11 -44.5t-31 -36.5t-47 -25t-59 -9z" />
    <glyph glyph-name="ibreve" unicode="&#x12d;" horiz-adv-x="266" 
d="M133 -6q-31 0 -50.5 19.5t-19.5 54.5v348q0 35 19.5 54.5t50.5 19.5q30 0 50 -19.5t20 -54.5v-348q0 -35 -20 -54.5t-50 -19.5zM134 545q-32 0 -59 9t-47 25t-31 36.5t-11 44.5q0 18 10.5 29t27.5 11t25 -8t16 -22q11 -19 29 -27t40 -8t40 8t29 27q8 14 16 22t25 8
t27.5 -11t10.5 -29q0 -24 -11 -44.5t-31 -36.5t-47 -25t-59 -9z" />
    <glyph glyph-name="Iogonek" unicode="&#x12e;" horiz-adv-x="277" 
d="M129 -191q-48 0 -77 24.5t-29 69.5q0 26 13.5 56t46.5 59q-8 8 -13 21t-5 33v536q0 35 21 56.5t53 21.5t52.5 -21.5t20.5 -56.5v-536q0 -24 -8 -40t-22 -31q-30 -32 -40 -48.5t-10 -29.5q0 -18 16 -18q6 0 14 3q5 2 10 3t11 1q17 0 28 -12.5t11 -30.5q0 -13 -6 -24.5
t-20 -19.5q-27 -16 -67 -16z" />
    <glyph glyph-name="iogonek" unicode="&#x12f;" horiz-adv-x="266" 
d="M133 533q-33 0 -56 23t-23 56t23 56t56 23t56 -23t23 -56t-23 -56t-56 -23zM122 -191q-49 0 -77.5 25t-28.5 69q0 32 12.5 60.5t44.5 63.5q-10 15 -10 41v348q0 35 19.5 54.5t50.5 19.5q30 0 50 -19.5t20 -54.5v-348q0 -16 -4 -29.5t-16 -25.5q-33 -33 -45.5 -53
t-12.5 -37q0 -18 16 -18q6 0 14 3q5 2 10 3t11 1q17 0 28 -12.5t11 -30.5q0 -13 -6 -24.5t-20 -19.5q-27 -16 -67 -16z" />
    <glyph glyph-name="Idotaccent" unicode="&#x130;" horiz-adv-x="277" 
d="M65 608q0 35 21 56.5t53 21.5t52.5 -21.5t20.5 -56.5v-536q0 -35 -20.5 -56.5t-52.5 -21.5t-53 21.5t-21 56.5v536zM139 737q-33 0 -56 23t-23 56t23 56t56 23t56 -23t23 -56t-23 -56t-56 -23z" />
    <glyph glyph-name="dotlessi" unicode="&#x131;" horiz-adv-x="266" 
d="M133 -6q-31 0 -50.5 19.5t-19.5 54.5v348q0 35 19.5 54.5t50.5 19.5q30 0 50 -19.5t20 -54.5v-348q0 -35 -20 -54.5t-50 -19.5z" />
    <glyph glyph-name="Jcircumflex" unicode="&#x134;" horiz-adv-x="521" 
d="M57 46q-20 23 -20 51q0 26 18.5 44t46.5 18q14 0 26.5 -5.5t29.5 -16.5q26 -18 61 -18q42 0 67.5 26t25.5 89v374q0 36 20.5 57t52.5 21t53 -21t21 -57v-364q0 -126 -63.5 -190.5t-181.5 -64.5q-24 0 -47.5 4.5t-44.5 12t-38 18t-27 22.5zM484 735q-21 0 -39 18l-59 57
h-2l-59 -57q-18 -18 -39 -18q-17 0 -29.5 11t-12.5 29q0 16 12 30l64 74q14 17 29 26.5t36 9.5t36 -9.5t29 -26.5l64 -74q12 -14 12 -30q0 -18 -12.5 -29t-29.5 -11z" />
    <glyph glyph-name="jcircumflex" unicode="&#x135;" horiz-adv-x="266" 
d="M33 -180q-31 0 -47 16.5t-16 42.5q0 50 54 61q23 5 31 16.5t8 38.5v421q0 35 19.5 54.5t50.5 19.5q30 0 50 -19.5t20 -54.5v-420q0 -93 -43.5 -134.5t-126.5 -41.5zM232 538q-21 0 -39 18l-59 57h-2l-59 -57q-18 -18 -39 -18q-17 0 -29.5 11t-12.5 29q0 16 12 30l64 74
q14 17 29 26.5t36 9.5t36 -9.5t29 -26.5l64 -74q12 -14 12 -30q0 -18 -12.5 -29t-29.5 -11z" />
    <glyph glyph-name="Kcommaaccent" unicode="&#x136;" horiz-adv-x="615" 
d="M65 608q0 35 21 56.5t53 21.5t52.5 -21.5t20.5 -56.5v-228l225 274q27 32 60 32q27 0 46.5 -18t19.5 -47q0 -27 -17 -47l-146 -168l172 -297q13 -23 13 -45q0 -29 -19.5 -49.5t-50.5 -20.5q-45 0 -70 43l-143 257l-90 -113v-109q0 -35 -20.5 -56.5t-52.5 -21.5t-53 21.5
t-21 56.5v536zM350 -194q-16 -47 -55 -47q-26 0 -43 15t-17 41q0 12 5 27l22 69q15 47 55 47q25 0 42.5 -14.5t17.5 -41.5q0 -12 -5 -27z" />
    <glyph glyph-name="kcommaaccent" unicode="&#x137;" horiz-adv-x="531" 
d="M422 -6q-40 0 -63 38l-106 178l-50 -52v-90q0 -35 -20 -54.5t-50 -19.5q-31 0 -50.5 19.5t-19.5 54.5v544q0 35 19.5 54.5t50.5 19.5q30 0 50 -19.5t20 -54.5v-302l151 155q25 25 54 25q23 0 39.5 -15.5t16.5 -40.5q0 -30 -22 -51l-91 -85l127 -201q11 -18 11 -39
q0 -27 -19.5 -45.5t-47.5 -18.5zM302 -194q-16 -47 -55 -47q-26 0 -43 15t-17 41q0 12 5 27l22 69q15 47 55 47q25 0 42.5 -14.5t17.5 -41.5q0 -12 -5 -27z" />
    <glyph glyph-name="kgreenlandic" unicode="&#x138;" horiz-adv-x="531" 
d="M422 -6q-40 0 -63 38l-106 178l-50 -52v-90q0 -35 -20 -54.5t-50 -19.5q-31 0 -50.5 19.5t-19.5 54.5v348q0 35 19.5 54.5t50.5 19.5q30 0 50 -19.5t20 -54.5v-106l151 155q25 25 54 25q23 0 39.5 -15.5t16.5 -40.5q0 -30 -22 -51l-91 -85l127 -201q11 -18 11 -39
q0 -27 -19.5 -45.5t-47.5 -18.5z" />
    <glyph glyph-name="Lacute" unicode="&#x139;" horiz-adv-x="550" 
d="M65 608q0 35 21 56.5t53 21.5t52.5 -21.5t20.5 -56.5v-471q0 -6 6 -6h242q34 0 54 -18t20 -47t-20 -47.5t-54 -18.5h-321q-34 0 -54 20.5t-20 53.5v534zM215 761q-19 -22 -47 -22q-20 0 -35 14t-15 35q0 27 17 45l51 57q20 21 46 21q21 0 37 -13.5t16 -36.5
q0 -27 -17 -44z" />
    <glyph glyph-name="lacute" unicode="&#x13a;" horiz-adv-x="304" 
d="M210 -6q-83 0 -116 40t-33 114v464q0 35 19.5 54.5t50.5 19.5q30 0 50 -19.5t20 -54.5v-452q0 -21 7.5 -31t24.5 -13q30 -5 43 -21.5t13 -39.5q0 -26 -17.5 -43.5t-55.5 -17.5h-6zM196 761q-19 -22 -47 -22q-20 0 -35 14t-15 35q0 27 17 45l51 57q20 21 46 21
q21 0 37 -13.5t16 -36.5q0 -27 -17 -44z" />
    <glyph glyph-name="Lcommaaccent" unicode="&#x13b;" horiz-adv-x="550" 
d="M65 608q0 35 21 56.5t53 21.5t52.5 -21.5t20.5 -56.5v-471q0 -6 6 -6h242q34 0 54 -18t20 -47t-20 -47.5t-54 -18.5h-321q-34 0 -54 20.5t-20 53.5v534zM324 -194q-16 -47 -55 -47q-26 0 -43 15t-17 41q0 12 5 27l22 69q15 47 55 47q25 0 42.5 -14.5t17.5 -41.5
q0 -12 -5 -27z" />
    <glyph glyph-name="lcommaaccent" unicode="&#x13c;" horiz-adv-x="304" 
d="M210 -6q-83 0 -116 40t-33 114v464q0 35 19.5 54.5t50.5 19.5q30 0 50 -19.5t20 -54.5v-452q0 -21 7.5 -31t24.5 -13q30 -5 43 -21.5t13 -39.5q0 -26 -17.5 -43.5t-55.5 -17.5h-6zM200 -194q-16 -47 -55 -47q-26 0 -43 15t-17 41q0 12 5 27l22 69q15 47 55 47
q25 0 42.5 -14.5t17.5 -41.5q0 -12 -5 -27z" />
    <glyph glyph-name="Lcaron" unicode="&#x13d;" horiz-adv-x="550" 
d="M65 608q0 35 21 56.5t53 21.5t52.5 -21.5t20.5 -56.5v-471q0 -6 6 -6h242q34 0 54 -18t20 -47t-20 -47.5t-54 -18.5h-321q-34 0 -54 20.5t-20 53.5v534zM378 541q-16 -47 -55 -47q-26 0 -42.5 15t-16.5 41q0 6 1 13t3 14l20 62q16 47 55 47q25 0 42 -15t17 -42
q0 -14 -4 -26z" />
    <glyph glyph-name="lcaron" unicode="&#x13e;" horiz-adv-x="304" 
d="M210 -6q-83 0 -116 40t-33 114v464q0 35 19.5 54.5t50.5 19.5q30 0 50 -19.5t20 -54.5v-452q0 -21 7.5 -31t24.5 -13q30 -5 43 -21.5t13 -39.5q0 -26 -17.5 -43.5t-55.5 -17.5h-6zM342 541q-16 -47 -55 -47q-26 0 -42.5 15t-16.5 41q0 6 1 13t3 14l20 62q16 47 55 47
q25 0 42 -15t17 -42q0 -14 -4 -26z" />
    <glyph glyph-name="Ldot" unicode="&#x13f;" horiz-adv-x="550" 
d="M65 608q0 35 21 56.5t53 21.5t52.5 -21.5t20.5 -56.5v-471q0 -6 6 -6h242q34 0 54 -18t20 -47t-20 -47.5t-54 -18.5h-321q-34 0 -54 20.5t-20 53.5v534zM414 254q-34 0 -58 24t-24 58t24 58t58 24t58 -24t24 -58t-24 -58t-58 -24z" />
    <glyph glyph-name="ldot" unicode="&#x140;" horiz-adv-x="387" 
d="M210 -6q-83 0 -116 40t-33 114v464q0 35 19.5 54.5t50.5 19.5q30 0 50 -19.5t20 -54.5v-452q0 -21 7.5 -31t24.5 -13q30 -5 43 -21.5t13 -39.5q0 -26 -17.5 -43.5t-55.5 -17.5h-6zM341 261q-34 0 -58 24t-24 58t24 58t58 24t58 -24t24 -58t-24 -58t-58 -24z" />
    <glyph glyph-name="Lslash" unicode="&#x141;" horiz-adv-x="550" 
d="M212 322v-185q0 -6 6 -6h242q34 0 54 -18t20 -47t-20 -47.5t-54 -18.5h-321q-34 0 -54 20.5t-20 53.5v175q-5 -1 -15 -1q-20 0 -35 12.5t-15 36.5q0 32 31 48l34 17v246q0 35 21 56.5t53 21.5t52.5 -21.5t20.5 -56.5v-171l67 34q14 7 29 7q20 0 35 -12.5t15 -36.5
q0 -33 -31 -48z" />
    <glyph glyph-name="lslash" unicode="&#x142;" horiz-adv-x="304" 
d="M201 333v-173q0 -21 7.5 -31t24.5 -13q30 -5 43 -21.5t13 -39.5q0 -26 -17.5 -43.5t-55.5 -17.5h-6q-83 0 -116 40t-33 114v115q-8 -2 -15 -2q-20 0 -34 13.5t-14 34.5q0 31 29 46l34 17v240q0 35 19.5 54.5t50.5 19.5q30 0 50 -19.5t20 -54.5v-168l13 7q12 6 25 6
q20 0 34 -13.5t14 -34.5q0 -31 -29 -46z" />
    <glyph glyph-name="Nacute" unicode="&#x143;" horiz-adv-x="655" 
d="M65 598q0 41 22 64.5t60 23.5q32 0 54.5 -18.5t42.5 -53.5l208 -371h4v372q0 34 18.5 52.5t48.5 18.5t48.5 -18.5t18.5 -52.5v-533q0 -41 -22 -64.5t-60 -23.5q-32 0 -54.5 18.5t-42.5 53.5l-208 370h-4v-371q0 -34 -18.5 -52.5t-48.5 -18.5t-48.5 18.5t-18.5 52.5v533z
M369 761q-19 -22 -47 -22q-20 0 -35 14t-15 35q0 27 17 45l51 57q20 21 46 21q21 0 37 -13.5t16 -36.5q0 -27 -17 -44z" />
    <glyph glyph-name="nacute" unicode="&#x144;" horiz-adv-x="553" 
d="M424 -6q-30 0 -50 19.5t-20 54.5v220q0 40 -19 64t-57 24t-56.5 -24t-18.5 -64v-220q0 -35 -20 -54.5t-50 -19.5q-31 0 -50.5 19.5t-19.5 54.5v348q0 35 19.5 54.5t50.5 19.5q25 0 43 -13.5t24 -37.5h1q18 23 49.5 39.5t78.5 16.5q40 0 71 -13.5t52 -37.5t31.5 -57
t10.5 -72v-247q0 -35 -19.5 -54.5t-50.5 -19.5zM317 565q-19 -25 -47 -25q-22 0 -37 13t-15 36q0 11 2.5 20.5t10.5 20.5l43 61q18 24 47 24q20 0 36.5 -14t16.5 -37q0 -12 -2.5 -20.5t-10.5 -19.5z" />
    <glyph glyph-name="Ncommaaccent" unicode="&#x145;" horiz-adv-x="655" 
d="M65 598q0 41 22 64.5t60 23.5q32 0 54.5 -18.5t42.5 -53.5l208 -371h4v372q0 34 18.5 52.5t48.5 18.5t48.5 -18.5t18.5 -52.5v-533q0 -41 -22 -64.5t-60 -23.5q-32 0 -54.5 18.5t-42.5 53.5l-208 370h-4v-371q0 -34 -18.5 -52.5t-48.5 -18.5t-48.5 18.5t-18.5 52.5v533z
M373 -194q-16 -47 -55 -47q-26 0 -43 15t-17 41q0 12 5 27l22 69q15 47 55 47q25 0 42.5 -14.5t17.5 -41.5q0 -12 -5 -27z" />
    <glyph glyph-name="ncommaaccent" unicode="&#x146;" horiz-adv-x="553" 
d="M424 -6q-30 0 -50 19.5t-20 54.5v220q0 40 -19 64t-57 24t-56.5 -24t-18.5 -64v-220q0 -35 -20 -54.5t-50 -19.5q-31 0 -50.5 19.5t-19.5 54.5v348q0 35 19.5 54.5t50.5 19.5q25 0 43 -13.5t24 -37.5h1q18 23 49.5 39.5t78.5 16.5q40 0 71 -13.5t52 -37.5t31.5 -57
t10.5 -72v-247q0 -35 -19.5 -54.5t-50.5 -19.5zM313 -194q-16 -47 -55 -47q-26 0 -43 15t-17 41q0 12 5 27l22 69q15 47 55 47q25 0 42.5 -14.5t17.5 -41.5q0 -12 -5 -27z" />
    <glyph glyph-name="Ncaron" unicode="&#x147;" horiz-adv-x="655" 
d="M65 598q0 41 22 64.5t60 23.5q32 0 54.5 -18.5t42.5 -53.5l208 -371h4v372q0 34 18.5 52.5t48.5 18.5t48.5 -18.5t18.5 -52.5v-533q0 -41 -22 -64.5t-60 -23.5q-32 0 -54.5 18.5t-42.5 53.5l-208 370h-4v-371q0 -34 -18.5 -52.5t-48.5 -18.5t-48.5 18.5t-18.5 52.5v533z
M327 727q-21 0 -36 9.5t-29 26.5l-64 74q-12 13 -12 30q0 18 12.5 29t29.5 11q21 0 39 -18l59 -57h2l59 57q18 18 39 18q17 0 29.5 -11t12.5 -29q0 -17 -12 -30l-64 -74q-14 -17 -29 -26.5t-36 -9.5z" />
    <glyph glyph-name="ncaron" unicode="&#x148;" horiz-adv-x="553" 
d="M424 -6q-30 0 -50 19.5t-20 54.5v220q0 40 -19 64t-57 24t-56.5 -24t-18.5 -64v-220q0 -35 -20 -54.5t-50 -19.5q-31 0 -50.5 19.5t-19.5 54.5v348q0 35 19.5 54.5t50.5 19.5q25 0 43 -13.5t24 -37.5h1q18 23 49.5 39.5t78.5 16.5q40 0 71 -13.5t52 -37.5t31.5 -57
t10.5 -72v-247q0 -35 -19.5 -54.5t-50.5 -19.5zM276 531q-21 0 -36 9.5t-29 26.5l-64 74q-12 13 -12 30q0 18 12.5 29t29.5 11q21 0 39 -18l59 -57h2l59 57q18 18 39 18q17 0 29.5 -11t12.5 -29q0 -17 -12 -30l-64 -74q-14 -17 -29 -26.5t-36 -9.5z" />
    <glyph glyph-name="Eng" unicode="&#x14a;" horiz-adv-x="655" 
d="M389 -184q-31 0 -49 18.5t-18 44.5t18 44t47 20q28 2 44.5 14.5t16.5 41.5v5l-245 432h-4v-371q0 -34 -18.5 -52.5t-48.5 -18.5t-48.5 18.5t-18.5 52.5v533q0 41 22 64.5t60 23.5q32 0 54.5 -18.5t42.5 -53.5l208 -371h4v372q0 34 18.5 52.5t48.5 18.5t48.5 -18.5
t18.5 -52.5v-596q0 -106 -48.5 -154.5t-152.5 -48.5z" />
    <glyph glyph-name="eng" unicode="&#x14b;" horiz-adv-x="553" 
d="M323 -180q-30 0 -46.5 16.5t-16.5 42.5q0 50 54 61q23 5 31.5 16.5t8.5 38.5v293q0 40 -19 64t-57 24t-56.5 -24t-18.5 -64v-220q0 -35 -20 -54.5t-50 -19.5q-31 0 -50.5 19.5t-19.5 54.5v348q0 35 19.5 54.5t50.5 19.5q25 0 43 -13.5t24 -37.5h1q18 23 49.5 39.5
t78.5 16.5q40 0 71 -13.5t52 -37.5t31.5 -57t10.5 -72v-319q0 -93 -43.5 -134.5t-127.5 -41.5z" />
    <glyph glyph-name="Omacron" unicode="&#x14c;" horiz-adv-x="628" 
d="M314 -11q-90 0 -155.5 41t-92.5 124q-6 18 -9.5 35t-5.5 38t-3 48t-1 65q0 37 1 64t3 48t5.5 38.5t9.5 35.5q27 83 92.5 124t155.5 41t155.5 -41t92.5 -124q6 -18 9.5 -35.5t5.5 -38.5t3 -48t1 -64q0 -38 -1 -65t-3 -48t-5.5 -38t-9.5 -35q-27 -83 -92.5 -124t-155.5 -41
zM314 119q42 0 69 19.5t38 54.5q3 9 5 21t3.5 29t2 40.5t0.5 56.5t-0.5 56.5t-2 40.5t-3.5 29t-5 21q-11 35 -38 54.5t-69 19.5t-69 -19.5t-38 -54.5q-3 -9 -5 -21t-3.5 -29t-2 -40.5t-0.5 -56.5t0.5 -56.5t2 -40.5t3.5 -29t5 -21q11 -35 38 -54.5t69 -19.5zM208 769
q-26 0 -39.5 14t-13.5 35q0 22 13.5 36t39.5 14h213q25 0 38.5 -14t13.5 -36q0 -21 -13.5 -35t-38.5 -14h-213z" />
    <glyph glyph-name="omacron" unicode="&#x14d;" horiz-adv-x="530" 
d="M265 -11q-80 0 -134 36t-76 103q-8 26 -12 52.5t-4 61.5t4 61.5t12 52.5q22 67 76 103t134 36t134 -36t76 -103q8 -26 12 -52.5t4 -61.5t-4 -61.5t-12 -52.5q-22 -67 -76 -103t-134 -36zM265 107q29 0 48 14t27 40q5 16 7 36t2 45t-2 45t-7 36q-8 26 -27 40t-48 14
t-48 -14t-27 -40q-5 -16 -7 -36t-2 -45t2 -45t7 -36q8 -26 27 -40t48 -14zM159 575q-26 0 -39.5 14t-13.5 35q0 22 13.5 36t39.5 14h213q25 0 38.5 -14t13.5 -36q0 -21 -13.5 -35t-38.5 -14h-213z" />
    <glyph glyph-name="Obreve" unicode="&#x14e;" horiz-adv-x="628" 
d="M314 -11q-90 0 -155.5 41t-92.5 124q-6 18 -9.5 35t-5.5 38t-3 48t-1 65q0 37 1 64t3 48t5.5 38.5t9.5 35.5q27 83 92.5 124t155.5 41t155.5 -41t92.5 -124q6 -18 9.5 -35.5t5.5 -38.5t3 -48t1 -64q0 -38 -1 -65t-3 -48t-5.5 -38t-9.5 -35q-27 -83 -92.5 -124t-155.5 -41
zM314 119q42 0 69 19.5t38 54.5q3 9 5 21t3.5 29t2 40.5t0.5 56.5t-0.5 56.5t-2 40.5t-3.5 29t-5 21q-11 35 -38 54.5t-69 19.5t-69 -19.5t-38 -54.5q-3 -9 -5 -21t-3.5 -29t-2 -40.5t-0.5 -56.5t0.5 -56.5t2 -40.5t3.5 -29t5 -21q11 -35 38 -54.5t69 -19.5zM314 743
q-32 0 -59 9t-47 25t-31 36.5t-11 44.5q0 18 10.5 29t27.5 11t25 -8t16 -22q11 -19 29 -27t40 -8t40 8t29 27q8 14 16 22t25 8t27.5 -11t10.5 -29q0 -24 -11 -44.5t-31 -36.5t-47 -25t-59 -9z" />
    <glyph glyph-name="obreve" unicode="&#x14f;" horiz-adv-x="530" 
d="M265 -11q-80 0 -134 36t-76 103q-8 26 -12 52.5t-4 61.5t4 61.5t12 52.5q22 67 76 103t134 36t134 -36t76 -103q8 -26 12 -52.5t4 -61.5t-4 -61.5t-12 -52.5q-22 -67 -76 -103t-134 -36zM265 107q29 0 48 14t27 40q5 16 7 36t2 45t-2 45t-7 36q-8 26 -27 40t-48 14
t-48 -14t-27 -40q-5 -16 -7 -36t-2 -45t2 -45t7 -36q8 -26 27 -40t48 -14zM265 545q-32 0 -59 9t-47 25t-31 36.5t-11 44.5q0 18 10.5 29t27.5 11t25 -8t16 -22q11 -19 29 -27t40 -8t40 8t29 27q8 14 16 22t25 8t27.5 -11t10.5 -29q0 -24 -11 -44.5t-31 -36.5t-47 -25
t-59 -9z" />
    <glyph glyph-name="Ohungarumlaut" unicode="&#x150;" horiz-adv-x="628" 
d="M314 -11q-90 0 -155.5 41t-92.5 124q-6 18 -9.5 35t-5.5 38t-3 48t-1 65q0 37 1 64t3 48t5.5 38.5t9.5 35.5q27 83 92.5 124t155.5 41t155.5 -41t92.5 -124q6 -18 9.5 -35.5t5.5 -38.5t3 -48t1 -64q0 -38 -1 -65t-3 -48t-5.5 -38t-9.5 -35q-27 -83 -92.5 -124t-155.5 -41
zM314 119q42 0 69 19.5t38 54.5q3 9 5 21t3.5 29t2 40.5t0.5 56.5t-0.5 56.5t-2 40.5t-3.5 29t-5 21q-11 35 -38 54.5t-69 19.5t-69 -19.5t-38 -54.5q-3 -9 -5 -21t-3.5 -29t-2 -40.5t-0.5 -56.5t0.5 -56.5t2 -40.5t3.5 -29t5 -21q11 -35 38 -54.5t69 -19.5zM457 776
q-18 -27 -46 -27q-20 0 -37 13.5t-17 36.5q0 20 14 40l36 54q9 14 21.5 20t25.5 6q20 0 36.5 -14t16.5 -37q0 -20 -13 -39zM281 776q-18 -27 -46 -27q-20 0 -37 13.5t-17 36.5q0 20 14 40l36 54q9 14 21.5 20t25.5 6q20 0 36.5 -14t16.5 -37q0 -20 -13 -39z" />
    <glyph glyph-name="ohungarumlaut" unicode="&#x151;" horiz-adv-x="530" 
d="M265 -11q-80 0 -134 36t-76 103q-8 26 -12 52.5t-4 61.5t4 61.5t12 52.5q22 67 76 103t134 36t134 -36t76 -103q8 -26 12 -52.5t4 -61.5t-4 -61.5t-12 -52.5q-22 -67 -76 -103t-134 -36zM265 107q29 0 48 14t27 40q5 16 7 36t2 45t-2 45t-7 36q-8 26 -27 40t-48 14
t-48 -14t-27 -40q-5 -16 -7 -36t-2 -45t2 -45t7 -36q8 -26 27 -40t48 -14zM413 567q-19 -31 -48 -31q-21 0 -37 14t-16 37q0 18 11 37l38 64q9 16 22 23t27 7q21 0 37 -14t16 -37q0 -17 -11 -36zM236 567q-19 -31 -48 -31q-21 0 -37 14t-16 37q0 18 11 37l38 64q9 16 22 23
t27 7q21 0 37 -14t16 -37q0 -17 -11 -36z" />
    <glyph glyph-name="OE" unicode="&#x152;" horiz-adv-x="931" 
d="M495 0q-23 0 -39.5 11t-21.5 33h-1q-17 -25 -52.5 -40t-86.5 -15q-83 0 -142 41.5t-84 118.5q-6 17 -10 34.5t-6.5 39.5t-3.5 50t-1 67t1 67t3.5 50t6.5 39.5t10 34.5q25 77 84 118.5t142 41.5q51 0 86.5 -15t52.5 -40h1q5 22 21.5 33t39.5 11h330q31 0 49.5 -18
t18.5 -46q0 -27 -18.5 -45t-49.5 -18h-241q-6 0 -6 -6v-135q0 -6 6 -6h193q31 0 49 -17.5t18 -45.5t-18 -45.5t-49 -17.5h-193q-6 0 -6 -6v-141q0 -6 6 -6h241q31 0 49.5 -18t18.5 -45q0 -28 -18.5 -46t-49.5 -18h-330zM314 119q42 0 69 19.5t38 54.5q3 9 5 21t3.5 29
t2 40.5t0.5 56.5t-0.5 56.5t-2 40.5t-3.5 29t-5 21q-11 35 -38 54.5t-69 19.5t-69 -19.5t-38 -54.5q-3 -9 -5 -21t-3.5 -29t-2 -40.5t-0.5 -56.5t0.5 -56.5t2 -40.5t3.5 -29t5 -21q11 -35 38 -54.5t69 -19.5z" />
    <glyph glyph-name="oe" unicode="&#x153;" horiz-adv-x="835" 
d="M579 -11q-50 0 -90 15t-67 44h-2q-31 -32 -69 -45.5t-86 -13.5q-80 0 -134 36t-76 103q-8 26 -12 52.5t-4 61.5t4 61.5t12 52.5q22 67 76 103t134 36q52 0 87 -14.5t67 -42.5h2q27 29 65.5 43t84.5 14q81 0 134.5 -35.5t74.5 -100.5q8 -26 12 -52.5t4 -60.5
q0 -20 -12 -33t-34 -13h-257q-6 0 -6 -6q0 -13 5 -28q10 -31 36 -47t64 -16q25 0 48 7t43 18q25 15 48 15q22 0 36.5 -14.5t14.5 -37.5q0 -31 -28 -50q-35 -24 -76.5 -38t-98.5 -14zM652 293q6 0 6 6q0 12 -1.5 20t-3.5 16q-8 26 -29.5 39.5t-51.5 13.5t-51 -13.5t-29 -39.5
q-2 -8 -3.5 -16t-1.5 -20q0 -6 6 -6h159zM265 107q29 0 48 14t27 40q5 16 7 36t2 45t-2 45t-7 36q-8 26 -27 40t-48 14t-48 -14t-27 -40q-5 -16 -7 -36t-2 -45t2 -45t7 -36q8 -26 27 -40t48 -14z" />
    <glyph glyph-name="Racute" unicode="&#x154;" horiz-adv-x="624" 
d="M504 -6q-23 0 -41 11t-31 35l-114 219h-100q-6 0 -6 -6v-181q0 -35 -20.5 -56.5t-52.5 -21.5t-53 21.5t-21 56.5v543q0 29 17 47t47 18h216q52 0 95 -15.5t73.5 -43.5t47 -67t16.5 -85q0 -63 -29.5 -110.5t-82.5 -73.5l99 -180q10 -19 10 -41q0 -29 -18.5 -49.5
t-51.5 -20.5zM338 384q42 0 67 23t25 61q0 39 -25 62t-67 23h-120q-6 0 -6 -6v-157q0 -6 6 -6h120zM336 761q-19 -22 -47 -22q-20 0 -35 14t-15 35q0 27 17 45l51 57q20 21 46 21q21 0 37 -13.5t16 -36.5q0 -27 -17 -44z" />
    <glyph glyph-name="racute" unicode="&#x155;" horiz-adv-x="428" 
d="M133 -6q-31 0 -50.5 19.5t-19.5 54.5v348q0 35 19.5 54.5t50.5 19.5q25 0 43.5 -14t24.5 -40v-1h1q17 24 48.5 42t73.5 18q17 0 29 -2.5t22 -7.5q19 -9 28 -24t9 -33q0 -31 -19 -51t-50 -20q-13 0 -30 5t-36 5q-39 0 -56.5 -26.5t-17.5 -75.5v-197q0 -35 -20 -54.5
t-50 -19.5zM273 565q-19 -25 -47 -25q-22 0 -37 13t-15 36q0 11 2.5 20.5t10.5 20.5l43 61q18 24 47 24q20 0 36.5 -14t16.5 -37q0 -12 -2.5 -20.5t-10.5 -19.5z" />
    <glyph glyph-name="Rcommaaccent" unicode="&#x156;" horiz-adv-x="624" 
d="M504 -6q-23 0 -41 11t-31 35l-114 219h-100q-6 0 -6 -6v-181q0 -35 -20.5 -56.5t-52.5 -21.5t-53 21.5t-21 56.5v543q0 29 17 47t47 18h216q52 0 95 -15.5t73.5 -43.5t47 -67t16.5 -85q0 -63 -29.5 -110.5t-82.5 -73.5l99 -180q10 -19 10 -41q0 -29 -18.5 -49.5
t-51.5 -20.5zM338 384q42 0 67 23t25 61q0 39 -25 62t-67 23h-120q-6 0 -6 -6v-157q0 -6 6 -6h120zM341 -194q-16 -47 -55 -47q-26 0 -43 15t-17 41q0 12 5 27l22 69q15 47 55 47q25 0 42.5 -14.5t17.5 -41.5q0 -12 -5 -27z" />
    <glyph glyph-name="rcommaaccent" unicode="&#x157;" horiz-adv-x="428" 
d="M133 -6q-31 0 -50.5 19.5t-19.5 54.5v348q0 35 19.5 54.5t50.5 19.5q25 0 43.5 -14t24.5 -40v-1h1q17 24 48.5 42t73.5 18q17 0 29 -2.5t22 -7.5q19 -9 28 -24t9 -33q0 -31 -19 -51t-50 -20q-13 0 -30 5t-36 5q-39 0 -56.5 -26.5t-17.5 -75.5v-197q0 -35 -20 -54.5
t-50 -19.5zM158 -194q-16 -47 -55 -47q-26 0 -43 15t-17 41q0 12 5 27l22 69q15 47 55 47q25 0 42.5 -14.5t17.5 -41.5q0 -12 -5 -27z" />
    <glyph glyph-name="Rcaron" unicode="&#x158;" horiz-adv-x="624" 
d="M504 -6q-23 0 -41 11t-31 35l-114 219h-100q-6 0 -6 -6v-181q0 -35 -20.5 -56.5t-52.5 -21.5t-53 21.5t-21 56.5v543q0 29 17 47t47 18h216q52 0 95 -15.5t73.5 -43.5t47 -67t16.5 -85q0 -63 -29.5 -110.5t-82.5 -73.5l99 -180q10 -19 10 -41q0 -29 -18.5 -49.5
t-51.5 -20.5zM338 384q42 0 67 23t25 61q0 39 -25 62t-67 23h-120q-6 0 -6 -6v-157q0 -6 6 -6h120zM289 727q-21 0 -36 9.5t-29 26.5l-64 74q-12 13 -12 30q0 18 12.5 29t29.5 11q21 0 39 -18l59 -57h2l59 57q18 18 39 18q17 0 29.5 -11t12.5 -29q0 -17 -12 -30l-64 -74
q-14 -17 -29 -26.5t-36 -9.5z" />
    <glyph glyph-name="rcaron" unicode="&#x159;" horiz-adv-x="428" 
d="M133 -6q-31 0 -50.5 19.5t-19.5 54.5v348q0 35 19.5 54.5t50.5 19.5q25 0 43.5 -14t24.5 -40v-1h1q17 24 48.5 42t73.5 18q17 0 29 -2.5t22 -7.5q19 -9 28 -24t9 -33q0 -31 -19 -51t-50 -20q-13 0 -30 5t-36 5q-39 0 -56.5 -26.5t-17.5 -75.5v-197q0 -35 -20 -54.5
t-50 -19.5zM234 531q-21 0 -36 9.5t-29 26.5l-64 74q-12 13 -12 30q0 18 12.5 29t29.5 11q21 0 39 -18l59 -57h2l59 57q18 18 39 18q17 0 29.5 -11t12.5 -29q0 -17 -12 -30l-64 -74q-14 -17 -29 -26.5t-36 -9.5z" />
    <glyph glyph-name="Sacute" unicode="&#x15a;" horiz-adv-x="595" 
d="M291 -11q-72 0 -126 18.5t-88 39.5q-17 11 -26 27.5t-9 34.5q0 27 18.5 46t47.5 19q12 0 23 -3.5t20 -8.5q42 -23 75 -33.5t71 -10.5q54 0 82.5 22.5t28.5 57.5q0 30 -22 49t-83 27l-36 5q-105 14 -160 63.5t-55 140.5q0 47 17 85.5t48.5 65.5t76 42t99.5 15
q57 0 108.5 -13t81.5 -32q35 -22 35 -59q0 -28 -18.5 -46t-45.5 -18q-21 0 -43 11q-25 12 -55 20t-62 8q-45 0 -68.5 -20.5t-23.5 -52.5q0 -29 23 -48t83 -27l36 -5q106 -15 160 -64t54 -142q0 -46 -17 -85.5t-50.5 -68t-83.5 -44.5t-116 -16zM336 761q-19 -22 -47 -22
q-20 0 -35 14t-15 35q0 27 17 45l51 57q20 21 46 21q21 0 37 -13.5t16 -36.5q0 -27 -17 -44z" />
    <glyph glyph-name="sacute" unicode="&#x15b;" horiz-adv-x="505" 
d="M250 -11q-57 0 -102 13.5t-75 32.5q-34 21 -34 56q0 23 17 39.5t41 16.5q18 0 41 -13q26 -15 55 -25t64 -10q38 0 56.5 12.5t18.5 32.5q0 17 -13.5 26.5t-56.5 14.5l-53 6q-79 9 -118.5 47t-39.5 101q0 72 52 114t148 42q41 0 78.5 -8t68.5 -24q41 -21 41 -55
q0 -23 -15 -39t-40 -16q-8 0 -17 2.5t-23 9.5q-45 21 -98 21q-32 0 -46.5 -10.5t-14.5 -27.5t13 -26.5t54 -13.5l53 -6q86 -10 123.5 -48t37.5 -99q0 -75 -56.5 -120.5t-159.5 -45.5zM299 565q-19 -25 -47 -25q-22 0 -37 13t-15 36q0 11 2.5 20.5t10.5 20.5l43 61
q18 24 47 24q20 0 36.5 -14t16.5 -37q0 -12 -2.5 -20.5t-10.5 -19.5z" />
    <glyph glyph-name="Scircumflex" unicode="&#x15c;" horiz-adv-x="595" 
d="M291 -11q-72 0 -126 18.5t-88 39.5q-17 11 -26 27.5t-9 34.5q0 27 18.5 46t47.5 19q12 0 23 -3.5t20 -8.5q42 -23 75 -33.5t71 -10.5q54 0 82.5 22.5t28.5 57.5q0 30 -22 49t-83 27l-36 5q-105 14 -160 63.5t-55 140.5q0 47 17 85.5t48.5 65.5t76 42t99.5 15
q57 0 108.5 -13t81.5 -32q35 -22 35 -59q0 -28 -18.5 -46t-45.5 -18q-21 0 -43 11q-25 12 -55 20t-62 8q-45 0 -68.5 -20.5t-23.5 -52.5q0 -29 23 -48t83 -27l36 -5q106 -15 160 -64t54 -142q0 -46 -17 -85.5t-50.5 -68t-83.5 -44.5t-116 -16zM398 735q-21 0 -39 18l-59 57
h-2l-59 -57q-18 -18 -39 -18q-17 0 -29.5 11t-12.5 29q0 16 12 30l64 74q14 17 29 26.5t36 9.5t36 -9.5t29 -26.5l64 -74q12 -14 12 -30q0 -18 -12.5 -29t-29.5 -11z" />
    <glyph glyph-name="scircumflex" unicode="&#x15d;" horiz-adv-x="505" 
d="M250 -11q-57 0 -102 13.5t-75 32.5q-34 21 -34 56q0 23 17 39.5t41 16.5q18 0 41 -13q26 -15 55 -25t64 -10q38 0 56.5 12.5t18.5 32.5q0 17 -13.5 26.5t-56.5 14.5l-53 6q-79 9 -118.5 47t-39.5 101q0 72 52 114t148 42q41 0 78.5 -8t68.5 -24q41 -21 41 -55
q0 -23 -15 -39t-40 -16q-8 0 -17 2.5t-23 9.5q-45 21 -98 21q-32 0 -46.5 -10.5t-14.5 -27.5t13 -26.5t54 -13.5l53 -6q86 -10 123.5 -48t37.5 -99q0 -75 -56.5 -120.5t-159.5 -45.5zM354 538q-21 0 -39 18l-59 57h-2l-59 -57q-18 -18 -39 -18q-17 0 -29.5 11t-12.5 29
q0 16 12 30l64 74q14 17 29 26.5t36 9.5t36 -9.5t29 -26.5l64 -74q12 -14 12 -30q0 -18 -12.5 -29t-29.5 -11z" />
    <glyph glyph-name="Scedilla" unicode="&#x15e;" horiz-adv-x="595" 
d="M306 -138q-6 -20 -20 -29.5t-31 -9.5q-22 0 -39.5 13t-17.5 37q0 12 5 25l35 94q-55 5 -97 21t-70 34q-17 11 -26 27.5t-9 34.5q0 27 18.5 46t47.5 19q12 0 23 -3.5t20 -8.5q42 -23 75 -33.5t71 -10.5q54 0 82.5 22.5t28.5 57.5q0 30 -22 49t-83 27l-36 5
q-105 14 -160 63.5t-55 140.5q0 47 17 85.5t48.5 65.5t76 42t99.5 15q57 0 108.5 -13t81.5 -32q35 -22 35 -59q0 -28 -18.5 -46t-45.5 -18q-21 0 -43 11q-25 12 -55 20t-62 8q-45 0 -68.5 -20.5t-23.5 -52.5q0 -29 23 -48t83 -27l36 -5q106 -15 160 -64t54 -142
q0 -81 -50 -137.5t-150 -71.5z" />
    <glyph glyph-name="scedilla" unicode="&#x15f;" horiz-adv-x="505" 
d="M274 -138q-6 -20 -20 -29.5t-31 -9.5q-22 0 -39.5 13t-17.5 37q0 12 5 25l35 93q-44 6 -76 17t-57 27q-34 21 -34 56q0 23 17 39.5t41 16.5q18 0 41 -13q26 -15 55 -25t64 -10q38 0 56.5 12.5t18.5 32.5q0 17 -13.5 26.5t-56.5 14.5l-53 6q-79 9 -118.5 47t-39.5 101
q0 72 52 114t148 42q41 0 78.5 -8t68.5 -24q41 -21 41 -55q0 -23 -15 -39t-40 -16q-8 0 -17 2.5t-23 9.5q-45 21 -98 21q-32 0 -46.5 -10.5t-14.5 -27.5t13 -26.5t54 -13.5l53 -6q86 -10 123.5 -48t37.5 -99q0 -60 -37 -102t-108 -57z" />
    <glyph glyph-name="Scaron" unicode="&#x160;" horiz-adv-x="595" 
d="M291 -11q-72 0 -126 18.5t-88 39.5q-17 11 -26 27.5t-9 34.5q0 27 18.5 46t47.5 19q12 0 23 -3.5t20 -8.5q42 -23 75 -33.5t71 -10.5q54 0 82.5 22.5t28.5 57.5q0 30 -22 49t-83 27l-36 5q-105 14 -160 63.5t-55 140.5q0 47 17 85.5t48.5 65.5t76 42t99.5 15
q57 0 108.5 -13t81.5 -32q35 -22 35 -59q0 -28 -18.5 -46t-45.5 -18q-21 0 -43 11q-25 12 -55 20t-62 8q-45 0 -68.5 -20.5t-23.5 -52.5q0 -29 23 -48t83 -27l36 -5q106 -15 160 -64t54 -142q0 -46 -17 -85.5t-50.5 -68t-83.5 -44.5t-116 -16zM296 727q-21 0 -36 9.5
t-29 26.5l-64 74q-12 13 -12 30q0 18 12.5 29t29.5 11q21 0 39 -18l59 -57h2l59 57q18 18 39 18q17 0 29.5 -11t12.5 -29q0 -17 -12 -30l-64 -74q-14 -17 -29 -26.5t-36 -9.5z" />
    <glyph glyph-name="scaron" unicode="&#x161;" horiz-adv-x="505" 
d="M250 -11q-57 0 -102 13.5t-75 32.5q-34 21 -34 56q0 23 17 39.5t41 16.5q18 0 41 -13q26 -15 55 -25t64 -10q38 0 56.5 12.5t18.5 32.5q0 17 -13.5 26.5t-56.5 14.5l-53 6q-79 9 -118.5 47t-39.5 101q0 72 52 114t148 42q41 0 78.5 -8t68.5 -24q41 -21 41 -55
q0 -23 -15 -39t-40 -16q-8 0 -17 2.5t-23 9.5q-45 21 -98 21q-32 0 -46.5 -10.5t-14.5 -27.5t13 -26.5t54 -13.5l53 -6q86 -10 123.5 -48t37.5 -99q0 -75 -56.5 -120.5t-159.5 -45.5zM251 531q-21 0 -36 9.5t-29 26.5l-64 74q-12 13 -12 30q0 18 12.5 29t29.5 11
q21 0 39 -18l59 -57h2l59 57q18 18 39 18q17 0 29.5 -11t12.5 -29q0 -17 -12 -30l-64 -74q-14 -17 -29 -26.5t-36 -9.5z" />
    <glyph glyph-name="Tcommaaccent" unicode="&#x162;" horiz-adv-x="559" 
d="M279 -6q-32 0 -52.5 21.5t-20.5 56.5v471q0 6 -6 6h-115q-34 0 -54 18t-20 47t20 47.5t54 18.5h389q34 0 54 -18.5t20 -47.5t-20 -47t-54 -18h-115q-6 0 -6 -6v-471q0 -35 -21 -56.5t-53 -21.5zM306 -194q-16 -47 -55 -47q-26 0 -43 15t-17 41q0 12 5 27l22 69
q15 47 55 47q25 0 42.5 -14.5t17.5 -41.5q0 -12 -5 -27z" />
    <glyph glyph-name="tcommaaccent" unicode="&#x163;" horiz-adv-x="331" 
d="M228 -6q-86 0 -120.5 39.5t-34.5 122.5v218q0 6 -7 6h-4q-27 0 -41.5 14.5t-14.5 37.5t14.5 37.5t41.5 14.5h4q7 0 7 6v72q0 35 19.5 54.5t50.5 19.5q30 0 49.5 -19.5t19.5 -54.5v-72q0 -6 6 -6h38q27 0 41.5 -14.5t14.5 -37.5t-14.5 -37.5t-41.5 -14.5h-38q-6 0 -6 -6
v-214q0 -22 8.5 -32t28.5 -12q33 -4 47.5 -21.5t14.5 -40.5q0 -26 -18.5 -43t-58.5 -17h-6zM212 -194q-16 -47 -55 -47q-26 0 -43 15t-17 41q0 12 5 27l22 69q15 47 55 47q25 0 42.5 -14.5t17.5 -41.5q0 -12 -5 -27z" />
    <glyph glyph-name="Tcaron" unicode="&#x164;" horiz-adv-x="559" 
d="M279 -6q-32 0 -52.5 21.5t-20.5 56.5v471q0 6 -6 6h-115q-34 0 -54 18t-20 47t20 47.5t54 18.5h389q34 0 54 -18.5t20 -47.5t-20 -47t-54 -18h-115q-6 0 -6 -6v-471q0 -35 -21 -56.5t-53 -21.5zM277 727q-21 0 -36 9.5t-29 26.5l-64 74q-12 13 -12 30q0 18 12.5 29
t29.5 11q21 0 39 -18l59 -57h2l59 57q18 18 39 18q17 0 29.5 -11t12.5 -29q0 -17 -12 -30l-64 -74q-14 -17 -29 -26.5t-36 -9.5z" />
    <glyph glyph-name="tcaron" unicode="&#x165;" horiz-adv-x="331" 
d="M228 -6q-86 0 -120.5 39.5t-34.5 122.5v218q0 6 -7 6h-4q-27 0 -41.5 14.5t-14.5 37.5t14.5 37.5t41.5 14.5h4q7 0 7 6v72q0 35 19.5 54.5t50.5 19.5q30 0 49.5 -19.5t19.5 -54.5v-72q0 -6 6 -6h38q27 0 41.5 -14.5t14.5 -37.5t-14.5 -37.5t-41.5 -14.5h-38q-6 0 -6 -6
v-214q0 -22 8.5 -32t28.5 -12q33 -4 47.5 -21.5t14.5 -40.5q0 -26 -18.5 -43t-58.5 -17h-6zM384 541q-16 -47 -55 -47q-26 0 -42.5 15t-16.5 41q0 6 1 13t3 14l20 62q16 47 55 47q25 0 42 -15t17 -42q0 -14 -4 -26z" />
    <glyph glyph-name="Tbar" unicode="&#x166;" horiz-adv-x="559" 
d="M279 -6q-32 0 -52.5 21.5t-20.5 56.5v238q0 6 -6 6h-43q-26 0 -41.5 15t-15.5 39t15.5 39t41.5 15h43q6 0 6 6v113q0 6 -6 6h-115q-34 0 -54 18t-20 47t20 47.5t54 18.5h389q34 0 54 -18.5t20 -47.5t-20 -47t-54 -18h-115q-6 0 -6 -6v-113q0 -6 6 -6h43q26 0 41.5 -15
t15.5 -39t-15.5 -39t-41.5 -15h-43q-6 0 -6 -6v-238q0 -35 -21 -56.5t-53 -21.5z" />
    <glyph glyph-name="tbar" unicode="&#x167;" horiz-adv-x="331" 
d="M228 -6q-86 0 -120.5 39.5t-34.5 122.5v75q0 6 -6 6h-4q-21 0 -33.5 12.5t-12.5 32.5t12.5 32t33.5 12h4q6 0 6 6v42q0 6 -7 6h-4q-27 0 -41.5 14.5t-14.5 37.5t14.5 37.5t41.5 14.5h4q7 0 7 6v72q0 35 19.5 54.5t50.5 19.5q30 0 49.5 -19.5t19.5 -54.5v-72q0 -6 6 -6h38
q27 0 41.5 -14.5t14.5 -37.5t-14.5 -37.5t-41.5 -14.5h-38q-6 0 -6 -6v-42q0 -6 6 -6h23q20 0 33 -12t13 -32t-13 -32.5t-33 -12.5h-23q-6 0 -6 -6v-71q0 -22 8.5 -32t28.5 -12q33 -4 47.5 -21.5t14.5 -40.5q0 -26 -18.5 -43t-58.5 -17h-6z" />
    <glyph glyph-name="Utilde" unicode="&#x168;" horiz-adv-x="645" 
d="M323 -11q-60 0 -108 17t-82 50t-52.5 82t-18.5 113v357q0 35 21 56.5t53 21.5t52.5 -21.5t20.5 -56.5v-362q0 -62 32.5 -94.5t81.5 -32.5q51 0 82 33t31 94v362q0 35 20.5 56.5t52.5 21.5t53 -21.5t21 -56.5v-357q0 -64 -19 -113t-53.5 -82t-82.5 -50t-105 -17zM382 748
q-22 0 -38 6t-32 16q-17 11 -25.5 14t-17.5 3q-10 0 -16.5 -3.5t-16.5 -12.5q-18 -16 -36 -16q-19 0 -31 12t-12 30q0 20 14 39q23 28 45.5 39t45.5 11q22 0 38 -6t32 -16q17 -11 25.5 -14t17.5 -3q10 0 16.5 3.5t16.5 12.5q18 16 36 16q19 0 31 -12t12 -30q0 -20 -14 -39
q-23 -28 -45.5 -39t-45.5 -11z" />
    <glyph glyph-name="utilde" unicode="&#x169;" horiz-adv-x="549" 
d="M416 -6q-25 0 -43 13.5t-24 37.5h-1q-18 -23 -49.5 -39.5t-78.5 -16.5q-40 0 -70.5 13.5t-50.5 37.5t-30.5 57t-10.5 72v247q0 35 20 54.5t51 19.5q30 0 49.5 -19.5t19.5 -54.5v-220q0 -40 18 -64t56 -24q37 0 55.5 24t18.5 64v220q0 35 19.5 54.5t50.5 19.5
q30 0 50 -19.5t20 -54.5v-348q0 -35 -19.5 -54.5t-50.5 -19.5zM332 553q-22 0 -38 6t-32 16q-17 11 -25.5 14t-17.5 3q-10 0 -16.5 -3.5t-16.5 -12.5q-18 -16 -36 -16q-19 0 -31 12t-12 30q0 20 14 39q23 28 45.5 39t45.5 11q22 0 38 -6t32 -16q17 -11 25.5 -14t17.5 -3
q10 0 16.5 3.5t16.5 12.5q18 16 36 16q19 0 31 -12t12 -30q0 -20 -14 -39q-23 -28 -45.5 -39t-45.5 -11z" />
    <glyph glyph-name="Umacron" unicode="&#x16a;" horiz-adv-x="645" 
d="M323 -11q-60 0 -108 17t-82 50t-52.5 82t-18.5 113v357q0 35 21 56.5t53 21.5t52.5 -21.5t20.5 -56.5v-362q0 -62 32.5 -94.5t81.5 -32.5q51 0 82 33t31 94v362q0 35 20.5 56.5t52.5 21.5t53 -21.5t21 -56.5v-357q0 -64 -19 -113t-53.5 -82t-82.5 -50t-105 -17zM216 769
q-26 0 -39.5 14t-13.5 35q0 22 13.5 36t39.5 14h213q25 0 38.5 -14t13.5 -36q0 -21 -13.5 -35t-38.5 -14h-213z" />
    <glyph glyph-name="umacron" unicode="&#x16b;" horiz-adv-x="549" 
d="M416 -6q-25 0 -43 13.5t-24 37.5h-1q-18 -23 -49.5 -39.5t-78.5 -16.5q-40 0 -70.5 13.5t-50.5 37.5t-30.5 57t-10.5 72v247q0 35 20 54.5t51 19.5q30 0 49.5 -19.5t19.5 -54.5v-220q0 -40 18 -64t56 -24q37 0 55.5 24t18.5 64v220q0 35 19.5 54.5t50.5 19.5
q30 0 50 -19.5t20 -54.5v-348q0 -35 -19.5 -54.5t-50.5 -19.5zM167 575q-26 0 -39.5 14t-13.5 35q0 22 13.5 36t39.5 14h213q25 0 38.5 -14t13.5 -36q0 -21 -13.5 -35t-38.5 -14h-213z" />
    <glyph glyph-name="Ubreve" unicode="&#x16c;" horiz-adv-x="645" 
d="M323 -11q-60 0 -108 17t-82 50t-52.5 82t-18.5 113v357q0 35 21 56.5t53 21.5t52.5 -21.5t20.5 -56.5v-362q0 -62 32.5 -94.5t81.5 -32.5q51 0 82 33t31 94v362q0 35 20.5 56.5t52.5 21.5t53 -21.5t21 -56.5v-357q0 -64 -19 -113t-53.5 -82t-82.5 -50t-105 -17zM322 743
q-32 0 -59 9t-47 25t-31 36.5t-11 44.5q0 18 10.5 29t27.5 11t25 -8t16 -22q11 -19 29 -27t40 -8t40 8t29 27q8 14 16 22t25 8t27.5 -11t10.5 -29q0 -24 -11 -44.5t-31 -36.5t-47 -25t-59 -9z" />
    <glyph glyph-name="ubreve" unicode="&#x16d;" horiz-adv-x="549" 
d="M416 -6q-25 0 -43 13.5t-24 37.5h-1q-18 -23 -49.5 -39.5t-78.5 -16.5q-40 0 -70.5 13.5t-50.5 37.5t-30.5 57t-10.5 72v247q0 35 20 54.5t51 19.5q30 0 49.5 -19.5t19.5 -54.5v-220q0 -40 18 -64t56 -24q37 0 55.5 24t18.5 64v220q0 35 19.5 54.5t50.5 19.5
q30 0 50 -19.5t20 -54.5v-348q0 -35 -19.5 -54.5t-50.5 -19.5zM274 545q-32 0 -59 9t-47 25t-31 36.5t-11 44.5q0 18 10.5 29t27.5 11t25 -8t16 -22q11 -19 29 -27t40 -8t40 8t29 27q8 14 16 22t25 8t27.5 -11t10.5 -29q0 -24 -11 -44.5t-31 -36.5t-47 -25t-59 -9z" />
    <glyph glyph-name="Uring" unicode="&#x16e;" horiz-adv-x="645" 
d="M323 -11q-60 0 -108 17t-82 50t-52.5 82t-18.5 113v357q0 35 21 56.5t53 21.5t52.5 -21.5t20.5 -56.5v-362q0 -62 32.5 -94.5t81.5 -32.5q51 0 82 33t31 94v362q0 35 20.5 56.5t52.5 21.5t53 -21.5t21 -56.5v-357q0 -64 -19 -113t-53.5 -82t-82.5 -50t-105 -17zM322 712
q-47 0 -77.5 30t-30.5 77t30.5 77t77.5 30t77.5 -30t30.5 -77t-30.5 -77t-77.5 -30zM322 771q20 0 33 13.5t13 34.5t-13 34.5t-33 13.5t-33 -13.5t-13 -34.5t13 -34.5t33 -13.5z" />
    <glyph glyph-name="uring" unicode="&#x16f;" horiz-adv-x="549" 
d="M416 -6q-25 0 -43 13.5t-24 37.5h-1q-18 -23 -49.5 -39.5t-78.5 -16.5q-40 0 -70.5 13.5t-50.5 37.5t-30.5 57t-10.5 72v247q0 35 20 54.5t51 19.5q30 0 49.5 -19.5t19.5 -54.5v-220q0 -40 18 -64t56 -24q37 0 55.5 24t18.5 64v220q0 35 19.5 54.5t50.5 19.5
q30 0 50 -19.5t20 -54.5v-348q0 -35 -19.5 -54.5t-50.5 -19.5zM274 524q-47 0 -77.5 30t-30.5 77t30.5 77t77.5 30t77.5 -30t30.5 -77t-30.5 -77t-77.5 -30zM274 583q20 0 33 13.5t13 34.5t-13 34.5t-33 13.5t-33 -13.5t-13 -34.5t13 -34.5t33 -13.5z" />
    <glyph glyph-name="Uhungarumlaut" unicode="&#x170;" horiz-adv-x="645" 
d="M323 -11q-60 0 -108 17t-82 50t-52.5 82t-18.5 113v357q0 35 21 56.5t53 21.5t52.5 -21.5t20.5 -56.5v-362q0 -62 32.5 -94.5t81.5 -32.5q51 0 82 33t31 94v362q0 35 20.5 56.5t52.5 21.5t53 -21.5t21 -56.5v-357q0 -64 -19 -113t-53.5 -82t-82.5 -50t-105 -17zM466 776
q-18 -27 -46 -27q-20 0 -37 13.5t-17 36.5q0 20 14 40l36 54q9 14 21.5 20t25.5 6q20 0 36.5 -14t16.5 -37q0 -20 -13 -39zM290 776q-18 -27 -46 -27q-20 0 -37 13.5t-17 36.5q0 20 14 40l36 54q9 14 21.5 20t25.5 6q20 0 36.5 -14t16.5 -37q0 -20 -13 -39z" />
    <glyph glyph-name="uhungarumlaut" unicode="&#x171;" horiz-adv-x="549" 
d="M416 -6q-25 0 -43 13.5t-24 37.5h-1q-18 -23 -49.5 -39.5t-78.5 -16.5q-40 0 -70.5 13.5t-50.5 37.5t-30.5 57t-10.5 72v247q0 35 20 54.5t51 19.5q30 0 49.5 -19.5t19.5 -54.5v-220q0 -40 18 -64t56 -24q37 0 55.5 24t18.5 64v220q0 35 19.5 54.5t50.5 19.5
q30 0 50 -19.5t20 -54.5v-348q0 -35 -19.5 -54.5t-50.5 -19.5zM418 567q-19 -31 -48 -31q-21 0 -37 14t-16 37q0 18 11 37l38 64q9 16 22 23t27 7q21 0 37 -14t16 -37q0 -17 -11 -36zM241 567q-19 -31 -48 -31q-21 0 -37 14t-16 37q0 18 11 37l38 64q9 16 22 23t27 7
q21 0 37 -14t16 -37q0 -17 -11 -36z" />
    <glyph glyph-name="Uogonek" unicode="&#x172;" horiz-adv-x="645" 
d="M336 -191q-49 0 -77.5 25t-28.5 69q0 47 34 91q-94 15 -148 80t-54 177v357q0 35 21 56.5t53 21.5t52.5 -21.5t20.5 -56.5v-362q0 -62 32.5 -94.5t81.5 -32.5q51 0 82 33t31 94v362q0 35 20.5 56.5t52.5 21.5t53 -21.5t21 -56.5v-357q0 -56 -14.5 -100.5t-41.5 -77
t-65 -52.5t-84 -27q-26 -33 -32.5 -48t-6.5 -23q0 -18 16 -18q6 0 14 3q5 2 10 3t11 1q17 0 28 -12.5t11 -30.5q0 -13 -6 -24.5t-20 -19.5q-27 -16 -67 -16z" />
    <glyph glyph-name="uogonek" unicode="&#x173;" horiz-adv-x="549" 
d="M390 -191q-49 0 -77.5 25t-28.5 69q0 29 17.5 57.5t59.5 57.5q-4 6 -7 12.5t-5 14.5h-1q-18 -23 -49.5 -39.5t-78.5 -16.5q-40 0 -70.5 13.5t-50.5 37.5t-30.5 57t-10.5 72v247q0 35 20 54.5t51 19.5q30 0 49.5 -19.5t19.5 -54.5v-220q0 -40 18 -64t56 -24q37 0 55.5 24
t18.5 64v220q0 35 19.5 54.5t50.5 19.5q30 0 50 -19.5t20 -54.5v-348q0 -17 -4 -30.5t-16 -24.5q-24 -22 -38.5 -37t-22 -25.5t-10 -17t-2.5 -10.5q0 -18 16 -18q6 0 14 3q5 2 10 3t11 1q17 0 28 -12.5t11 -30.5q0 -13 -6 -24.5t-20 -19.5q-27 -16 -67 -16z" />
    <glyph glyph-name="Wcircumflex" unicode="&#x174;" horiz-adv-x="864" 
d="M615 -6q-31 0 -49.5 17.5t-30.5 59.5l-103 361h-2l-101 -361q-11 -42 -30 -59.5t-50 -17.5q-30 0 -49.5 17.5t-30.5 59.5l-140 516q-2 7 -3 15t-1 14q0 30 19.5 50t52.5 20q26 0 44.5 -15.5t27.5 -52.5l89 -376h2l103 381q18 63 69 63q52 0 70 -63l106 -381h2l86 376
q8 37 27 52.5t45 15.5q33 0 52 -20t19 -50q0 -6 -1 -14t-3 -15l-140 -516q-11 -42 -30.5 -59.5t-49.5 -17.5zM531 735q-21 0 -39 18l-59 57h-2l-59 -57q-18 -18 -39 -18q-17 0 -29.5 11t-12.5 29q0 16 12 30l64 74q14 17 29 26.5t36 9.5t36 -9.5t29 -26.5l64 -74
q12 -14 12 -30q0 -18 -12.5 -29t-29.5 -11z" />
    <glyph glyph-name="wcircumflex" unicode="&#x175;" horiz-adv-x="765" 
d="M532 -6q-60 0 -79 65l-69 232h-2l-70 -232q-21 -65 -77 -65q-57 0 -79 65l-113 335q-5 17 -5 29q0 29 19.5 48t48.5 19q50 0 67 -59l70 -245h2l69 244q18 60 69 60q50 0 68 -60l73 -244h2l67 245q17 59 67 59q29 0 48 -19t19 -48q0 -12 -5 -29l-113 -335q-22 -65 -77 -65
zM482 538q-21 0 -39 18l-59 57h-2l-59 -57q-18 -18 -39 -18q-17 0 -29.5 11t-12.5 29q0 16 12 30l64 74q14 17 29 26.5t36 9.5t36 -9.5t29 -26.5l64 -74q12 -14 12 -30q0 -18 -12.5 -29t-29.5 -11z" />
    <glyph glyph-name="Ycircumflex" unicode="&#x176;" horiz-adv-x="567" 
d="M283 -6q-31 0 -52 21t-21 57v198l-174 310q-11 20 -11 40q0 29 20 47.5t49 18.5q41 0 65 -44l124 -233h3l125 233q23 44 65 44q29 0 48 -18.5t19 -47.5q0 -20 -11 -40l-175 -310v-198q0 -36 -21 -57t-53 -21zM382 735q-21 0 -39 18l-59 57h-2l-59 -57q-18 -18 -39 -18
q-17 0 -29.5 11t-12.5 29q0 16 12 30l64 74q14 17 29 26.5t36 9.5t36 -9.5t29 -26.5l64 -74q12 -14 12 -30q0 -18 -12.5 -29t-29.5 -11z" />
    <glyph glyph-name="ycircumflex" unicode="&#x177;" horiz-adv-x="507" 
d="M120 -180q-30 0 -47.5 16.5t-17.5 42.5t17 42.5t48 17.5q23 1 36.5 12t22.5 37l13 36l-155 367q-7 17 -7 33q0 29 20 47.5t49 18.5q25 0 40.5 -13t24.5 -36l93 -247h2l86 247q17 49 64 49q29 0 48.5 -18.5t19.5 -47.5q0 -16 -7 -33l-173 -433q-16 -39 -32.5 -65.5
t-36.5 -42.5t-44.5 -23t-57.5 -7h-6zM354 538q-21 0 -39 18l-59 57h-2l-59 -57q-18 -18 -39 -18q-17 0 -29.5 11t-12.5 29q0 16 12 30l64 74q14 17 29 26.5t36 9.5t36 -9.5t29 -26.5l64 -74q12 -14 12 -30q0 -18 -12.5 -29t-29.5 -11z" />
    <glyph glyph-name="Ydieresis" unicode="&#x178;" horiz-adv-x="567" 
d="M283 -6q-31 0 -52 21t-21 57v198l-174 310q-11 20 -11 40q0 29 20 47.5t49 18.5q41 0 65 -44l124 -233h3l125 233q23 44 65 44q29 0 48 -18.5t19 -47.5q0 -20 -11 -40l-175 -310v-198q0 -36 -21 -57t-53 -21zM384 748q-30 0 -51 20.5t-21 50.5t21 50.5t51 20.5
q29 0 50 -20.5t21 -50.5t-21 -50.5t-50 -20.5zM183 748q-30 0 -51 20.5t-21 50.5t21 50.5t51 20.5q29 0 50 -20.5t21 -50.5t-21 -50.5t-50 -20.5z" />
    <glyph glyph-name="Zacute" unicode="&#x179;" horiz-adv-x="546" 
d="M111 0q-38 0 -57.5 20.5t-19.5 49.5q0 13 2.5 24.5t8 24t14.5 27t22 32.5l250 369v2h-216q-33 0 -51.5 18t-18.5 47t18.5 47.5t51.5 18.5h320q38 0 57.5 -20.5t19.5 -49.5q0 -11 -2 -21.5t-6.5 -22t-13 -25.5t-21.5 -33l-254 -375v-2h227q34 0 52 -18.5t18 -47.5t-18 -47
t-52 -18h-331zM316 761q-19 -22 -47 -22q-20 0 -35 14t-15 35q0 27 17 45l51 57q20 21 46 21q21 0 37 -13.5t16 -36.5q0 -27 -17 -44z" />
    <glyph glyph-name="zacute" unicode="&#x17a;" horiz-adv-x="478" 
d="M93 0q-29 0 -46 16t-17 44q0 20 11 40t34 46l196 219v2h-164q-31 0 -47 16t-16 42t16 42.5t47 16.5h279q28 0 45 -16t17 -44q0 -20 -10.5 -40.5t-33.5 -46.5l-195 -218v-2h177q30 0 46 -16.5t16 -42.5t-16 -42t-46 -16h-293zM293 565q-19 -25 -47 -25q-22 0 -37 13
t-15 36q0 11 2.5 20.5t10.5 20.5l43 61q18 24 47 24q20 0 36.5 -14t16.5 -37q0 -12 -2.5 -20.5t-10.5 -19.5z" />
    <glyph glyph-name="Zdotaccent" unicode="&#x17b;" horiz-adv-x="546" 
d="M111 0q-38 0 -57.5 20.5t-19.5 49.5q0 13 2.5 24.5t8 24t14.5 27t22 32.5l250 369v2h-216q-33 0 -51.5 18t-18.5 47t18.5 47.5t51.5 18.5h320q38 0 57.5 -20.5t19.5 -49.5q0 -11 -2 -21.5t-6.5 -22t-13 -25.5t-21.5 -33l-254 -375v-2h227q34 0 52 -18.5t18 -47.5t-18 -47
t-52 -18h-331zM275 737q-33 0 -56 23t-23 56t23 56t56 23t56 -23t23 -56t-23 -56t-56 -23z" />
    <glyph glyph-name="zdotaccent" unicode="&#x17c;" horiz-adv-x="478" 
d="M93 0q-29 0 -46 16t-17 44q0 20 11 40t34 46l196 219v2h-164q-31 0 -47 16t-16 42t16 42.5t47 16.5h279q28 0 45 -16t17 -44q0 -20 -10.5 -40.5t-33.5 -46.5l-195 -218v-2h177q30 0 46 -16.5t16 -42.5t-16 -42t-46 -16h-293zM244 533q-33 0 -56 23t-23 56t23 56t56 23
t56 -23t23 -56t-23 -56t-56 -23z" />
    <glyph glyph-name="Zcaron" unicode="&#x17d;" horiz-adv-x="546" 
d="M111 0q-38 0 -57.5 20.5t-19.5 49.5q0 13 2.5 24.5t8 24t14.5 27t22 32.5l250 369v2h-216q-33 0 -51.5 18t-18.5 47t18.5 47.5t51.5 18.5h320q38 0 57.5 -20.5t19.5 -49.5q0 -11 -2 -21.5t-6.5 -22t-13 -25.5t-21.5 -33l-254 -375v-2h227q34 0 52 -18.5t18 -47.5t-18 -47
t-52 -18h-331zM275 727q-21 0 -36 9.5t-29 26.5l-64 74q-12 13 -12 30q0 18 12.5 29t29.5 11q21 0 39 -18l59 -57h2l59 57q18 18 39 18q17 0 29.5 -11t12.5 -29q0 -17 -12 -30l-64 -74q-14 -17 -29 -26.5t-36 -9.5z" />
    <glyph glyph-name="zcaron" unicode="&#x17e;" horiz-adv-x="478" 
d="M93 0q-29 0 -46 16t-17 44q0 20 11 40t34 46l196 219v2h-164q-31 0 -47 16t-16 42t16 42.5t47 16.5h279q28 0 45 -16t17 -44q0 -20 -10.5 -40.5t-33.5 -46.5l-195 -218v-2h177q30 0 46 -16.5t16 -42.5t-16 -42t-46 -16h-293zM245 531q-21 0 -36 9.5t-29 26.5l-64 74
q-12 13 -12 30q0 18 12.5 29t29.5 11q21 0 39 -18l59 -57h2l59 57q18 18 39 18q17 0 29.5 -11t12.5 -29q0 -17 -12 -30l-64 -74q-14 -17 -29 -26.5t-36 -9.5z" />
    <glyph glyph-name="florin" unicode="&#x192;" horiz-adv-x="536" 
d="M346 313l-49 -325q-14 -90 -58 -129t-129 -39h-6q-30 0 -46.5 16t-16.5 42t16.5 42.5t46.5 16.5q23 0 37 13t19 43l49 320h-20q-27 0 -42 14.5t-15 37.5t15 37.5t42 14.5h36l15 95q14 90 57.5 129t129.5 39h6q29 0 45.5 -16t16.5 -42t-16.5 -42.5t-45.5 -16.5
q-24 0 -38 -13t-19 -43l-14 -90h41q26 0 41 -14.5t15 -37.5t-15 -37.5t-41 -14.5h-57z" />
    <glyph glyph-name="Aringacute" unicode="&#x1fa;" horiz-adv-x="644" 
d="M372 775q-18 -15 -38 -15t-36 14t-16 37q0 25 24 46l46 40q16 15 38 15q20 0 36 -14t16 -37q0 -26 -26 -48zM540 -6q-24 0 -42.5 13.5t-26.5 38.5l-28 83h-243l-27 -83q-8 -25 -26.5 -38.5t-42.5 -13.5q-28 0 -49.5 18.5t-21.5 50.5q0 15 5 28l161 447q9 28 32 39
q-17 26 -17 60q0 47 30.5 76.5t76.5 29.5q47 0 77.5 -29.5t30.5 -76.5q0 -32 -16 -59q23 -10 34 -41l159 -446q5 -13 5 -28q0 -32 -21.5 -50.5t-49.5 -18.5zM321 589q21 0 34 13.5t13 34.5t-13 34.5t-34 13.5q-20 0 -33 -13.5t-13 -34.5t13 -34.5t33 -13.5zM242 254h160
l-78 237h-3z" />
    <glyph glyph-name="aringacute" unicode="&#x1fb;" horiz-adv-x="528" 
d="M320 775q-18 -15 -38 -15t-36 14t-16 37q0 25 24 46l46 40q16 15 38 15q20 0 36 -14t16 -37q0 -26 -26 -48zM491 100q12 -20 12 -41q0 -28 -20.5 -46.5t-49.5 -18.5q-38 0 -57 27l-12 17h-1q-19 -23 -55.5 -36t-81.5 -13q-94 0 -139 39.5t-45 108.5q0 80 55 118t145 38
h87q6 0 6 6v5q0 34 -24 53t-75 19q-23 0 -43.5 -4.5t-34.5 -9.5q-9 -3 -17 -5t-16 -2q-25 0 -40.5 15t-15.5 41q0 16 8 31t28 25q24 12 60.5 20t87.5 8q110 0 163 -52t53 -143v-132q0 -17 2 -27t7 -19zM245 94q90 0 90 67v33q0 6 -6 6h-68q-86 0 -86 -55q0 -51 70 -51z
M266 524q-47 0 -77.5 30t-30.5 77t30.5 77t77.5 30t77.5 -30t30.5 -77t-30.5 -77t-77.5 -30zM266 583q20 0 33 13.5t13 34.5t-13 34.5t-33 13.5t-33 -13.5t-13 -34.5t13 -34.5t33 -13.5z" />
    <glyph glyph-name="AEacute" unicode="&#x1fc;" horiz-adv-x="925" 
d="M489 0q-29 0 -46.5 17.5t-17.5 46.5v59q0 6 -6 6h-202l-43 -88q-23 -47 -69 -47q-29 0 -51 18.5t-22 50.5q0 19 11 43l257 507q17 35 42 51t65 16h412q31 0 49.5 -18t18.5 -46t-18.5 -46t-49.5 -18h-240q-6 0 -6 -6v-134q0 -6 6 -6h192q31 0 49 -17.5t18 -45.5t-18 -45.5
t-49 -17.5h-192q-6 0 -6 -6v-140q0 -6 6 -6h240q31 0 49.5 -18t18.5 -46t-18.5 -46t-49.5 -18h-330zM277 254h142q6 0 6 6v292h-3zM512 761q-19 -22 -47 -22q-20 0 -35 14t-15 35q0 27 17 45l51 57q20 21 46 21q21 0 37 -13.5t16 -36.5q0 -27 -17 -44z" />
    <glyph glyph-name="aeacute" unicode="&#x1fd;" horiz-adv-x="816" 
d="M560 -11q-53 0 -95.5 15t-71.5 44h-1q-35 -35 -73.5 -47t-92.5 -12q-94 0 -139 39.5t-45 108.5q0 80 55 118t145 38h87q6 0 6 6v5q0 34 -24 53t-75 19q-23 0 -43.5 -4.5t-34.5 -9.5q-9 -3 -17 -5t-16 -2q-25 0 -40.5 15t-15.5 41q0 16 8 31t28 25q24 12 60.5 20t87.5 8
q101 0 154 -45h1q29 23 65 34t79 11q81 0 134.5 -35.5t74.5 -100.5q8 -26 12 -52.5t4 -60.5q0 -20 -12 -33t-34 -13h-257q-6 0 -6 -6q0 -13 5 -28q10 -31 36 -47t64 -16q25 0 48 7t43 18q25 15 48 15q22 0 36.5 -14.5t14.5 -37.5q0 -31 -28 -50q-35 -24 -76.5 -38t-98.5 -14
zM633 293q6 0 6 6q0 12 -1.5 20t-3.5 16q-8 26 -29.5 39.5t-51.5 13.5t-51 -13.5t-29 -39.5q-2 -8 -3.5 -16t-1.5 -20q0 -6 6 -6h159zM245 94q90 0 90 67v33q0 6 -6 6h-68q-86 0 -86 -55q0 -51 70 -51zM466 565q-19 -25 -47 -25q-22 0 -37 13t-15 36q0 11 2.5 20.5
t10.5 20.5l43 61q18 24 47 24q20 0 36.5 -14t16.5 -37q0 -12 -2.5 -20.5t-10.5 -19.5z" />
    <glyph glyph-name="Oslashacute" unicode="&#x1fe;" horiz-adv-x="628" 
d="M142 -13q-14 -23 -37 -23q-16 0 -27.5 10.5t-11.5 28.5q0 13 8 26l31 50q-12 16 -22 34.5t-17 40.5q-6 18 -9.5 35t-5.5 38t-3 48t-1 65q0 37 1 64t3 48t5.5 38.5t9.5 35.5q27 83 92.5 124t155.5 41q86 0 148 -37l24 39q14 23 37 23q16 0 27.5 -10.5t11.5 -28.5
q0 -13 -8 -26l-31 -51q24 -31 39 -74q6 -18 9.5 -35.5t5.5 -38.5t3 -48t1 -64q0 -38 -1 -65t-3 -48t-5.5 -38t-9.5 -35q-27 -83 -92.5 -124t-155.5 -41q-87 0 -148 36zM194 340q0 -43 1 -70.5t3 -45.5l190 315q-29 23 -74 23q-42 0 -70 -19.5t-39 -54.5q-3 -9 -5 -21
t-3.5 -29.5t-2 -41t-0.5 -56.5zM314 118q42 0 70 19.5t39 54.5q3 9 5 21t3.5 29.5t2 41t0.5 56.5q0 42 -1 69t-3 45l-189 -314q28 -22 73 -22zM364 761q-19 -22 -47 -22q-20 0 -35 14t-15 35q0 27 17 45l51 57q20 21 46 21q21 0 37 -13.5t16 -36.5q0 -27 -17 -44z" />
    <glyph glyph-name="oslashacute" unicode="&#x1ff;" horiz-adv-x="530" 
d="M84 -36q-11 0 -20 8t-9 20t9 24l30 41q-25 28 -39 71q-8 26 -12 52.5t-4 61.5t4 61.5t12 52.5q22 67 76 103t134 36q72 0 122 -29l29 39q12 16 28 16q11 0 20 -8t9 -20t-9 -24l-30 -41q28 -31 41 -72q8 -26 12 -52.5t4 -61.5t-4 -61.5t-12 -52.5q-22 -67 -76 -103
t-134 -36q-74 0 -125 30l-28 -39q-12 -16 -28 -16zM179 242q0 -19 1 -35.5t3 -30.5l130 188q-20 14 -48 14q-29 0 -49 -14t-28 -40q-5 -16 -7 -36.5t-2 -45.5zM265 106q29 0 49 14t28 40q5 16 7 36.5t2 45.5q0 19 -1.5 35t-3.5 30l-129 -188q19 -13 48 -13zM318 565
q-19 -25 -47 -25q-22 0 -37 13t-15 36q0 11 2.5 20.5t10.5 20.5l43 61q18 24 47 24q20 0 36.5 -14t16.5 -37q0 -12 -2.5 -20.5t-10.5 -19.5z" />
    <glyph glyph-name="Scommaaccent" unicode="&#x218;" horiz-adv-x="595" 
d="M291 -11q-72 0 -126 18.5t-88 39.5q-17 11 -26 27.5t-9 34.5q0 27 18.5 46t47.5 19q12 0 23 -3.5t20 -8.5q42 -23 75 -33.5t71 -10.5q54 0 82.5 22.5t28.5 57.5q0 30 -22 49t-83 27l-36 5q-105 14 -160 63.5t-55 140.5q0 47 17 85.5t48.5 65.5t76 42t99.5 15
q57 0 108.5 -13t81.5 -32q35 -22 35 -59q0 -28 -18.5 -46t-45.5 -18q-21 0 -43 11q-25 12 -55 20t-62 8q-45 0 -68.5 -20.5t-23.5 -52.5q0 -29 23 -48t83 -27l36 -5q106 -15 160 -64t54 -142q0 -46 -17 -85.5t-50.5 -68t-83.5 -44.5t-116 -16zM329 -194q-16 -47 -55 -47
q-26 0 -43 15t-17 41q0 12 5 27l22 69q15 47 55 47q25 0 42.5 -14.5t17.5 -41.5q0 -12 -5 -27z" />
    <glyph glyph-name="scommaaccent" unicode="&#x219;" horiz-adv-x="505" 
d="M250 -11q-57 0 -102 13.5t-75 32.5q-34 21 -34 56q0 23 17 39.5t41 16.5q18 0 41 -13q26 -15 55 -25t64 -10q38 0 56.5 12.5t18.5 32.5q0 17 -13.5 26.5t-56.5 14.5l-53 6q-79 9 -118.5 47t-39.5 101q0 72 52 114t148 42q41 0 78.5 -8t68.5 -24q41 -21 41 -55
q0 -23 -15 -39t-40 -16q-8 0 -17 2.5t-23 9.5q-45 21 -98 21q-32 0 -46.5 -10.5t-14.5 -27.5t13 -26.5t54 -13.5l53 -6q86 -10 123.5 -48t37.5 -99q0 -75 -56.5 -120.5t-159.5 -45.5zM285 -194q-16 -47 -55 -47q-26 0 -43 15t-17 41q0 12 5 27l22 69q15 47 55 47
q25 0 42.5 -14.5t17.5 -41.5q0 -12 -5 -27z" />
    <glyph glyph-name="uni021A" unicode="&#x21a;" horiz-adv-x="559" 
d="M279 -6q-32 0 -52.5 21.5t-20.5 56.5v471q0 6 -6 6h-115q-34 0 -54 18t-20 47t20 47.5t54 18.5h389q34 0 54 -18.5t20 -47.5t-20 -47t-54 -18h-115q-6 0 -6 -6v-471q0 -35 -21 -56.5t-53 -21.5zM306 -194q-16 -47 -55 -47q-26 0 -43 15t-17 41q0 12 5 27l22 69
q15 47 55 47q25 0 42.5 -14.5t17.5 -41.5q0 -12 -5 -27z" />
    <glyph glyph-name="uni021B" unicode="&#x21b;" horiz-adv-x="331" 
d="M228 -6q-86 0 -120.5 39.5t-34.5 122.5v218q0 6 -7 6h-4q-27 0 -41.5 14.5t-14.5 37.5t14.5 37.5t41.5 14.5h4q7 0 7 6v72q0 35 19.5 54.5t50.5 19.5q30 0 49.5 -19.5t19.5 -54.5v-72q0 -6 6 -6h38q27 0 41.5 -14.5t14.5 -37.5t-14.5 -37.5t-41.5 -14.5h-38q-6 0 -6 -6
v-214q0 -22 8.5 -32t28.5 -12q33 -4 47.5 -21.5t14.5 -40.5q0 -26 -18.5 -43t-58.5 -17h-6zM212 -194q-16 -47 -55 -47q-26 0 -43 15t-17 41q0 12 5 27l22 69q15 47 55 47q25 0 42.5 -14.5t17.5 -41.5q0 -12 -5 -27z" />
    <glyph glyph-name="dotlessj" unicode="&#x237;" horiz-adv-x="266" 
d="M33 -180q-31 0 -47 16.5t-16 42.5q0 50 54 61q23 5 31 16.5t8 38.5v421q0 35 19.5 54.5t50.5 19.5q30 0 50 -19.5t20 -54.5v-420q0 -93 -43.5 -134.5t-126.5 -41.5z" />
    <glyph glyph-name="circumflex" unicode="&#x2c6;" horiz-adv-x="454" 
d="M326 538q-21 0 -39 18l-59 57h-2l-59 -57q-18 -18 -39 -18q-17 0 -29.5 11t-12.5 29q0 16 12 30l64 74q14 17 29 26.5t36 9.5t36 -9.5t29 -26.5l64 -74q12 -14 12 -30q0 -18 -12.5 -29t-29.5 -11z" />
    <glyph glyph-name="caron" unicode="&#x2c7;" horiz-adv-x="454" 
d="M227 531q-21 0 -36 9.5t-29 26.5l-64 74q-12 13 -12 30q0 18 12.5 29t29.5 11q21 0 39 -18l59 -57h2l59 57q18 18 39 18q17 0 29.5 -11t12.5 -29q0 -17 -12 -30l-64 -74q-14 -17 -29 -26.5t-36 -9.5z" />
    <glyph glyph-name="uni02C9" unicode="&#x2c9;" horiz-adv-x="454" 
d="M121 769q-26 0 -39.5 14t-13.5 35q0 22 13.5 36t39.5 14h213q25 0 38.5 -14t13.5 -36q0 -21 -13.5 -35t-38.5 -14h-213z" />
    <glyph glyph-name="breve" unicode="&#x2d8;" horiz-adv-x="454" 
d="M227 545q-32 0 -59 9t-47 25t-31 36.5t-11 44.5q0 18 10.5 29t27.5 11t25 -8t16 -22q11 -19 29 -27t40 -8t40 8t29 27q8 14 16 22t25 8t27.5 -11t10.5 -29q0 -24 -11 -44.5t-31 -36.5t-47 -25t-59 -9z" />
    <glyph glyph-name="dotaccent" unicode="&#x2d9;" horiz-adv-x="454" 
d="M227 533q-33 0 -56 23t-23 56t23 56t56 23t56 -23t23 -56t-23 -56t-56 -23z" />
    <glyph glyph-name="ring" unicode="&#x2da;" horiz-adv-x="454" 
d="M227 524q-47 0 -77.5 30t-30.5 77t30.5 77t77.5 30t77.5 -30t30.5 -77t-30.5 -77t-77.5 -30zM227 583q20 0 33 13.5t13 34.5t-13 34.5t-33 13.5t-33 -13.5t-13 -34.5t13 -34.5t33 -13.5z" />
    <glyph glyph-name="ogonek" unicode="&#x2db;" horiz-adv-x="454" 
d="M236 -191q-49 0 -77.5 25t-28.5 69q0 27 16 52.5t44 44.5q14 10 27 10h102q5 0 6 -4t-4 -6q-46 -24 -64 -43.5t-18 -33.5q0 -18 16 -18q6 0 14 3q5 2 10 3t11 1q17 0 28 -12.5t11 -30.5q0 -13 -6 -24.5t-20 -19.5q-27 -16 -67 -16z" />
    <glyph glyph-name="tilde" unicode="&#x2dc;" horiz-adv-x="454" 
d="M287 553q-22 0 -38 6t-32 16q-17 11 -25.5 14t-17.5 3q-10 0 -16.5 -3.5t-16.5 -12.5q-18 -16 -36 -16q-19 0 -31 12t-12 30q0 20 14 39q23 28 45.5 39t45.5 11q22 0 38 -6t32 -16q17 -11 25.5 -14t17.5 -3q10 0 16.5 3.5t16.5 12.5q18 16 36 16q19 0 31 -12t12 -30
q0 -20 -14 -39q-23 -28 -45.5 -39t-45.5 -11z" />
    <glyph glyph-name="hungarumlaut" unicode="&#x2dd;" horiz-adv-x="454" 
d="M338 567q-19 -31 -48 -31q-21 0 -37 14t-16 37q0 18 11 37l38 64q9 16 22 23t27 7q21 0 37 -14t16 -37q0 -17 -11 -36zM161 567q-19 -31 -48 -31q-21 0 -37 14t-16 37q0 18 11 37l38 64q9 16 22 23t27 7q21 0 37 -14t16 -37q0 -17 -11 -36z" />
    <glyph glyph-name="Delta" unicode="&#x394;" horiz-adv-x="644" 
d="M104 0q-32 0 -51 16.5t-19 46.5q0 14 8 38l180 499q14 41 38 63.5t63 22.5q40 0 64 -22.5t38 -63.5l177 -499q8 -24 8 -38q0 -30 -19.5 -46.5t-51.5 -16.5h-435zM441 121q6 0 5 6l-122 365h-3l-124 -365q-2 -6 5 -6h239z" />
    <glyph glyph-name="Delta" unicode="&#x2206;" horiz-adv-x="644" 
d="M104 0q-32 0 -51 16.5t-19 46.5q0 14 8 38l180 499q14 41 38 63.5t63 22.5q40 0 64 -22.5t38 -63.5l177 -499q8 -24 8 -38q0 -30 -19.5 -46.5t-51.5 -16.5h-435zM441 121q6 0 5 6l-122 365h-3l-124 -365q-2 -6 5 -6h239z" />
    <glyph glyph-name="Delta" unicode="&#x2206;" horiz-adv-x="644" 
d="M104 0q-32 0 -51 16.5t-19 46.5q0 14 8 38l180 499q14 41 38 63.5t63 22.5q40 0 64 -22.5t38 -63.5l177 -499q8 -24 8 -38q0 -30 -19.5 -46.5t-51.5 -16.5h-435zM441 121q6 0 5 6l-122 365h-3l-124 -365q-2 -6 5 -6h239z" />
    <glyph glyph-name="Omega" unicode="&#x3a9;" horiz-adv-x="639" 
d="M413 0q-30 0 -48 17.5t-18 44.5q0 22 8.5 39.5t36.5 43.5q23 22 36 65.5t13 129.5q0 33 -1 56.5t-2.5 40.5t-4 28.5t-5.5 20.5q-11 35 -39 54t-69 19q-85 0 -108 -73q-3 -9 -6 -20.5t-4.5 -28.5t-2.5 -40.5t-1 -56.5q0 -86 13.5 -129.5t36.5 -65.5q28 -26 36.5 -43.5
t8.5 -39.5q0 -27 -18 -44.5t-49 -17.5h-115q-31 0 -49 17.5t-18 44.5q0 28 18 45.5t49 17.5h12v2q-39 28 -56.5 80.5t-17.5 132.5q0 37 1 65t3.5 50t6.5 39t9 33q29 84 94 124t157 40t156.5 -40t93.5 -124q5 -16 9 -33t6.5 -39t3.5 -50t1 -65q0 -80 -17 -132.5t-56 -80.5v-2
h12q30 0 48 -17.5t18 -45.5q0 -27 -18 -44.5t-48 -17.5h-116z" />
    <glyph glyph-name="Omega" unicode="&#x2126;" horiz-adv-x="639" 
d="M413 0q-30 0 -48 17.5t-18 44.5q0 22 8.5 39.5t36.5 43.5q23 22 36 65.5t13 129.5q0 33 -1 56.5t-2.5 40.5t-4 28.5t-5.5 20.5q-11 35 -39 54t-69 19q-85 0 -108 -73q-3 -9 -6 -20.5t-4.5 -28.5t-2.5 -40.5t-1 -56.5q0 -86 13.5 -129.5t36.5 -65.5q28 -26 36.5 -43.5
t8.5 -39.5q0 -27 -18 -44.5t-49 -17.5h-115q-31 0 -49 17.5t-18 44.5q0 28 18 45.5t49 17.5h12v2q-39 28 -56.5 80.5t-17.5 132.5q0 37 1 65t3.5 50t6.5 39t9 33q29 84 94 124t157 40t156.5 -40t93.5 -124q5 -16 9 -33t6.5 -39t3.5 -50t1 -65q0 -80 -17 -132.5t-56 -80.5v-2
h12q30 0 48 -17.5t18 -45.5q0 -27 -18 -44.5t-48 -17.5h-116z" />
    <glyph glyph-name="Omega" unicode="&#x2126;" horiz-adv-x="639" 
d="M413 0q-30 0 -48 17.5t-18 44.5q0 22 8.5 39.5t36.5 43.5q23 22 36 65.5t13 129.5q0 33 -1 56.5t-2.5 40.5t-4 28.5t-5.5 20.5q-11 35 -39 54t-69 19q-85 0 -108 -73q-3 -9 -6 -20.5t-4.5 -28.5t-2.5 -40.5t-1 -56.5q0 -86 13.5 -129.5t36.5 -65.5q28 -26 36.5 -43.5
t8.5 -39.5q0 -27 -18 -44.5t-49 -17.5h-115q-31 0 -49 17.5t-18 44.5q0 28 18 45.5t49 17.5h12v2q-39 28 -56.5 80.5t-17.5 132.5q0 37 1 65t3.5 50t6.5 39t9 33q29 84 94 124t157 40t156.5 -40t93.5 -124q5 -16 9 -33t6.5 -39t3.5 -50t1 -65q0 -80 -17 -132.5t-56 -80.5v-2
h12q30 0 48 -17.5t18 -45.5q0 -27 -18 -44.5t-48 -17.5h-116z" />
    <glyph glyph-name="pi" unicode="&#x3c0;" horiz-adv-x="598" 
d="M491 -6q-72 0 -100.5 38t-28.5 115v210q0 6 -6 6h-118q-6 0 -6 -6v-289q0 -35 -19.5 -54.5t-50.5 -19.5q-30 0 -49.5 19.5t-19.5 54.5v289q0 6 -6 6h-10q-31 0 -48 16.5t-17 43.5q0 26 17 43.5t48 17.5h439q31 0 48.5 -17.5t17.5 -43.5q0 -27 -17.5 -43.5t-48.5 -16.5h-9
q-6 0 -6 -6v-222q0 -8 3 -12.5t14 -5.5q29 -3 43 -20.5t14 -41.5q0 -26 -17.5 -43.5t-57.5 -17.5h-9z" />
    <glyph glyph-name="Wgrave" unicode="&#x1e80;" horiz-adv-x="864" 
d="M615 -6q-31 0 -49.5 17.5t-30.5 59.5l-103 361h-2l-101 -361q-11 -42 -30 -59.5t-50 -17.5q-30 0 -49.5 17.5t-30.5 59.5l-140 516q-2 7 -3 15t-1 14q0 30 19.5 50t52.5 20q26 0 44.5 -15.5t27.5 -52.5l89 -376h2l103 381q18 63 69 63q52 0 70 -63l106 -381h2l86 376
q8 37 27 52.5t45 15.5q33 0 52 -20t19 -50q0 -6 -1 -14t-3 -15l-140 -516q-11 -42 -30.5 -59.5t-49.5 -17.5zM315 817q-17 17 -17 44q0 23 16 36.5t37 13.5q26 0 46 -21l49 -55q19 -21 19 -47q0 -21 -15 -35t-35 -14q-28 0 -47 22z" />
    <glyph glyph-name="wgrave" unicode="&#x1e81;" horiz-adv-x="765" 
d="M532 -6q-60 0 -79 65l-69 232h-2l-70 -232q-21 -65 -77 -65q-57 0 -79 65l-113 335q-5 17 -5 29q0 29 19.5 48t48.5 19q50 0 67 -59l70 -245h2l69 244q18 60 69 60q50 0 68 -60l73 -244h2l67 245q17 59 67 59q29 0 48 -19t19 -48q0 -12 -5 -29l-113 -335q-22 -65 -77 -65
zM365 540q-28 0 -47 25l-44 59q-8 11 -10.5 19.5t-2.5 20.5q0 23 16.5 37t36.5 14q29 0 47 -24l43 -61q8 -11 10.5 -20.5t2.5 -20.5q0 -23 -15 -36t-37 -13z" />
    <glyph glyph-name="Wacute" unicode="&#x1e82;" horiz-adv-x="864" 
d="M615 -6q-31 0 -49.5 17.5t-30.5 59.5l-103 361h-2l-101 -361q-11 -42 -30 -59.5t-50 -17.5q-30 0 -49.5 17.5t-30.5 59.5l-140 516q-2 7 -3 15t-1 14q0 30 19.5 50t52.5 20q26 0 44.5 -15.5t27.5 -52.5l89 -376h2l103 381q18 63 69 63q52 0 70 -63l106 -381h2l86 376
q8 37 27 52.5t45 15.5q33 0 52 -20t19 -50q0 -6 -1 -14t-3 -15l-140 -516q-11 -42 -30.5 -59.5t-49.5 -17.5zM494 761q-19 -22 -47 -22q-20 0 -35 14t-15 35q0 27 17 45l51 57q20 21 46 21q21 0 37 -13.5t16 -36.5q0 -27 -17 -44z" />
    <glyph glyph-name="wacute" unicode="&#x1e83;" horiz-adv-x="765" 
d="M532 -6q-60 0 -79 65l-69 232h-2l-70 -232q-21 -65 -77 -65q-57 0 -79 65l-113 335q-5 17 -5 29q0 29 19.5 48t48.5 19q50 0 67 -59l70 -245h2l69 244q18 60 69 60q50 0 68 -60l73 -244h2l67 245q17 59 67 59q29 0 48 -19t19 -48q0 -12 -5 -29l-113 -335q-22 -65 -77 -65
zM445 565q-19 -25 -47 -25q-22 0 -37 13t-15 36q0 11 2.5 20.5t10.5 20.5l43 61q18 24 47 24q20 0 36.5 -14t16.5 -37q0 -12 -2.5 -20.5t-10.5 -19.5z" />
    <glyph glyph-name="Wdieresis" unicode="&#x1e84;" horiz-adv-x="864" 
d="M615 -6q-31 0 -49.5 17.5t-30.5 59.5l-103 361h-2l-101 -361q-11 -42 -30 -59.5t-50 -17.5q-30 0 -49.5 17.5t-30.5 59.5l-140 516q-2 7 -3 15t-1 14q0 30 19.5 50t52.5 20q26 0 44.5 -15.5t27.5 -52.5l89 -376h2l103 381q18 63 69 63q52 0 70 -63l106 -381h2l86 376
q8 37 27 52.5t45 15.5q33 0 52 -20t19 -50q0 -6 -1 -14t-3 -15l-140 -516q-11 -42 -30.5 -59.5t-49.5 -17.5zM533 748q-30 0 -51 20.5t-21 50.5t21 50.5t51 20.5q29 0 50 -20.5t21 -50.5t-21 -50.5t-50 -20.5zM332 748q-30 0 -51 20.5t-21 50.5t21 50.5t51 20.5
q29 0 50 -20.5t21 -50.5t-21 -50.5t-50 -20.5z" />
    <glyph glyph-name="wdieresis" unicode="&#x1e85;" horiz-adv-x="765" 
d="M532 -6q-60 0 -79 65l-69 232h-2l-70 -232q-21 -65 -77 -65q-57 0 -79 65l-113 335q-5 17 -5 29q0 29 19.5 48t48.5 19q50 0 67 -59l70 -245h2l69 244q18 60 69 60q50 0 68 -60l73 -244h2l67 245q17 59 67 59q29 0 48 -19t19 -48q0 -12 -5 -29l-113 -335q-22 -65 -77 -65
zM484 543q-30 0 -51 21t-21 51q0 29 21 50t51 21q29 0 50 -21t21 -50q0 -30 -21 -51t-50 -21zM283 543q-30 0 -51 21t-21 51q0 29 21 50t51 21q29 0 50 -21t21 -50q0 -30 -21 -51t-50 -21z" />
    <glyph glyph-name="Ygrave" unicode="&#x1ef2;" horiz-adv-x="567" 
d="M283 -6q-31 0 -52 21t-21 57v198l-174 310q-11 20 -11 40q0 29 20 47.5t49 18.5q41 0 65 -44l124 -233h3l125 233q23 44 65 44q29 0 48 -18.5t19 -47.5q0 -20 -11 -40l-175 -310v-198q0 -36 -21 -57t-53 -21zM186 817q-17 17 -17 44q0 23 16 36.5t37 13.5q26 0 46 -21
l49 -55q19 -21 19 -47q0 -21 -15 -35t-35 -14q-28 0 -47 22z" />
    <glyph glyph-name="ygrave" unicode="&#x1ef3;" horiz-adv-x="507" 
d="M120 -180q-30 0 -47.5 16.5t-17.5 42.5t17 42.5t48 17.5q23 1 36.5 12t22.5 37l13 36l-155 367q-7 17 -7 33q0 29 20 47.5t49 18.5q25 0 40.5 -13t24.5 -36l93 -247h2l86 247q17 49 64 49q29 0 48.5 -18.5t19.5 -47.5q0 -16 -7 -33l-173 -433q-16 -39 -32.5 -65.5
t-36.5 -42.5t-44.5 -23t-57.5 -7h-6zM251 540q-28 0 -47 25l-44 59q-8 11 -10.5 19.5t-2.5 20.5q0 23 16.5 37t36.5 14q29 0 47 -24l43 -61q8 -11 10.5 -20.5t2.5 -20.5q0 -23 -15 -36t-37 -13z" />
    <glyph glyph-name="endash" unicode="&#x2013;" horiz-adv-x="535" 
d="M77 206q-29 0 -46 16.5t-17 42.5t17 42.5t46 16.5h381q29 0 46 -16.5t17 -42.5t-17 -42.5t-46 -16.5h-381z" />
    <glyph glyph-name="emdash" unicode="&#x2014;" horiz-adv-x="894" 
d="M77 206q-30 0 -46.5 16.5t-16.5 42.5t16.5 42.5t46.5 16.5h739q31 0 47.5 -16.5t16.5 -42.5t-16.5 -42.5t-47.5 -16.5h-739z" />
    <glyph glyph-name="quoteleft" unicode="&#x2018;" horiz-adv-x="231" 
d="M165 506q-8 -23 -23 -34.5t-35 -11.5q-27 0 -44 17t-17 43q0 6 1 12.5t3 11.5l30 96q8 23 23 34.5t35 11.5q27 0 44 -17t17 -43q0 -6 -1 -12.5t-3 -11.5z" />
    <glyph glyph-name="quoteright" unicode="&#x2019;" horiz-adv-x="231" 
d="M165 506q-8 -23 -23 -34.5t-35 -11.5q-27 0 -44 17t-17 43q0 6 1 12.5t3 11.5l30 96q8 23 23 34.5t35 11.5q27 0 44 -17t17 -43q0 -6 -1 -12.5t-3 -11.5z" />
    <glyph glyph-name="quotesinglbase" unicode="&#x201a;" horiz-adv-x="231" 
d="M165 -68q-8 -23 -23 -34.5t-35 -11.5q-27 0 -44 17t-17 43q0 6 1 12.5t3 11.5l30 96q8 23 23 34.5t35 11.5q27 0 44 -17t17 -43q0 -6 -1 -12.5t-3 -11.5z" />
    <glyph glyph-name="quotedblleft" unicode="&#x201c;" horiz-adv-x="416" 
d="M350 506q-8 -23 -23 -34.5t-35 -11.5q-27 0 -44 17t-17 43q0 6 1 12.5t3 11.5l30 96q8 23 23 34.5t35 11.5q27 0 44 -17t17 -43q0 -6 -1 -12.5t-3 -11.5zM165 506q-8 -23 -23 -34.5t-35 -11.5q-27 0 -44 17t-17 43q0 6 1 12.5t3 11.5l30 96q8 23 23 34.5t35 11.5
q27 0 44 -17t17 -43q0 -6 -1 -12.5t-3 -11.5z" />
    <glyph glyph-name="quotedblright" unicode="&#x201d;" horiz-adv-x="416" 
d="M350 506q-8 -23 -23 -34.5t-35 -11.5q-27 0 -44 17t-17 43q0 6 1 12.5t3 11.5l30 96q8 23 23 34.5t35 11.5q27 0 44 -17t17 -43q0 -6 -1 -12.5t-3 -11.5zM165 506q-8 -23 -23 -34.5t-35 -11.5q-27 0 -44 17t-17 43q0 6 1 12.5t3 11.5l30 96q8 23 23 34.5t35 11.5
q27 0 44 -17t17 -43q0 -6 -1 -12.5t-3 -11.5z" />
    <glyph glyph-name="quotedblbase" unicode="&#x201e;" horiz-adv-x="416" 
d="M350 -68q-8 -23 -23 -34.5t-35 -11.5q-27 0 -44 17t-17 43q0 6 1 12.5t3 11.5l30 96q8 23 23 34.5t35 11.5q27 0 44 -17t17 -43q0 -6 -1 -12.5t-3 -11.5zM165 -68q-8 -23 -23 -34.5t-35 -11.5q-27 0 -44 17t-17 43q0 6 1 12.5t3 11.5l30 96q8 23 23 34.5t35 11.5
q27 0 44 -17t17 -43q0 -6 -1 -12.5t-3 -11.5z" />
    <glyph glyph-name="dagger" unicode="&#x2020;" horiz-adv-x="548" 
d="M274 -186q-30 0 -49 19.5t-19 52.5v447q0 6 -6 6h-95q-30 0 -47.5 17t-17.5 44t17.5 44t47.5 17h95q6 0 6 6v147q0 33 19 52.5t49 19.5t49 -19.5t19 -52.5v-147q0 -6 6 -6h95q30 0 47.5 -17t17.5 -44t-17.5 -44t-47.5 -17h-95q-6 0 -6 -6v-447q0 -33 -19 -52.5t-49 -19.5
z" />
    <glyph glyph-name="daggerdbl" unicode="&#x2021;" horiz-adv-x="548" 
d="M274 -186q-30 0 -49 19.5t-19 52.5v114q0 6 -6 6h-95q-30 0 -47.5 17t-17.5 44t17.5 44t47.5 17h95q6 0 6 6v232q0 6 -6 6h-95q-30 0 -47.5 17t-17.5 44t17.5 44t47.5 17h95q6 0 6 6v114q0 33 19 52.5t49 19.5t49 -19.5t19 -52.5v-114q0 -6 6 -6h95q30 0 47.5 -17
t17.5 -44t-17.5 -44t-47.5 -17h-95q-6 0 -6 -6v-232q0 -6 6 -6h95q30 0 47.5 -17t17.5 -44t-17.5 -44t-47.5 -17h-95q-6 0 -6 -6v-114q0 -33 -19 -52.5t-49 -19.5z" />
    <glyph glyph-name="bullet" unicode="&#x2022;" horiz-adv-x="475" 
d="M237 158q-33 0 -60.5 11t-47.5 31t-31 47.5t-11 60.5t11 60.5t31 48t47.5 31.5t60.5 11t60.5 -11t48 -31.5t31.5 -48t11 -60.5t-11 -60.5t-31.5 -47.5t-48 -31t-60.5 -11z" />
    <glyph glyph-name="ellipsis" unicode="&#x2026;" horiz-adv-x="780" 
d="M650 -11q-34 0 -58 24t-24 58t24 58t58 24t58 -24t24 -58t-24 -58t-58 -24zM390 -11q-34 0 -58 24t-24 58t24 58t58 24t58 -24t24 -58t-24 -58t-58 -24zM130 -11q-34 0 -58 24t-24 58t24 58t58 24t58 -24t24 -58t-24 -58t-58 -24z" />
    <glyph glyph-name="perthousand" unicode="&#x2030;" horiz-adv-x="1137" 
d="M226 -17q-19 0 -31 12.5t-12 31.5q0 14 8 28l354 613q16 28 44 28q19 0 31 -12.5t12 -31.5q0 -14 -8 -28l-354 -613q-16 -28 -44 -28zM198 330q-49 0 -82 21.5t-46 61.5q-5 17 -7.5 39t-2.5 57t2.5 57t7.5 39q13 40 46 61.5t82 21.5t82 -21.5t46 -61.5q5 -17 7.5 -39
t2.5 -57t-2.5 -57t-7.5 -39q-13 -40 -46 -61.5t-82 -21.5zM198 408q27 0 35 25q2 7 3.5 23t1.5 53t-1.5 53t-3.5 23q-8 25 -35 25t-35 -25q-2 -7 -3.5 -23t-1.5 -53t1.5 -53t3.5 -23q8 -25 35 -25zM939 -9q-49 0 -82 21.5t-46 61.5q-5 17 -7.5 39t-2.5 57t2.5 57t7.5 39
q13 40 46 61.5t82 21.5t82 -21.5t46 -61.5q5 -17 7.5 -39t2.5 -57t-2.5 -57t-7.5 -39q-13 -40 -46 -61.5t-82 -21.5zM617 -9q-49 0 -82 21.5t-46 61.5q-5 17 -7.5 39t-2.5 57t2.5 57t7.5 39q13 40 46 61.5t82 21.5t82 -21.5t46 -61.5q5 -17 7.5 -39t2.5 -57t-2.5 -57
t-7.5 -39q-13 -40 -46 -61.5t-82 -21.5zM939 69q27 0 35 25q2 7 3.5 23t1.5 53t-1.5 53t-3.5 23q-8 25 -35 25t-35 -25q-2 -7 -3.5 -23t-1.5 -53t1.5 -53t3.5 -23q8 -25 35 -25zM617 69q27 0 35 25q2 7 3.5 23t1.5 53t-1.5 53t-3.5 23q-8 25 -35 25t-35 -25q-2 -7 -3.5 -23
t-1.5 -53t1.5 -53t3.5 -23q8 -25 35 -25z" />
    <glyph glyph-name="guilsinglleft" unicode="&#x2039;" horiz-adv-x="321" 
d="M233 63q-24 0 -43 19l-140 140q-11 11 -16.5 20.5t-5.5 21.5t5.5 21.5t16.5 20.5l140 140q19 19 43 19q20 0 34 -13.5t14 -34.5q0 -23 -19 -42l-107 -106q-5 -5 0 -10l107 -106q19 -19 19 -42q0 -21 -14 -34.5t-34 -13.5z" />
    <glyph glyph-name="guilsinglright" unicode="&#x203a;" horiz-adv-x="321" 
d="M88 63q-20 0 -34 13.5t-14 34.5q0 23 19 42l107 106q5 5 0 10l-107 106q-19 19 -19 42q0 21 14 34.5t34 13.5q24 0 43 -19l140 -140q11 -11 16.5 -20.5t5.5 -21.5t-5.5 -21.5t-16.5 -20.5l-140 -140q-19 -19 -43 -19z" />
    <glyph glyph-name="fraction" unicode="&#x2044;" horiz-adv-x="166" 
d="M-55 11q-16 -28 -44 -28q-19 0 -31 12.5t-12 31.5q0 14 8 28l355 613q16 28 44 28q19 0 31 -12.5t12 -31.5q0 -14 -8 -28z" />
    <glyph glyph-name="zero.superior" unicode="&#x2070;" horiz-adv-x="358" 
d="M180 422q-55 0 -90.5 24t-49.5 66q-5 14 -7.5 40t-2.5 81t2.5 81t7.5 40q14 42 49.5 66t90.5 24q54 0 89 -24t49 -66q5 -14 7.5 -40t2.5 -81t-2.5 -81t-7.5 -40q-14 -42 -49 -66t-89 -24zM179 509q29 0 37 26q1 3 2 7t1.5 14t0.5 28v49v49t-0.5 28t-1.5 14t-2 7
q-8 26 -37 26t-37 -26q-1 -3 -2 -7t-1.5 -14t-0.5 -28v-49v-49t0.5 -28t1.5 -14t2 -7q8 -26 37 -26z" />
    <glyph glyph-name="four.superior" unicode="&#x2074;" horiz-adv-x="358" 
d="M249 424q-22 0 -36 13.5t-14 37.5v5q0 6 -6 6h-130q-23 0 -35.5 12t-12.5 32q0 13 4 28.5t14 37.5l96 211q16 36 49 36q21 0 35.5 -13.5t14.5 -36.5q0 -13 -6 -26l-90 -192v-1h61q6 0 6 6v33q0 24 14 38t36 14q21 0 35 -14t14 -38v-33q0 -6 6 -6q20 0 32.5 -12t12.5 -32
t-12.5 -32t-32.5 -12q-6 0 -6 -6v-5q0 -24 -14 -37.5t-35 -13.5z" />
    <glyph glyph-name="five.superior" unicode="&#x2075;" horiz-adv-x="358" 
d="M173 422q-34 0 -65.5 11.5t-48.5 33.5q-8 10 -11.5 20t-3.5 19q0 18 12.5 31t32.5 13q22 0 42 -20t42 -20q15 0 26 6.5t15 18.5q4 11 4 26q0 7 -1 14.5t-3 13.5q-3 10 -12.5 16.5t-24.5 6.5q-21 0 -36 -12q-11 -8 -22.5 -11.5t-25.5 -3.5q-23 0 -36 13.5t-13 37.5v155
q0 45 45 45h180q23 0 35.5 -12.5t12.5 -32.5t-12.5 -31.5t-35.5 -11.5h-123q-6 0 -6 -6v-59h1q10 6 25 10.5t35 4.5q44 0 73 -17t40 -54q8 -23 8 -63q0 -19 -2 -32.5t-6 -25.5q-14 -41 -50.5 -62.5t-90.5 -21.5z" />
    <glyph glyph-name="six.superior" unicode="&#x2076;" horiz-adv-x="358" 
d="M179 422q-33 0 -60.5 9.5t-48 27t-31.5 42.5t-11 55q0 27 9 52.5t27 57.5l82 146q8 16 21 23t27 7q21 0 36 -12.5t15 -34.5q0 -15 -9 -30l-45 -81l1 -1q2 1 6 1h7q54 0 89 -34.5t35 -93.5q0 -61 -42 -97.5t-108 -36.5zM179 508q21 0 33.5 13t12.5 33t-12.5 33t-33.5 13
q-22 0 -34.5 -13t-12.5 -33t12.5 -33t34.5 -13z" />
    <glyph glyph-name="seven.superior" unicode="&#x2077;" horiz-adv-x="358" 
d="M204 458q-7 -17 -20.5 -25.5t-28.5 -8.5q-21 0 -35.5 13t-14.5 35q0 10 5 23l106 251v2h-73q-6 0 -6 -6v-5q0 -22 -13.5 -36t-35.5 -14q-23 0 -36.5 14t-13.5 36v54q0 45 45 45h201q23 0 35.5 -12.5t12.5 -34.5q0 -18 -6 -35.5t-19 -48.5z" />
    <glyph glyph-name="eight.superior" unicode="&#x2078;" horiz-adv-x="358" 
d="M179 422q-33 0 -60.5 9t-48 26t-32 41t-11.5 53q0 31 12.5 53t33.5 38v1q-15 13 -26 32t-11 45q0 24 9 46.5t27 39.5t45 27.5t62 10.5t62 -10.5t45 -27.5t27 -39.5t9 -46.5q0 -26 -11 -45t-26 -32v-1q21 -16 33.5 -38t12.5 -53q0 -29 -11.5 -53t-32 -41t-48.5 -26t-60 -9
zM179 680q19 0 29.5 11t10.5 28t-10.5 28.5t-29.5 11.5t-29.5 -11.5t-10.5 -28.5t10.5 -28t29.5 -11zM179 508q21 0 34.5 13.5t13.5 33.5t-13.5 33t-34.5 13t-34.5 -13t-13.5 -33t13.5 -33.5t34.5 -13.5z" />
    <glyph glyph-name="nine.superior" unicode="&#x2079;" horiz-adv-x="358" 
d="M163 424q-21 0 -36 12.5t-15 34.5q0 15 9 30l45 81l-1 1q-2 -1 -6 -1h-7q-54 0 -89 34.5t-35 93.5q0 61 42 97.5t108 36.5q33 0 60.5 -9.5t48 -27t31.5 -42.5t11 -55q0 -27 -9 -52.5t-27 -57.5l-82 -146q-8 -16 -21 -23t-27 -7zM178 666q22 0 34.5 13t12.5 33t-12.5 33
t-34.5 13q-21 0 -33.5 -13t-12.5 -33t12.5 -33t33.5 -13z" />
    <glyph glyph-name="zero.inferior" unicode="&#x2080;" horiz-adv-x="358" 
d="M180 -163q-55 0 -90.5 24t-49.5 66q-5 14 -7.5 40t-2.5 81t2.5 81t7.5 40q14 42 49.5 66t90.5 24q54 0 89 -24t49 -66q5 -14 7.5 -40t2.5 -81t-2.5 -81t-7.5 -40q-14 -42 -49 -66t-89 -24zM179 -76q29 0 37 26q1 3 2 7t1.5 14t0.5 28v49v49t-0.5 28t-1.5 14t-2 7
q-8 26 -37 26t-37 -26q-1 -3 -2 -7t-1.5 -14t-0.5 -28v-49v-49t0.5 -28t1.5 -14t2 -7q8 -26 37 -26z" />
    <glyph glyph-name="one.inferior" unicode="&#x2081;" horiz-adv-x="358" 
d="M204 -161q-23 0 -38 15.5t-15 41.5v241h-2l-23 -14q-15 -9 -32 -9q-20 0 -31 13t-11 32q0 12 6 23t18 19l53 33q16 10 32.5 16.5t36.5 6.5q27 0 43 -15.5t16 -47.5v-298q0 -26 -15 -41.5t-38 -15.5z" />
    <glyph glyph-name="two.inferior" unicode="&#x2082;" horiz-adv-x="358" 
d="M84 -155q-25 0 -38 13.5t-13 33.5q0 18 11 35t29 35l118 123q14 14 19.5 26t5.5 26q0 17 -11 26t-28 9q-14 0 -24 -6.5t-19 -20.5q-20 -29 -46 -29q-20 0 -33.5 12t-13.5 32q0 11 5 26q11 29 47 51t87 22q61 0 100.5 -32.5t39.5 -89.5q0 -32 -12.5 -56.5t-36.5 -48.5
l-95 -97v-1h102q23 0 35.5 -12t12.5 -32t-12.5 -32.5t-35.5 -12.5h-194z" />
    <glyph glyph-name="three.inferior" unicode="&#x2083;" horiz-adv-x="358" 
d="M179 -163q-45 0 -82 16.5t-50 47.5q-5 13 -5 22q0 18 13 31.5t35 13.5q24 0 47 -27q14 -17 40 -17q20 0 32 11.5t12 31.5q0 19 -13 30.5t-36 11.5q-22 0 -33.5 12t-11.5 31t11.5 31t33.5 12q17 0 28.5 10t11.5 28q0 19 -11 29t-29 10q-21 0 -36 -15q-11 -11 -21.5 -18
t-23.5 -7q-19 0 -32.5 11t-13.5 31q0 9 5 22q11 26 44.5 44.5t81.5 18.5q66 0 103 -32.5t37 -83.5q0 -22 -9.5 -43.5t-32.5 -38.5v-1q18 -8 34.5 -32t16.5 -62q0 -59 -40 -94t-106 -35z" />
    <glyph glyph-name="four.inferior" unicode="&#x2084;" horiz-adv-x="358" 
d="M249 -161q-22 0 -36 13.5t-14 37.5v5q0 6 -6 6h-130q-23 0 -35.5 12t-12.5 32q0 13 4 28.5t14 37.5l96 211q16 36 49 36q21 0 35.5 -13.5t14.5 -36.5q0 -13 -6 -26l-90 -192v-1h61q6 0 6 6v33q0 24 14 38t36 14q21 0 35 -14t14 -38v-33q0 -6 6 -6q20 0 32.5 -12t12.5 -32
t-12.5 -32t-32.5 -12q-6 0 -6 -6v-5q0 -24 -14 -37.5t-35 -13.5z" />
    <glyph glyph-name="five.inferior" unicode="&#x2085;" horiz-adv-x="358" 
d="M173 -163q-34 0 -65.5 11.5t-48.5 33.5q-8 10 -11.5 20t-3.5 19q0 18 12.5 31t32.5 13q22 0 42 -20t42 -20q15 0 26 6.5t15 18.5q4 11 4 26q0 7 -1 14.5t-3 13.5q-3 10 -12.5 16.5t-24.5 6.5q-21 0 -36 -12q-11 -8 -22.5 -11.5t-25.5 -3.5q-23 0 -36 13.5t-13 37.5v155
q0 45 45 45h180q23 0 35.5 -12.5t12.5 -32.5t-12.5 -31.5t-35.5 -11.5h-123q-6 0 -6 -6v-59h1q10 6 25 10.5t35 4.5q44 0 73 -17t40 -54q8 -23 8 -63q0 -19 -2 -32.5t-6 -25.5q-14 -41 -50.5 -62.5t-90.5 -21.5z" />
    <glyph glyph-name="six.inferior" unicode="&#x2086;" horiz-adv-x="358" 
d="M179 -163q-33 0 -60.5 9.5t-48 27t-31.5 42.5t-11 55q0 27 9 52.5t27 57.5l82 146q8 16 21 23t27 7q21 0 36 -12.5t15 -34.5q0 -15 -9 -30l-45 -81l1 -1q2 1 6 1h7q54 0 89 -34.5t35 -93.5q0 -61 -42 -97.5t-108 -36.5zM179 -77q21 0 33.5 13t12.5 33t-12.5 33t-33.5 13
q-22 0 -34.5 -13t-12.5 -33t12.5 -33t34.5 -13z" />
    <glyph glyph-name="seven.inferior" unicode="&#x2087;" horiz-adv-x="358" 
d="M204 -127q-7 -17 -20.5 -25.5t-28.5 -8.5q-21 0 -35.5 13t-14.5 35q0 10 5 23l106 251v2h-73q-6 0 -6 -6v-5q0 -22 -13.5 -36t-35.5 -14q-23 0 -36.5 14t-13.5 36v54q0 45 45 45h201q23 0 35.5 -12.5t12.5 -34.5q0 -18 -6 -35.5t-19 -48.5z" />
    <glyph glyph-name="eight.inferior" unicode="&#x2088;" horiz-adv-x="358" 
d="M179 -163q-33 0 -60.5 9t-48 26t-32 41t-11.5 53q0 31 12.5 53t33.5 38v1q-15 13 -26 32t-11 45q0 24 9 46.5t27 39.5t45 27.5t62 10.5t62 -10.5t45 -27.5t27 -39.5t9 -46.5q0 -26 -11 -45t-26 -32v-1q21 -16 33.5 -38t12.5 -53q0 -29 -11.5 -53t-32 -41t-48.5 -26
t-60 -9zM179 95q19 0 29.5 11t10.5 28t-10.5 28.5t-29.5 11.5t-29.5 -11.5t-10.5 -28.5t10.5 -28t29.5 -11zM179 -77q21 0 34.5 13.5t13.5 33.5t-13.5 33t-34.5 13t-34.5 -13t-13.5 -33t13.5 -33.5t34.5 -13.5z" />
    <glyph glyph-name="nine.inferior" unicode="&#x2089;" horiz-adv-x="358" 
d="M163 -161q-21 0 -36 12.5t-15 34.5q0 15 9 30l45 81l-1 1q-2 -1 -6 -1h-7q-54 0 -89 34.5t-35 93.5q0 61 42 97.5t108 36.5q33 0 60.5 -9.5t48 -27t31.5 -42.5t11 -55q0 -27 -9 -52.5t-27 -57.5l-82 -146q-8 -16 -21 -23t-27 -7zM178 81q22 0 34.5 13t12.5 33t-12.5 33
t-34.5 13q-21 0 -33.5 -13t-12.5 -33t12.5 -33t33.5 -13z" />
    <glyph glyph-name="Euro" unicode="&#x20ac;" 
d="M328 -11q-81 0 -136 36.5t-78 107.5q-6 20 -9.5 43t-3.5 55q0 6 -6 6h-16q-22 0 -33.5 11.5t-11.5 29.5t11.5 29.5t33.5 11.5h16q6 0 6 6v34q0 6 -6 6h-16q-22 0 -33.5 11.5t-11.5 29.5t11.5 29.5t33.5 11.5h16q6 0 6 6q0 28 3.5 51t9.5 43q23 71 78 107.5t136 36.5
q35 0 66 -9t55.5 -23.5t41 -32.5t23.5 -36q5 -11 5 -27q0 -24 -17 -40.5t-42 -16.5q-31 0 -57 32q-27 34 -74 34q-29 0 -48.5 -13.5t-29.5 -43.5q-4 -11 -6 -25t-2 -37q0 -6 6 -6h148q21 0 32.5 -11.5t11.5 -29.5t-11.5 -29.5t-32.5 -11.5h-148q-6 0 -6 -6v-34q0 -6 6 -6
h108q21 0 32.5 -11.5t11.5 -29.5t-11.5 -29.5t-32.5 -11.5h-108q-6 0 -6 -6q0 -26 2 -40.5t6 -25.5q10 -30 29.5 -43.5t48.5 -13.5q47 0 74 34q26 32 57 32q25 0 42 -16.5t17 -40.5q0 -16 -5 -27q-7 -18 -23.5 -36t-41 -32.5t-55.5 -23.5t-66 -9z" />
    <glyph glyph-name="afii61289" unicode="&#x2113;" horiz-adv-x="461" 
d="M116 160q-15 -12 -34 -12q-20 0 -33.5 13t-13.5 35q0 27 25 45l59 44v190q0 101 39.5 158.5t121.5 57.5q64 0 103 -40t39 -112q0 -77 -45 -150.5t-130 -147.5v-87q0 -28 11 -40t30 -12q12 0 21.5 3.5t17.5 8.5q17 10 32 10q20 0 33 -13.5t13 -33.5q0 -25 -21 -43
q-53 -45 -124 -45q-72 0 -106.5 41.5t-34.5 120.5v11zM247 380q33 37 51 77t18 83q0 53 -31 53q-9 0 -16 -4t-12 -15t-7.5 -29.5t-2.5 -48.5v-116z" />
    <glyph glyph-name="trademark" unicode="&#x2122;" horiz-adv-x="846" 
d="M750 280q-20 0 -32.5 12.5t-12.5 34.5v164h-2l-57 -127q-13 -28 -41 -28q-29 0 -42 28l-58 127h-2v-164q0 -21 -12.5 -34t-31.5 -13q-20 0 -32.5 12.5t-12.5 34.5v308q0 23 13.5 37t35.5 14q36 0 53 -38l88 -194h4l85 194q17 38 52 38q23 0 36 -14t13 -37v-308
q0 -21 -12 -34t-32 -13zM198 280q-21 0 -35 14t-14 37v258q0 6 -6 6h-66q-21 0 -33 12t-12 30q0 19 12 31t33 12h242q21 0 33 -12t12 -31q0 -18 -12 -30t-33 -12h-67q-6 0 -6 -6v-258q0 -23 -13.5 -37t-34.5 -14z" />
    <glyph glyph-name="estimated" unicode="&#x212e;" horiz-adv-x="586" 
d="M292 -11q-54 0 -97.5 20t-74 54.5t-47.5 80.5t-17 99t17 99t47.5 80t74 53.5t97.5 19.5q53 0 97 -18.5t75 -52t48.5 -80t17.5 -101.5h-370v-167q52 -52 132 -52q57 0 99.5 26t76.5 84l33 -21q-21 -32 -43 -55.5t-46.5 -38.5t-54 -22.5t-65.5 -7.5zM426 409
q-29 27 -62.5 41.5t-71.5 14.5q-79 0 -132 -56v-133h266v133z" />
    <glyph glyph-name="onethird" unicode="&#x2153;" horiz-adv-x="917" 
d="M226 268q-23 0 -38 15.5t-15 41.5v241h-2l-23 -14q-15 -9 -32 -9q-20 0 -31 13t-11 32q0 12 6 23t18 19l53 33q16 10 32.5 16.5t36.5 6.5q27 0 43 -15.5t16 -47.5v-298q0 -26 -15 -41.5t-38 -15.5zM295 11q-16 -28 -44 -28q-19 0 -31 12.5t-12 31.5q0 14 8 28l355 613
q16 28 44 28q19 0 31 -12.5t12 -31.5q0 -14 -8 -28zM694 -7q-45 0 -82 16.5t-50 47.5q-5 13 -5 22q0 18 13 31.5t35 13.5q24 0 47 -27q14 -17 40 -17q20 0 32 11.5t12 31.5q0 19 -13 30.5t-36 11.5q-22 0 -33.5 12t-11.5 31t11.5 31t33.5 12q17 0 28.5 10t11.5 28
q0 19 -11 29t-29 10q-21 0 -36 -15q-11 -11 -21.5 -18t-23.5 -7q-19 0 -32.5 11t-13.5 31q0 9 5 22q11 26 44.5 44.5t81.5 18.5q66 0 103 -32.5t37 -83.5q0 -22 -9.5 -43.5t-32.5 -38.5v-1q18 -8 34.5 -32t16.5 -62q0 -59 -40 -94t-106 -35z" />
    <glyph glyph-name="twothirds" unicode="&#x2154;" horiz-adv-x="1015" 
d="M128 274q-25 0 -38 13.5t-13 33.5q0 18 11 35t29 35l118 123q14 14 19.5 26t5.5 26q0 17 -11 26t-28 9q-14 0 -24 -6.5t-19 -20.5q-20 -29 -46 -29q-20 0 -33.5 12t-13.5 32q0 11 5 26q11 29 47 51t87 22q61 0 100.5 -32.5t39.5 -89.5q0 -32 -12.5 -56.5t-36.5 -48.5
l-95 -97v-1h102q23 0 35.5 -12t12.5 -32t-12.5 -32.5t-35.5 -12.5h-194zM378 11q-16 -28 -44 -28q-19 0 -31 12.5t-12 31.5q0 14 8 28l355 613q16 28 44 28q19 0 31 -12.5t12 -31.5q0 -14 -8 -28zM778 -7q-45 0 -82 16.5t-50 47.5q-5 13 -5 22q0 18 13 31.5t35 13.5
q24 0 47 -27q14 -17 40 -17q20 0 32 11.5t12 31.5q0 19 -13 30.5t-36 11.5q-22 0 -33.5 12t-11.5 31t11.5 31t33.5 12q17 0 28.5 10t11.5 28q0 19 -11 29t-29 10q-21 0 -36 -15q-11 -11 -21.5 -18t-23.5 -7q-19 0 -32.5 11t-13.5 31q0 9 5 22q11 26 44.5 44.5t81.5 18.5
q66 0 103 -32.5t37 -83.5q0 -22 -9.5 -43.5t-32.5 -38.5v-1q18 -8 34.5 -32t16.5 -62q0 -59 -40 -94t-106 -35z" />
    <glyph glyph-name="oneeighth" unicode="&#x215b;" horiz-adv-x="920" 
d="M226 268q-23 0 -38 15.5t-15 41.5v241h-2l-23 -14q-15 -9 -32 -9q-20 0 -31 13t-11 32q0 12 6 23t18 19l53 33q16 10 32.5 16.5t36.5 6.5q27 0 43 -15.5t16 -47.5v-298q0 -26 -15 -41.5t-38 -15.5zM691 -7q-33 0 -60.5 9t-48 26t-32 41t-11.5 53q0 31 12.5 53t33.5 38v1
q-15 13 -26 32t-11 45q0 24 9 46.5t27 39.5t45 27.5t62 10.5t62 -10.5t45 -27.5t27 -39.5t9 -46.5q0 -26 -11 -45t-26 -32v-1q21 -16 33.5 -38t12.5 -53q0 -29 -11.5 -53t-32 -41t-48.5 -26t-60 -9zM691 251q19 0 29.5 11t10.5 28t-10.5 28.5t-29.5 11.5t-29.5 -11.5
t-10.5 -28.5t10.5 -28t29.5 -11zM691 79q21 0 34.5 13.5t13.5 33.5t-13.5 33t-34.5 13t-34.5 -13t-13.5 -33t13.5 -33.5t34.5 -13.5zM295 11q-16 -28 -44 -28q-19 0 -31 12.5t-12 31.5q0 14 8 28l355 613q16 28 44 28q19 0 31 -12.5t12 -31.5q0 -14 -8 -28z" />
    <glyph glyph-name="threeeighths" unicode="&#x215c;" horiz-adv-x="989" 
d="M743 -7q-33 0 -60.5 9t-48 26t-32 41t-11.5 53q0 31 12.5 53t33.5 38v1q-15 13 -26 32t-11 45q0 24 9 46.5t27 39.5t45 27.5t62 10.5t62 -10.5t45 -27.5t27 -39.5t9 -46.5q0 -26 -11 -45t-26 -32v-1q21 -16 33.5 -38t12.5 -53q0 -29 -11.5 -53t-32 -41t-48.5 -26t-60 -9z
M743 251q19 0 29.5 11t10.5 28t-10.5 28.5t-29.5 11.5t-29.5 -11.5t-10.5 -28.5t10.5 -28t29.5 -11zM743 79q21 0 34.5 13.5t13.5 33.5t-13.5 33t-34.5 13t-34.5 -13t-13.5 -33t13.5 -33.5t34.5 -13.5zM348 11q-16 -28 -44 -28q-19 0 -31 12.5t-12 31.5q0 14 8 28l355 613
q16 28 44 28q19 0 31 -12.5t12 -31.5q0 -14 -8 -28zM226 266q-45 0 -82 16.5t-50 47.5q-5 13 -5 22q0 18 13 31.5t35 13.5q24 0 47 -27q14 -17 40 -17q20 0 32 11.5t12 31.5q0 19 -13 30.5t-36 11.5q-22 0 -33.5 12t-11.5 31t11.5 31t33.5 12q17 0 28.5 10t11.5 28
q0 19 -11 29t-29 10q-21 0 -36 -15q-11 -11 -21.5 -18t-23.5 -7q-19 0 -32.5 11t-13.5 31q0 9 5 22q11 26 44.5 44.5t81.5 18.5q66 0 103 -32.5t37 -83.5q0 -22 -9.5 -43.5t-32.5 -38.5v-1q18 -8 34.5 -32t16.5 -62q0 -59 -40 -94t-106 -35z" />
    <glyph glyph-name="fiveeighths" unicode="&#x215d;" horiz-adv-x="981" 
d="M742 -7q-33 0 -60.5 9t-48 26t-32 41t-11.5 53q0 31 12.5 53t33.5 38v1q-15 13 -26 32t-11 45q0 24 9 46.5t27 39.5t45 27.5t62 10.5t62 -10.5t45 -27.5t27 -39.5t9 -46.5q0 -26 -11 -45t-26 -32v-1q21 -16 33.5 -38t12.5 -53q0 -29 -11.5 -53t-32 -41t-48.5 -26t-60 -9z
M742 251q19 0 29.5 11t10.5 28t-10.5 28.5t-29.5 11.5t-29.5 -11.5t-10.5 -28.5t10.5 -28t29.5 -11zM742 79q21 0 34.5 13.5t13.5 33.5t-13.5 33t-34.5 13t-34.5 -13t-13.5 -33t13.5 -33.5t34.5 -13.5zM347 11q-16 -28 -44 -28q-19 0 -31 12.5t-12 31.5q0 14 8 28l355 613
q16 28 44 28q19 0 31 -12.5t12 -31.5q0 -14 -8 -28zM221 266q-34 0 -65.5 11.5t-48.5 33.5q-8 10 -11.5 20t-3.5 19q0 18 12.5 31t32.5 13q22 0 42 -20t42 -20q15 0 26 6.5t15 18.5q4 11 4 26q0 7 -1 14.5t-3 13.5q-3 10 -12.5 16.5t-24.5 6.5q-21 0 -36 -12
q-11 -8 -22.5 -11.5t-25.5 -3.5q-23 0 -36 13.5t-13 37.5v155q0 45 45 45h180q23 0 35.5 -12.5t12.5 -32.5t-12.5 -31.5t-35.5 -11.5h-123q-6 0 -6 -6v-59h1q10 6 25 10.5t35 4.5q44 0 73 -17t40 -54q8 -23 8 -63q0 -19 -2 -32.5t-6 -25.5q-14 -41 -50.5 -62.5t-90.5 -21.5z
" />
    <glyph glyph-name="seveneighths" unicode="&#x215e;" horiz-adv-x="908" 
d="M690 -7q-33 0 -60.5 9t-48 26t-32 41t-11.5 53q0 31 12.5 53t33.5 38v1q-15 13 -26 32t-11 45q0 24 9 46.5t27 39.5t45 27.5t62 10.5t62 -10.5t45 -27.5t27 -39.5t9 -46.5q0 -26 -11 -45t-26 -32v-1q21 -16 33.5 -38t12.5 -53q0 -29 -11.5 -53t-32 -41t-48.5 -26t-60 -9z
M690 251q19 0 29.5 11t10.5 28t-10.5 28.5t-29.5 11.5t-29.5 -11.5t-10.5 -28.5t10.5 -28t29.5 -11zM690 79q21 0 34.5 13.5t13.5 33.5t-13.5 33t-34.5 13t-34.5 -13t-13.5 -33t13.5 -33.5t34.5 -13.5zM254 302q-7 -17 -20.5 -25.5t-28.5 -8.5q-21 0 -35.5 13t-14.5 35
q0 10 5 23l106 251v2h-73q-6 0 -6 -6v-5q0 -22 -13.5 -36t-35.5 -14q-23 0 -36.5 14t-13.5 36v54q0 45 45 45h201q23 0 35.5 -12.5t12.5 -34.5q0 -18 -6 -35.5t-19 -48.5zM294 11q-16 -28 -44 -28q-19 0 -31 12.5t-12 31.5q0 14 8 28l355 613q16 28 44 28q19 0 31 -12.5
t12 -31.5q0 -14 -8 -28z" />
    <glyph glyph-name="partialdiff" unicode="&#x2202;" horiz-adv-x="550" 
d="M250 -11q-48 0 -87 15.5t-66 43.5t-42 66.5t-15 83.5q0 46 15 86.5t42.5 70.5t66 47t86.5 17q36 0 68.5 -11t57.5 -35h2q-1 44 -9.5 80.5t-25 62.5t-41 40.5t-55.5 14.5q-23 0 -40.5 -6.5t-34.5 -16.5q-20 -11 -38 -11q-24 0 -40 17.5t-16 41.5q0 14 6.5 27t20.5 24
q26 20 64.5 32t85.5 12q118 0 186 -85t68 -247q0 -78 -15.5 -146t-47.5 -117.5t-80.5 -78t-115.5 -28.5zM260 108q94 0 111 162q-21 17 -46 27t-55 10q-45 0 -72 -27t-27 -79q0 -42 24 -67.5t65 -25.5z" />
    <glyph glyph-name="product" unicode="&#x220f;" horiz-adv-x="668" 
d="M525 -186q-32 0 -52.5 21.5t-20.5 56.5v711q0 6 -6 6h-224q-6 0 -6 -6v-711q0 -35 -20.5 -56.5t-52.5 -21.5t-53 21.5t-21 56.5v774q0 33 20.5 53.5t53.5 20.5h382q33 0 53.5 -20.5t20.5 -53.5v-774q0 -35 -21 -56.5t-53 -21.5z" />
    <glyph glyph-name="summation" unicode="&#x2211;" horiz-adv-x="544" 
d="M106 -180q-38 0 -57.5 20t-19.5 49q0 11 1.5 21.5t5 23.5t10.5 30t18 41l145 312l-138 245q-13 23 -21.5 39t-13 28.5t-6 22t-1.5 19.5q0 29 19.5 49t57.5 20h330q34 0 52 -18.5t18 -47.5t-18 -47.5t-52 -18.5h-229l131 -233q15 -29 15 -52t-14 -53l-147 -318h230
q33 0 51.5 -18.5t18.5 -47.5t-18.5 -47.5t-51.5 -18.5h-316z" />
    <glyph glyph-name="minus" unicode="&#x2212;" 
d="M109 217q-29 0 -46 16.5t-17 42.5t17 42.5t46 16.5h338q29 0 46 -16.5t17 -42.5t-17 -42.5t-46 -16.5h-338z" />
    <glyph glyph-name="uni2215" unicode="&#x2215;" horiz-adv-x="166" 
d="M-55 11q-16 -28 -44 -28q-19 0 -31 12.5t-12 31.5q0 14 8 28l355 613q16 28 44 28q19 0 31 -12.5t12 -31.5q0 -14 -8 -28z" />
    <glyph glyph-name="uni2219" unicode="&#x2219;" horiz-adv-x="260" 
d="M130 184q-34 0 -58 24t-24 58t24 58t58 24t58 -24t24 -58t-24 -58t-58 -24z" />
    <glyph glyph-name="radical" unicode="&#x221a;" horiz-adv-x="649" 
d="M322 -186q-31 0 -49.5 18.5t-32.5 47.5l-98 200q-3 6 -9 3l-37 -18q-12 -6 -25 -6q-21 0 -35 14.5t-14 35.5q0 33 32 48l97 47q16 7 28 7q27 0 42 -30l90 -189h3l187 705q6 23 22 36t37 13q24 0 42.5 -15.5t18.5 -42.5q0 -10 -3 -20l-217 -787q-19 -67 -79 -67z" />
    <glyph glyph-name="infinity" unicode="&#x221e;" horiz-adv-x="754" 
d="M555 79q-47 0 -89.5 23t-88.5 71q-47 -49 -90.5 -71.5t-88.5 -22.5q-35 0 -65.5 12t-52.5 34t-34.5 53t-12.5 68t12.5 68t35 53t53 34.5t66.5 12.5q44 0 85 -23t91 -74q50 52 91 74.5t87 22.5q35 0 65.5 -12t53 -34t35.5 -53t13 -69q0 -37 -12.5 -67.5t-35 -52.5
t-52.5 -34.5t-66 -12.5zM550 172q35 0 54 22.5t19 53.5q0 29 -19 51t-54 22q-22 0 -46 -15.5t-63 -59.5q37 -41 61 -57.5t48 -16.5zM204 172q22 0 46 16.5t62 57.5q-37 41 -61 58t-47 17q-35 0 -53.5 -21.5t-18.5 -51.5q0 -32 18.5 -54t53.5 -22z" />
    <glyph glyph-name="integral" unicode="&#x222b;" horiz-adv-x="430" 
d="M112 -180h-10.5t-11.5 1q-24 3 -41.5 17.5t-17.5 40.5q0 25 17.5 42.5t42.5 17.5q28 0 41 16t13 58v518q0 113 42.5 161t131.5 48h10t11 -1q24 -3 41.5 -17.5t17.5 -40.5q0 -25 -17.5 -42.5t-42.5 -17.5q-28 0 -41 -16t-13 -58v-518q0 -113 -42.5 -161t-130.5 -48z" />
    <glyph glyph-name="approxequal" unicode="&#x2248;" 
d="M367 294q-32 0 -55.5 8.5t-49.5 25.5q-17 11 -33.5 18.5t-33.5 7.5q-16 0 -27 -6t-22 -19q-23 -27 -48 -27q-20 0 -35 12.5t-15 35.5q0 20 13 40q19 29 52.5 51t75.5 22q32 0 55.5 -8.5t49.5 -25.5q17 -11 33.5 -18.5t33.5 -7.5q16 0 27 6t22 19q23 27 48 27
q20 0 35 -12.5t15 -35.5q0 -20 -13 -40q-19 -29 -52.5 -51t-75.5 -22zM367 88q-32 0 -55.5 8.5t-49.5 25.5q-17 11 -33.5 18.5t-33.5 7.5q-16 0 -27 -6t-22 -19q-23 -27 -48 -27q-20 0 -35 12.5t-15 35.5q0 20 13 40q19 29 52.5 51t75.5 22q32 0 55.5 -8.5t49.5 -25.5
q17 -11 33.5 -18.5t33.5 -7.5q16 0 27 6t22 19q23 27 48 27q20 0 35 -12.5t15 -35.5q0 -20 -13 -40q-19 -29 -52.5 -51t-75.5 -22z" />
    <glyph glyph-name="notequal" unicode="&#x2260;" 
d="M206 27q-14 -29 -43 -29q-18 0 -31 11.5t-13 30.5q0 12 6 24l24 48h-40q-29 0 -46 16.5t-17 42.5t17 42.5t46 16.5h98l45 92h-143q-29 0 -46 16.5t-17 42.5t17 42.5t46 16.5h201l41 84q14 29 43 29q18 0 31 -11.5t13 -30.5q0 -12 -6 -24l-23 -47h38q29 0 46 -16.5
t17 -42.5t-17 -42.5t-46 -16.5h-96l-45 -92h141q29 0 46 -16.5t17 -42.5t-17 -42.5t-46 -16.5h-199z" />
    <glyph glyph-name="lessequal" unicode="&#x2264;" 
d="M111 314q-65 25 -65 75t65 75l311 122q15 5 28 5q25 0 42.5 -15.5t17.5 -41.5q0 -43 -45 -59l-233 -85v-2l233 -85q45 -16 45 -59q0 -26 -17.5 -41.5t-42.5 -15.5q-13 0 -28 5zM109 0q-29 0 -46 16.5t-17 42.5t17 42.5t46 16.5h338q29 0 46 -16.5t17 -42.5t-17 -42.5
t-46 -16.5h-338z" />
    <glyph glyph-name="greaterequal" unicode="&#x2265;" 
d="M134 192q-15 -5 -28 -5q-25 0 -42.5 15.5t-17.5 41.5q0 43 45 59l233 85v2l-233 85q-45 16 -45 59q0 26 17.5 41.5t42.5 15.5q13 0 28 -5l311 -122q65 -25 65 -75t-65 -75zM109 0q-29 0 -46 16.5t-17 42.5t17 42.5t46 16.5h338q29 0 46 -16.5t17 -42.5t-17 -42.5
t-46 -16.5h-338z" />
    <glyph glyph-name="lozenge" unicode="&#x25ca;" horiz-adv-x="562" 
d="M281 -58q-30 0 -52 17t-44 64l-127 266q-10 22 -10 40q0 17 10 39l127 267q22 46 44 63.5t52 17.5q29 0 51 -17.5t45 -63.5l127 -267q10 -22 10 -39q0 -18 -10 -40l-127 -266q-11 -23 -22 -38.5t-22.5 -25t-24 -13.5t-27.5 -4zM393 329l-112 250h-2l-110 -250l113 -250h2
z" />
    <glyph glyph-name="uniF8FF" unicode="&#xf8ff;" horiz-adv-x="506" 
d="M35 0q-35 0 -35 35v610q0 35 35 35h437q34 0 34 -35v-610q0 -35 -34 -35h-437zM431 65q6 0 6 6v538q0 6 -6 6h-356q-6 0 -6 -6v-538q0 -6 6 -6h356zM245 236q-20 0 -32.5 11.5t-12.5 31.5v7q0 18 5.5 32t18.5 29l40 45q14 15 19 26t5 24q0 19 -11 31t-30 12q-17 0 -26 -6
t-18 -22q-8 -13 -16.5 -20.5t-22.5 -7.5q-17 0 -28.5 10t-11.5 29q0 8 1 12q8 35 40 59t86 24q28 0 51.5 -9t40.5 -25t26 -37.5t9 -45.5q0 -23 -7.5 -42t-24.5 -39l-45 -49q-12 -13 -12 -31v-6q0 -20 -12 -31.5t-32 -11.5zM244 102q-22 0 -37.5 15.5t-15.5 37.5t15.5 37
t37.5 15q21 0 36.5 -15t15.5 -37t-15.5 -37.5t-36.5 -15.5z" />
    <glyph glyph-name="grave.cap" horiz-adv-x="454" 
d="M156 817q-17 17 -17 44q0 23 16 36.5t37 13.5q26 0 46 -21l49 -55q19 -21 19 -47q0 -21 -15 -35t-35 -14q-28 0 -47 22z" />
    </font>
</defs>
</svg>
