<svg width="20" height="20" viewBox="0 0 20 20" fill="none" xmlns="http://www.w3.org/2000/svg">
<g clip-path="url(#clip0_210_9115)">
<rect x="0.909119" y="0.909058" width="18.1818" height="18.1818" rx="4" fill="#2AB930"/>
<rect x="0.909119" y="0.909058" width="18.1818" height="18.1818" rx="4" stroke="white"/>
<path d="M7.39084 10.0001C7.24157 9.86586 7.04706 9.79302 6.84633 9.7962C6.6456 9.79938 6.4535 9.87834 6.30855 10.0172C6.16361 10.1561 6.07655 10.3447 6.06483 10.5451C6.05312 10.7455 6.11761 10.943 6.24539 11.0978L8.0113 12.9512C8.08523 13.0288 8.17407 13.0906 8.27249 13.133C8.37091 13.1754 8.47687 13.1974 8.58402 13.1978C8.69061 13.1984 8.79623 13.1776 8.89461 13.1366C8.993 13.0957 9.08214 13.0353 9.15675 12.9592L14.5499 7.39101C14.6231 7.3158 14.6806 7.22692 14.7194 7.12945C14.7582 7.03198 14.7774 6.92783 14.7759 6.82294C14.7744 6.71805 14.7523 6.61448 14.7108 6.51814C14.6693 6.4218 14.6092 6.33458 14.534 6.26146C14.4588 6.18834 14.3699 6.13075 14.2725 6.09197C14.175 6.0532 14.0708 6.034 13.966 6.03548C13.8611 6.03696 13.7575 6.05908 13.6612 6.10058C13.5648 6.14209 13.4776 6.20216 13.4045 6.27737L8.59198 11.2569L7.39084 10.0001Z" fill="white"/>
</g>
<defs>
<clipPath id="clip0_210_9115">
<rect width="20" height="20" fill="white"/>
</clipPath>
</defs>
</svg>
