<svg width="16" height="16" viewBox="0 0 16 16" fill="none" xmlns="http://www.w3.org/2000/svg">
<g clip-path="url(#clip0_948_9803)">
<path d="M15.7376 8.18372C15.7376 7.63991 15.6934 7.09315 15.599 6.55815H8.02661V9.6388H12.363C12.183 10.6324 11.6048 11.5113 10.7582 12.0698V14.0687H13.3453C14.8645 12.6754 15.7376 10.6177 15.7376 8.18372Z" fill="#4285F4"/>
<path d="M8.02669 16C10.1919 16 12.0179 15.2916 13.3483 14.0687L10.7612 12.0698C10.0415 12.5578 9.11225 12.8341 8.02964 12.8341C5.93521 12.8341 4.15937 11.426 3.5222 9.53297H0.852539V11.5936C2.21539 14.2951 4.99125 16 8.02669 16Z" fill="#34A853"/>
<path d="M3.51924 9.53298C3.18295 8.53941 3.18295 7.46353 3.51924 6.46996V4.40933H0.852531C-0.28613 6.66985 -0.28613 9.33309 0.852531 11.5936L3.51924 9.53298Z" fill="#FBBC04"/>
<path d="M8.02669 3.16591C9.17125 3.14827 10.2775 3.57744 11.1064 4.36524L13.3985 2.08121C11.9471 0.723136 10.0208 -0.0235114 8.02669 5.05307e-06C4.99125 5.05307e-06 2.21539 1.70495 0.852539 4.40934L3.51925 6.46997C4.15347 4.57395 5.93226 3.16591 8.02669 3.16591Z" fill="#EA4335"/>
</g>
<defs>
<clipPath id="clip0_948_9803">
<rect width="15.7377" height="16" fill="white"/>
</clipPath>
</defs>
</svg>
