<svg width="18" height="15" viewBox="0 0 18 15" fill="none" xmlns="http://www.w3.org/2000/svg">
<path d="M16.1125 6.14766C16.0423 6.13628 15.9713 6.13103 15.9003 6.13195H3.80637L4.07008 6.00929C4.32785 5.88729 4.56235 5.72124 4.76309 5.51867L8.15453 2.12722C8.60119 1.70084 8.67624 1.01492 8.33238 0.502024C7.93218 -0.044525 7.16469 -0.163195 6.61811 0.23701C6.57395 0.26936 6.53198 0.304624 6.49254 0.34257L0.35973 6.47538C-0.119549 6.95413 -0.119971 7.73073 0.358771 8.21001C0.359078 8.21032 0.359423 8.21066 0.35973 8.21097L6.49254 14.3438C6.9722 14.8221 7.74881 14.821 8.22716 14.3414C8.2648 14.3036 8.29995 14.2634 8.33238 14.2211C8.67624 13.7082 8.60119 13.0223 8.15453 12.5959L4.76922 9.19835C4.58926 9.0182 4.38235 8.86714 4.15594 8.75066L3.78797 8.58507H15.8328C16.4594 8.60834 17.0091 8.17065 17.1268 7.55476C17.2353 6.88609 16.7811 6.25614 16.1125 6.14766Z" fill="#3A10E5"/>
</svg>
