<svg width="20" height="18" viewBox="0 0 20 18" fill="none" xmlns="http://www.w3.org/2000/svg">
<path d="M1.2021 7.17227C1.28393 7.15899 1.36675 7.15286 1.44961 7.15394H15.5592L15.2515 7.01084C14.9508 6.8685 14.6772 6.67478 14.443 6.43844L10.4864 2.48176C9.96525 1.98431 9.87769 1.18407 10.2789 0.585694C10.7458 -0.0519459 11.6412 -0.190394 12.2788 0.276511C12.3304 0.314253 12.3793 0.355394 12.4253 0.399666L19.5803 7.55462C20.1394 8.11315 20.1399 9.01919 19.5814 9.57835C19.581 9.57871 19.5806 9.57911 19.5803 9.57947L12.4253 16.7344C11.8657 17.2925 10.9597 17.2912 10.4016 16.7316C10.3577 16.6875 10.3167 16.6407 10.2789 16.5913C9.87769 15.9929 9.96525 15.1927 10.4864 14.6953L14.4359 10.7314C14.6458 10.5212 14.8872 10.345 15.1514 10.2091L15.5807 10.0159H1.52836C0.79735 10.0431 0.155998 9.53242 0.0186691 8.81389C-0.10784 8.03377 0.421984 7.29883 1.2021 7.17227Z" fill="white"/>
</svg>
