<svg width="16" height="16" viewBox="0 0 16 16" fill="none" xmlns="http://www.w3.org/2000/svg">
<path d="M7.23958 0.37213C7.52116 -0.124169 8.23629 -0.124168 8.51787 0.37213L10.5812 4.00887C10.6859 4.19337 10.8652 4.32363 11.073 4.36617L15.1693 5.20471C15.7284 5.31914 15.9493 5.99927 15.5644 6.42043L12.7432 9.5066C12.6001 9.66316 12.5316 9.87393 12.5554 10.0847L13.0237 14.2397C13.0876 14.8067 12.5091 15.2271 11.9896 14.9911L8.18266 13.2617C7.98953 13.1739 7.76792 13.1739 7.57479 13.2617L3.76789 14.9911C3.24837 15.2271 2.66982 14.8067 2.73373 14.2397L3.20208 10.0847C3.22584 9.87393 3.15735 9.66316 3.01424 9.5066L0.193097 6.42043C-0.191898 5.99927 0.0290891 5.31914 0.58811 5.20471L4.68446 4.36617C4.89227 4.32363 5.07156 4.19337 5.17624 4.00887L7.23958 0.37213Z" fill="#F99808"/>
</svg>
